<svg width="160" height="99" viewBox="0 0 160 99" fill="none" xmlns="http://www.w3.org/2000/svg">
<path d="M151.806 57.7694L100.261 88.0982C89.2365 94.5865 71.3594 94.5865 60.3352 88.0982L8.34264 57.7694C2.83054 54.4498 0 50.2249 0 46V52.0356C0 56.2605 2.83054 60.6363 8.34264 63.805L60.3352 94.1338C71.3594 100.622 89.2365 100.622 100.112 94.1338L151.806 63.805C157.169 60.6363 159.851 56.4114 160 52.1865V46.1509C160 50.3758 157.169 54.6007 151.806 57.7694Z" fill="#29CCA1"/>
<path d="M151.707 34.9031C162.739 41.3375 162.739 51.6625 151.856 58.0969L100.275 88.1742C89.2429 94.6086 71.3534 94.6086 60.3215 88.1742L8.29265 58.0969C-2.73924 51.6625 -2.73925 41.3375 8.14357 34.9031L59.7252 4.82582C70.7571 -1.60861 88.6466 -1.60861 99.6785 4.82582L151.707 34.9031Z" fill="#F3FBFF"/>
<path d="M80.469 72.9379C93.4305 72.9379 103.938 62.4305 103.938 49.469C103.938 36.5074 93.4305 26 80.469 26C67.5074 26 57 36.5074 57 49.469C57 62.4305 67.5074 72.9379 80.469 72.9379Z" fill="url(#paint0_radial_256:21)" fill-opacity="0.64"/>
<path d="M67.9947 34.1471C67.362 39.2869 66.7824 44.4058 66.2803 49.4999C71.0094 51.3371 75.7486 53.2586 80.4676 55.1379C77.9259 48.0477 75.3431 40.9452 72.9515 33.9688C71.2992 34.0135 69.647 34.0729 67.9947 34.1471V34.1471Z" fill="url(#paint1_linear_256:21)"/>
<path d="M94.6614 49.5C94.0751 43.36 92.9516 34.1508 92.9433 34.1472C86.2803 33.848 79.6174 33.7886 72.9543 33.9688C72.5515 39.4476 72.1842 44.9178 71.8701 50.3778C74.7385 51.9539 77.6096 53.5537 80.4704 55.138C85.1907 53.2587 89.9311 51.3372 94.6614 49.5V49.5Z" fill="url(#paint2_linear_256:21)"/>
<path d="M71.8668 50.3785C69.9966 50.1547 68.1327 49.8598 66.2799 49.5C66.2721 49.5025 65.7994 54.5551 65.8075 54.5524C65.7391 55.1392 65.7076 55.7371 65.7163 56.3446C65.7728 60.3131 67.5199 63.9842 70.1953 66.7441C70.2804 66.8317 70.3859 66.897 70.4999 66.9342C72.213 67.4934 73.9438 67.9131 75.6823 68.1852C74.4045 62.2261 73.1063 56.2815 71.8668 50.3785Z" fill="#29CCA1"/>
<path d="M95.1691 54.9581C95.1685 54.9579 94.9683 52.6182 94.6599 49.5C87.1434 50.9752 79.4537 51.3022 71.8684 50.3785C71.8543 50.4553 71.4691 57.7192 71.4794 57.7173C71.2855 61.7381 73.0508 65.4553 75.684 68.1853C80.6033 68.9633 85.5873 68.5232 90.4363 66.9343C90.5503 66.8971 90.6555 66.8318 90.7408 66.7442C93.4033 63.9977 95.1465 60.3483 95.2189 56.4021C95.2279 55.9145 95.2107 55.4331 95.1691 54.9581V54.9581Z" fill="#55E9C2"/>
<path d="M80.4226 54.0889C77.3115 54.0916 74.7969 56.5916 74.8244 59.6901C74.8547 62.7872 77.3695 65.3626 80.4234 65.365C83.4772 65.364 85.9915 62.7891 86.0213 59.6914C86.0484 56.5924 83.5338 54.0918 80.4226 54.0889V54.0889Z" fill="url(#paint3_linear_256:21)"/>
<path d="M80.4175 55.5C78.0865 55.5012 76.2032 57.3787 76.2188 59.7077C76.2356 62.036 78.1192 63.956 80.4181 63.9571C82.7169 63.9569 84.6 62.0371 84.6165 59.7086C84.632 57.3794 82.7484 55.5014 80.4175 55.5V55.5Z" fill="#6AD3B7"/>
<path d="M81.8144 61.1362C79.5033 61.1443 77.618 59.2348 77.6088 56.9033C77.6085 56.7871 77.6141 56.6724 77.623 56.5586C76.7543 57.3288 76.2112 58.4516 76.2188 59.7083C76.2356 62.0366 78.1192 63.9565 80.418 63.9576C82.6029 63.9576 84.4094 62.2234 84.5995 60.0538C83.8545 60.7218 82.8805 61.1327 81.8144 61.1362Z" fill="#29CCA1"/>
<path d="M92.9489 34.2397C93.0088 36.1409 87.4143 37.4731 80.4688 37.4851C73.5234 37.4731 67.9288 36.1409 67.9888 34.2397C68.0511 32.348 73.6458 30.44 80.4688 30.4375C87.2919 30.4401 92.8865 32.348 92.9489 34.2397V34.2397Z" fill="url(#paint4_linear_256:21)"/>
<defs>
<radialGradient id="paint0_radial_256:21" cx="0" cy="0" r="1" gradientUnits="userSpaceOnUse" gradientTransform="translate(81.4057 48.5322) rotate(-45) scale(28.5407)">
<stop stop-color="#29CCA1"/>
<stop offset="1" stop-color="#96DAC8"/>
</radialGradient>
<linearGradient id="paint1_linear_256:21" x1="58.6223" y1="60.2513" x2="84.8476" y2="34.026" gradientUnits="userSpaceOnUse">
<stop stop-color="#DFA9FF"/>
<stop offset="0.6745" stop-color="#F6E6FF"/>
<stop offset="1" stop-color="white"/>
</linearGradient>
<linearGradient id="paint2_linear_256:21" x1="72.1186" y1="53.4238" x2="97.0612" y2="28.4811" gradientUnits="userSpaceOnUse">
<stop stop-color="#F1D8FF"/>
<stop offset="0.2811" stop-color="#F5E4FF"/>
<stop offset="1" stop-color="white"/>
</linearGradient>
<linearGradient id="paint3_linear_256:21" x1="69.5315" y1="70.5791" x2="93.0826" y2="47.028" gradientUnits="userSpaceOnUse">
<stop stop-color="#DFA9FF"/>
<stop offset="0.6745" stop-color="#F6E6FF"/>
<stop offset="1" stop-color="white"/>
</linearGradient>
<linearGradient id="paint4_linear_256:21" x1="73.7427" y1="40.9719" x2="90.7437" y2="23.9708" gradientUnits="userSpaceOnUse">
<stop stop-color="#F1D8FF"/>
<stop offset="0.3319" stop-color="#F4E1FF"/>
<stop offset="0.8614" stop-color="#FCF8FF"/>
<stop offset="1" stop-color="white"/>
</linearGradient>
</defs>
</svg>
