<svg width="160" height="99" viewBox="0 0 160 99" fill="none" xmlns="http://www.w3.org/2000/svg">
<path d="M151.806 57.7694L100.261 88.0982C89.2365 94.5865 71.3594 94.5865 60.3352 88.0982L8.34264 57.7694C2.83054 54.4498 0 50.2249 0 46V52.0356C0 56.2605 2.83054 60.6363 8.34264 63.805L60.3352 94.1338C71.3594 100.622 89.2365 100.622 100.112 94.1338L151.806 63.805C157.169 60.6363 159.851 56.4114 160 52.1865V46.1509C160 50.3758 157.169 54.6007 151.806 57.7694Z" fill="#5D71FF"/>
<path d="M151.707 34.9031C162.739 41.3375 162.739 51.6625 151.856 58.0969L100.275 88.1742C89.2429 94.6086 71.3534 94.6086 60.3215 88.1742L8.29265 58.0969C-2.73924 51.6625 -2.73925 41.3375 8.14357 34.9031L59.7252 4.82582C70.7571 -1.60861 88.6466 -1.60861 99.6785 4.82582L151.707 34.9031Z" fill="#F3FBFF"/>
<path d="M92.1232 43.6133C91.9842 43.8516 91.8452 44.0899 91.7062 44.3282C89.5814 47.6046 85.9078 49.7691 81.7179 49.7691H71.2728L62.0391 55.9249V61.5049V66.9856V73.1414L71.2728 66.9856H89.1048C95.6777 66.9856 101 61.6638 101 55.0909C100.96 49.5904 97.2067 44.9636 92.1232 43.6133Z" fill="#5D71FF"/>
<path d="M91.687 43.5143C91.826 43.554 91.965 43.5938 92.104 43.6335C93.0373 41.9257 93.5734 39.9797 93.5734 37.8947C93.5734 31.3218 88.2516 26 81.6788 26H67.5402C64.4822 26 62 28.4822 62 31.5403V43.2165H89.0658C89.9792 43.2165 90.853 43.3158 91.687 43.5143Z" fill="#7DCAFF"/>
<path d="M81.6983 49.7681C85.8883 49.7681 89.5818 47.6037 91.6867 44.3272C91.8257 44.0889 91.9845 43.8705 92.1037 43.6123C91.9647 43.5726 91.8257 43.5329 91.6867 43.4932C90.8526 43.3145 89.9789 43.1953 89.0655 43.1953H62.0195V43.4535V44.0095V44.2676V48.9341V49.7483V55.0701V55.8843L71.2533 49.7284H81.6983V49.7681Z" fill="#3BA2FF"/>
<path d="M74.8054 56.978C75.7486 56.978 76.5131 56.2134 76.5131 55.2703C76.5131 54.3271 75.7486 53.5625 74.8054 53.5625C73.8622 53.5625 73.0977 54.3271 73.0977 55.2703C73.0977 56.2134 73.8622 56.978 74.8054 56.978Z" fill="white"/>
<path d="M81.3601 56.978C82.3033 56.978 83.0678 56.2134 83.0678 55.2703C83.0678 54.3271 82.3033 53.5625 81.3601 53.5625C80.4169 53.5625 79.6523 54.3271 79.6523 55.2703C79.6523 56.2134 80.4169 56.978 81.3601 56.978Z" fill="white"/>
<path d="M88.1882 56.978C89.1314 56.978 89.896 56.2134 89.896 55.2703C89.896 54.3271 89.1314 53.5625 88.1882 53.5625C87.2451 53.5625 86.4805 54.3271 86.4805 55.2703C86.4805 56.2134 87.2451 56.978 88.1882 56.978Z" fill="white"/>
</svg>
