<svg width="160" height="99" viewBox="0 0 160 99" fill="none" xmlns="http://www.w3.org/2000/svg">
<path d="M151.806 57.7694L100.261 88.0982C89.2365 94.5865 71.3594 94.5865 60.3352 88.0982L8.34264 57.7694C2.83054 54.4498 0 50.2249 0 46V52.0356C0 56.2605 2.83054 60.6363 8.34264 63.805L60.3352 94.1338C71.3594 100.622 89.2365 100.622 100.112 94.1338L151.806 63.805C157.169 60.6363 159.851 56.4114 160 52.1865V46.1509C160 50.3758 157.169 54.6007 151.806 57.7694Z" fill="#DB7272"/>
<path d="M151.707 34.9031C162.739 41.3375 162.739 51.6625 151.856 58.0969L100.275 88.1742C89.2429 94.6086 71.3534 94.6086 60.3215 88.1742L8.29265 58.0969C-2.73924 51.6625 -2.73925 41.3375 8.14357 34.9031L59.7252 4.82582C70.7571 -1.60861 88.6466 -1.60861 99.6785 4.82582L151.707 34.9031Z" fill="#F3FBFF"/>
<path d="M96.25 32H64.75C64.2859 32 63.8408 32.1844 63.5126 32.5126C63.1844 32.8408 63 33.2859 63 33.75V60C63 60.4641 63.1844 60.9092 63.5126 61.2374C63.8408 61.5656 64.2859 61.75 64.75 61.75H96.25C96.7141 61.75 97.1592 61.5656 97.4874 61.2374C97.8156 60.9092 98 60.4641 98 60V33.75C98 33.2859 97.8156 32.8408 97.4874 32.5126C97.1592 32.1844 96.7141 32 96.25 32V32ZM70.5425 54.5575C70.3607 54.694 70.133 54.7545 69.9074 54.726C69.6819 54.6976 69.4763 54.5825 69.3341 54.4051C69.192 54.2277 69.1244 54.0019 69.1458 53.7756C69.1672 53.5492 69.2759 53.3401 69.4487 53.1925L77.3238 46.875L69.4487 40.5575C69.355 40.4871 69.2764 40.3986 69.2176 40.2972C69.1587 40.1959 69.1209 40.0837 69.1062 39.9674C69.0915 39.8511 69.1004 39.7331 69.1322 39.6203C69.164 39.5075 69.2182 39.4022 69.2915 39.3108C69.3648 39.2193 69.4557 39.1435 69.5588 39.0878C69.662 39.0322 69.7753 38.9978 69.8919 38.9868C70.0086 38.9758 70.1263 38.9883 70.2381 39.0236C70.3499 39.059 70.4534 39.1164 70.5425 39.1925L79.2925 46.1925C79.3947 46.2745 79.4772 46.3784 79.5338 46.4965C79.5905 46.6146 79.6199 46.744 79.6199 46.875C79.6199 47.006 79.5905 47.1354 79.5338 47.2535C79.4772 47.3716 79.3947 47.4755 79.2925 47.5575L70.5425 54.5575ZM91 54.75H80.5C80.2679 54.75 80.0454 54.6578 79.8813 54.4937C79.7172 54.3296 79.625 54.1071 79.625 53.875C79.625 53.6429 79.7172 53.4204 79.8813 53.2563C80.0454 53.0922 80.2679 53 80.5 53H91C91.2321 53 91.4546 53.0922 91.6187 53.2563C91.7828 53.4204 91.875 53.6429 91.875 53.875C91.875 54.1071 91.7828 54.3296 91.6187 54.4937C91.4546 54.6578 91.2321 54.75 91 54.75Z" fill="#DB7272"/>
</svg>
