<svg width="160" height="99" viewBox="0 0 160 99" fill="none" xmlns="http://www.w3.org/2000/svg">
<path d="M151.806 57.7694L100.261 88.0982C89.2365 94.5865 71.3594 94.5865 60.3352 88.0982L8.34264 57.7694C2.83054 54.4498 0 50.2249 0 46V52.0356C0 56.2605 2.83054 60.6363 8.34264 63.805L60.3352 94.1338C71.3594 100.622 89.2365 100.622 100.112 94.1338L151.806 63.805C157.169 60.6363 159.851 56.4114 160 52.1865V46.1509C160 50.3758 157.169 54.6007 151.806 57.7694Z" fill="#A67FDD"/>
<path d="M151.707 34.9031C162.739 41.3375 162.739 51.6625 151.856 58.0969L100.275 88.1742C89.2429 94.6086 71.3534 94.6086 60.3215 88.1742L8.29265 58.0969C-2.73924 51.6625 -2.73925 41.3375 8.14357 34.9031L59.7252 4.82582C70.7571 -1.60861 88.6466 -1.60861 99.6785 4.82582L151.707 34.9031Z" fill="#F3FBFF"/>
<path d="M64.0254 32.0234H96.9742V60.9459H64.0254V32.0234Z" fill="#EAF2F9"/>
<path d="M80.5 32.0234H96.9744V60.9459H80.5V32.0234Z" fill="#C6DCF8"/>
<path d="M88.4636 32.0234L82.6223 39.0712H64.0254V32.0234H88.4636Z" fill="#514C7E"/>
<path d="M88.4638 32.0234L82.6225 39.0712H80.5V32.0234H88.4638Z" fill="#2D2F5C"/>
<path d="M63 31V61.9732H97.9996V31H63ZM95.9488 59.9225H65.0508V33.0508H95.9488V59.9225Z" fill="#A67FDD"/>
<path d="M71.2734 34.875H73.3242V36.9372H71.2734V34.875Z" fill="#F5D34F"/>
<path d="M75.0547 34.875H77.1054V36.9372H75.0547V34.875Z" fill="#FD4B49"/>
<path d="M97.9998 31V61.9732H80.5V59.9225H95.949V33.0508H80.5V31H97.9998Z" fill="#9B57FB"/>
<path d="M82.1933 44.8906V51.2821C82.1933 52.5987 81.5192 53.7608 80.498 54.441C79.8964 54.8423 79.1746 55.076 78.3994 55.076C76.3076 55.076 74.6055 53.3739 74.6055 51.2821V44.8906H76.6562V51.2821C76.6562 52.2433 77.4382 53.0253 78.3994 53.0253C79.3605 53.0253 80.1425 52.2433 80.1425 51.2821V44.8906H82.1933Z" fill="#514C7E"/>
<path d="M84.3398 44.8906H86.3906V55.0304H84.3398V44.8906Z" fill="#2D2F5C"/>
<path d="M82.1953 44.8906V51.2821C82.1953 52.5987 81.5213 53.7608 80.5 54.441V44.8906H82.1953Z" fill="#2D2F5C"/>
<path d="M67.4883 34.875H69.539V36.9372H67.4883V34.875Z" fill="#9FB615"/>
</svg>
