<svg width="84" height="84" viewBox="0 0 84 84" fill="none" xmlns="http://www.w3.org/2000/svg">
<path d="M42 84C30.7816 84 20.2342 79.6312 12.3015 71.6985C4.3688 63.7658 0 53.2184 0 42C0 30.7816 4.3688 20.2342 12.3015 12.3015C20.2342 4.3688 30.7816 0 42 0C53.2184 0 63.7658 4.3688 71.6985 12.3015C79.6312 20.2342 84 30.7816 84 42C84 50.2903 81.5397 58.3531 76.8838 65.3161C75.877 66.8228 73.839 67.2272 72.3323 66.2204C70.8263 65.2129 70.4213 63.175 71.4287 61.6689C75.3598 55.7883 77.4375 48.9874 77.4375 42C77.4375 22.4599 61.5401 6.5625 42 6.5625C22.4599 6.5625 6.5625 22.4599 6.5625 42C6.5625 61.5401 22.4599 77.4375 42 77.4375C48.4811 77.4375 54.8206 75.6725 60.3321 72.3343C61.8817 71.3954 63.8991 71.8908 64.8387 73.441C65.7775 74.9907 65.2821 77.0088 63.7319 77.947C57.195 81.9069 49.6802 84 42 84ZM38.4329 57.4699L54.7905 47.9934C56.9515 46.7411 58.2422 44.5007 58.2422 42C58.2422 39.4993 56.9515 37.2589 54.7898 36.0066L38.4329 26.5301C36.27 25.2772 33.6854 25.274 31.5199 26.5224C29.3499 27.7727 28.0547 30.0164 28.0547 32.5235V51.4765C28.0547 53.9836 29.3499 56.2273 31.5199 57.4776C32.601 58.1006 33.7853 58.4114 34.9697 58.4114C36.1591 58.412 37.3492 58.098 38.4329 57.4699ZM35.1433 32.2082L51.5002 41.6847C51.5496 41.7135 51.6797 41.7885 51.6797 42C51.6797 42.2115 51.5496 42.2865 51.5002 42.3153L35.1433 51.7918C35.0914 51.8213 34.9703 51.8918 34.7973 51.7918C34.6172 51.688 34.6172 51.54 34.6172 51.4765V32.5235C34.6172 32.46 34.6172 32.312 34.7973 32.2082C34.8639 32.1697 34.9229 32.1569 34.9729 32.1569C35.053 32.1562 35.1113 32.1902 35.1433 32.2082Z" fill="url(#paint0_linear_327_2055)" fill-opacity="0.8"/>
<defs>
<linearGradient id="paint0_linear_327_2055" x1="42" y1="0" x2="42" y2="84" gradientUnits="userSpaceOnUse">
<stop offset="0.0938146" stop-color="#725AFF"/>
<stop offset="1" stop-color="#418DE8"/>
</linearGradient>
</defs>
</svg>
