<svg fill="none" height="1082" viewBox="0 0 1336 1082" width="1336" xmlns="http://www.w3.org/2000/svg" xmlns:xlink="http://www.w3.org/1999/xlink"><linearGradient id="a" gradientUnits="userSpaceOnUse" x1="1034.44" x2="357.697" y1="273.612" y2="964.19"><stop offset=".0938146" stop-color="#725aff"/><stop offset="1" stop-color="#418de8"/></linearGradient><path d="m765.445 113.261c-103.944-29.8355-200.767-39.298-317.903 1.843-241.432 84.796-406.2647 338.183-312.129 576.129 87.703 221.686 347.066 346.007 562.561 237.07 117.907-59.677 228.777-120.773 357.836-49.476 26.33 14.425 50.35 32.916 77.72 45.415 149.05 69.825 107.11-176.822 95.93-248.851-25.74-162.964-102.07-320.325-226.02-431.253-68.559-60.863-149.886-105.586-237.995-130.877z" fill="url(#a)"/><g fill="#fff"><path d="m298.17 542.87c-.1-5.1 0-10.2.1-15.3 0-3.3 0-6.6-.1-9.8s.3-6-.4-8.5-2.7-2.6-5-2.7c-6.1-.3-12.2-.1-18.3-.1l-40.6-.2c-7.2 0-14.3.2-21.4.7-2.6.1-6.8-.4-8.9 1.4s-1.6 3.1-1.9 4.8c-.601 3.77-.902 7.582-.9 11.4-.3 8.3-.2 16.5-.7 24.8-.4 6.7-.1 13.4 0 20.1.2 3.7-1 9.8 2.1 12.6s10.2 1.6 14.1 1.7c7.2.3 14.3.5 21.5.6 13.4.2 26.8-.3 40.2.2 5.284.252 10.579-.05 15.8-.9 3.1-.5 4-2.3 4.3-5.1 1.2-11.8.5-23.9.1-35.7zm-89.5-32.7 3.8-.2c5.2-.4 10.4-.6 15.7-.7 11.2-.1 22.4.1 33.7.1h14.5c5 0 10.6-.6 15.6 0 2.4.4 2.5.5 2.9 3 .283 2.322.417 4.66.4 7v1c-30.4-1.1-60.9-1.2-91.3-.3.1-1.7.3-3.4.5-5.1.4-3.1 1-4.5 4.2-4.8zm86.8 55c-.1 4.1 0 8.2-.3 12.3s-1.5 2.9-4.2 3.3c-2.809.497-5.649.798-8.5.9-10.6.2-21.2-.3-31.7-.2-12.5 0-24.9-.4-37.4-.7-3.9-.2-9.9.4-10.1-4.7-.2-2.8-.1-5.6-.2-8.5-.2-6-.4-12.1 0-18.2.6-8.9.3-18 .8-26.9 30.4-.934 60.867-.834 91.4.3.1 4.2-.1 8.5-.2 12.7 0 9.9.7 19.7.4 29.7z" fill-opacity=".04"/><path d="m211.268 518.37c1.9-.2 3.8-1.3 3.5-3.4-.097-.894-.516-1.721-1.178-2.328-.663-.608-1.524-.953-2.422-.972-1.8 0-3.2 1.8-3.5 3.5s1.7 3.4 3.6 3.2zm-1.3-3c.1-.6.6-1.4 1.2-1.4.272-.009.54.076.758.239.218.164.374.397.442.661.3.9-.2 1.1-1.1 1.2-.181.059-.371.08-.561.063-.189-.017-.372-.073-.539-.163-.4-.1-.3-.2-.2-.6z" fill-opacity=".04"/><path d="m220.768 518.269c.46.027.92-.037 1.356-.188.435-.152.835-.388 1.179-.694.344-.307.624-.678.824-1.093s.316-.865.341-1.325c.077-.464.048-.94-.086-1.391-.134-.452-.369-.866-.687-1.213s-.71-.617-1.148-.79c-.438-.172-.91-.243-1.379-.206-1.8-.1-3.8 1.2-3.9 3.1-.027.965.323 1.902.977 2.612s1.559 1.136 2.523 1.188zm-1.2-3.7c.1-.7 1-1 1.6-1s1.2.4 1.1 1.2c.002.189-.037.376-.114.548-.078.173-.192.326-.334.45-.143.123-.311.215-.493.267-.181.052-.372.064-.559.035-.7-.2-1.4-.8-1.2-1.5z" fill-opacity=".04"/><path d="m230.869 518.07c.929-.027 1.808-.421 2.446-1.096s.981-1.576.954-2.504c-.026-.928-.42-1.808-1.095-2.446-.676-.637-1.576-.981-2.505-.954-.966.092-1.869.525-2.547 1.221-.677.696-1.086 1.61-1.153 2.579-.1 2.1 1.9 3.4 3.9 3.2zm-.2-4.8c.171-.013.343.007.506.06.162.054.313.138.443.25.13.111.237.247.314.4.078.153.124.319.137.49.014.171-.007.342-.06.505s-.138.313-.25.443c-.111.13-.247.237-.4.315-.152.077-.319.124-.49.137-.6.1-1.6-.2-1.6-.9-.028-.409.101-.813.361-1.129.261-.317.633-.521 1.039-.571z" fill-opacity=".04"/><path d="m236.77 532.569c-3.1-2.5-7.5-.4-10.3 1.6-5.2 3.6-9.5 8.2-14.5 12.2-7.5 6.6 1.6 13.8 6.8 17.7 3.6 2.6 7.8 6.3 12.1 7.5s7.3-.2 7.5-3.8-5.3-7.1-7.7-9.2c-1.43-1.284-2.933-2.486-4.5-3.6l-2.2-1.4c-1.5-1.1-2.1-.8-1.2-2.3 2.4-3.8 21.2-12.8 14-18.7zm-16.4 21.2c1.7 2 5.3 3.5 7.4 5.2s3.2 2.8 4.7 4.3 2.5 1.8 2.7 2.7c1.3 4.2-2.1 3.9-4.2 3.2l.6-.4c.259-.165.444-.423.519-.72.074-.298.032-.613-.119-.88-.146-.252-.386-.435-.667-.51s-.581-.035-.833.11l-1.3 1c-.2.1-.3.3-.4.4l-1.4-.7.5-.4c1.3-.7.1-2.7-1.1-1.9-.505.275-.975.611-1.4 1l-1.6-1.2.9-.5c1.3-.6.1-2.6-1.1-1.9l-1.8.9-1.1-.8.6-.3c.192-.189.314-.437.348-.704s-.023-.537-.161-.768c-.139-.231-.351-.408-.602-.504-.252-.096-.528-.104-.785-.024l-1.2.9-1.7-1.3.9-.6c.133-.064.252-.154.35-.264.097-.111.172-.24.218-.38.047-.14.065-.288.053-.435s-.053-.29-.121-.421c-.165-.259-.423-.444-.72-.518-.298-.075-.612-.032-.88.118-.556.284-1.062.655-1.5 1.1l-1.3-1.2c.402-.173.773-.41 1.1-.7 1.2-.8.1-2.7-1.1-1.9l-1.4.9c-.476-.689-.878-1.427-1.2-2.2h1.1c.248-.074.465-.226.62-.433.154-.207.237-.459.237-.717s-.083-.51-.237-.717c-.155-.207-.372-.359-.62-.433h-1.2c.164-.769.506-1.488 1-2.1.408.458.842.892 1.3 1.3.275.111.578.132.865.061.288-.072.545-.234.735-.461.129-.272.159-.58.086-.872-.073-.291-.244-.549-.486-.728l-.2-.2c-.2-.1-.3-.3-.4-.4l-.3-.3 1.1-.9 1.3 1.3c.3.5 1.2.4 1.6 0 .179-.229.276-.51.276-.8s-.097-.572-.276-.8l-1.2-1.2 1.6-1.4c.477.312.914.681 1.3 1.1 1 1 2.6-.6 1.6-1.6l-1.2-1.1 1.9-1.6 1.2 1.4c1 1.1 2.6-.5 1.6-1.6s-.8-.7-1.1-1.1l.9-.7 1.2-.9.6.8c.4.5 1 .8 1.5.4.136-.061.256-.151.353-.265.096-.113.166-.246.204-.39.039-.144.044-.294.017-.44s-.086-.285-.174-.405l-.7-1.1 1.5-1h.1l1 1c1.1 1 2.7-.6 1.6-1.6l-.6-.6c1.4-.5 2.6-.5 3.6 1.2s-.1 2.7-1.6 4.2c-3.7 3.8-8.5 6.4-12.2 10.1-1.4 1.5-2 2.7-.7 4.3z" fill-opacity=".04"/><path d="m279.669 539.37c-3.6-2.7-7.8-6.3-12.1-7.6s-7.3.3-7.5 3.9 5.3 7.1 7.7 9.2 3 2.4 4.6 3.6l2.1 1.4c1.5 1 2.1.8 1.2 2.3-2.4 3.7-21.2 12.7-14 18.6 3.1 2.5 7.5.4 10.3-1.5 5.2-3.7 9.5-8.3 14.5-12.2 7.5-6.6-1.6-13.8-6.8-17.7zm5.2 16.1c-3.8 3-7.1 6.6-11.1 9.4-1.566 1.408-3.275 2.649-5.1 3.7-2.1 1.1-3.8 1.8-5.1-.5-.208-.304-.343-.651-.395-1.015s-.019-.735.095-1.085l1.7 1.3c.12.087.259.147.405.174s.297.021.44-.017c.144-.038.277-.108.391-.204.113-.097.203-.217.264-.353.145-.252.185-.551.11-.833-.075-.281-.258-.521-.51-.667l-1.3-1.1.4-.4 1-.9c.491.441.959.909 1.4 1.4.22.197.505.306.8.306s.58-.109.8-.306c.109-.103.196-.227.255-.364.059-.138.09-.286.09-.436s-.031-.298-.09-.436c-.059-.137-.146-.261-.255-.364l-1.3-1.3 1.6-1.3 1.5 1.7c1 1 2.6-.6 1.6-1.6l-1.3-1.5 1.4-1 1.2 1.3c.105.105.23.188.367.245s.284.086.433.086.296-.029.433-.086.262-.14.367-.245.188-.23.245-.367.086-.284.086-.433-.029-.296-.086-.433-.14-.262-.245-.367l-1-1.1 1.7-1.5.8.7c1 1.1 2.6-.5 1.6-1.5-.207-.258-.442-.492-.7-.7.375-.396.65-.876.8-1.4h1.4c.179.053.368.064.552.032.184-.033.358-.108.508-.22s.272-.257.355-.424c.084-.167.128-.351.128-.538s-.044-.371-.128-.538c-.083-.167-.205-.312-.355-.424s-.324-.187-.508-.22c-.184-.032-.373-.021-.552.032h-2c-.281-.382-.618-.719-1-1l1.1-.5c.241-.179.413-.437.486-.728.073-.292.043-.6-.086-.872-.072-.138-.172-.26-.295-.357-.122-.096-.263-.166-.415-.204-.151-.038-.309-.043-.462-.015-.154.028-.299.088-.428.176l-2 1-1.1-.7.9-.4c.259-.165.444-.423.518-.72.075-.298.032-.613-.118-.88-.162-.234-.402-.402-.677-.475-.274-.073-.566-.047-.823.075l-1.8.9h-.2l-1-.7-.4-.3 1.3-.7c.252-.146.435-.386.51-.667s.035-.581-.11-.833c-.147-.251-.38-.44-.656-.532s-.576-.081-.844.032l-2 1.1-1.2-1.2.7-.4c.147-.034.286-.099.408-.189.121-.091.222-.205.297-.336.075-.132.123-.277.139-.428.016-.15.001-.303-.044-.447-.092-.283-.287-.522-.546-.67-.258-.148-.563-.194-.854-.13l-1.8 1-1.1-.8.9-.7c1.3-.6.2-2.6-1.1-1.9l-1.1.8c-1-4.1 2.7-3.5 4.6-2.7 4.1 1.5 7.9 4.8 11.3 7.3s11.8 8.6 5.8 13.9z" fill-opacity=".04"/><path d="m252.07 531.37c-3.3-.1-4.2 2.8-5.1 5.6-2.044 6.11-3.648 12.36-4.8 18.7-.6 3.3-4.8 17.5 2.8 16.7 3-.4 4.8-3.5 5.8-6 1.9-5.3 3-11.2 4.2-16.7.5-2.7 1-5.4 1.6-8.1s1.3-4.2 1-6.1-2.7-4.1-5.5-4.1zm0 20.9-1.8 7.3c-.8 3.1-1.5 9.3-5.3 9.2-2.1 0-2.2-.2-2.2-1.6l.8.2c.144.045.297.06.447.044.151-.017.296-.064.427-.139.132-.075.246-.176.337-.298.09-.121.155-.26.189-.407.045-.145.06-.297.044-.447-.016-.151-.064-.296-.139-.428-.075-.131-.176-.246-.298-.336-.121-.091-.26-.155-.407-.189l-1.2-.2c0-.4.1-.8.1-1.3l1.5.2c1.5.1 1.5-2.2 0-2.2l-1.1-.2c0-.2.1-.4.1-.6s0-.3.1-.4l1.4.3c1.4.3 2-1.9.6-2.2-.555-.157-1.125-.258-1.7-.3.085-.676.219-1.344.4-2l1.9.5c.278.06.569.011.811-.138.243-.149.418-.387.489-.662.045-.145.06-.297.044-.447-.016-.151-.064-.296-.139-.428-.075-.131-.176-.246-.298-.336-.121-.091-.26-.155-.407-.189l-2-.5.3-1.4 1.5.3c.292.079.603.04.866-.11.262-.15.454-.399.534-.69.08-.292.04-.603-.11-.866s-.398-.455-.69-.534l-1.7-.3c.097-.575.23-1.143.4-1.7l1 .3c.292.079.603.04.866-.11.262-.15.454-.399.534-.69.08-.292.04-.603-.11-.866s-.398-.455-.69-.534l-1.2-.3c.1-.3.1-.5.2-.8l1.9.4c.291.064.596.018.854-.13.259-.148.454-.387.546-.67.064-.291.018-.596-.13-.855-.148-.258-.387-.453-.67-.545l-2-.4c.087-.479.221-.948.4-1.4l1.3.3c1.4.4 2-1.8.6-2.1l-1.3-.3c.114-.288.182-.592.2-.9l1.2.3c.136.063.285.095.436.093.15-.002.298-.038.433-.106.134-.067.252-.164.344-.283s.156-.257.187-.404c.045-.145.06-.297.044-.447-.016-.151-.064-.296-.139-.428-.075-.131-.176-.246-.298-.336-.121-.091-.26-.155-.407-.189l-1-.3.5-.9 1.1.3c.144.045.297.06.447.044.151-.017.296-.064.427-.139.132-.075.246-.176.337-.298.09-.121.155-.26.189-.407.064-.291.018-.596-.13-.855-.148-.258-.387-.453-.67-.545h-.4c.338-.362.805-.577 1.3-.6 5.4.1.6 16 0 18.6z" fill-opacity=".04"/><path d="m1086.64 454.086c-.09-4.294 0-8.588.08-12.882 0-2.779 0-5.557-.08-8.252-.09-2.694.25-5.052-.34-7.157-.59-2.104-2.27-2.189-4.21-2.273-5.14-.252-10.27-.084-15.41-.084l-34.18-.168c-6.06 0-12.04.168-18.02.589-2.19.084-5.73-.337-7.49 1.179-1.77 1.515-1.35 2.61-1.6 4.041-.51 3.175-.76 6.384-.76 9.599-.25 6.988-.17 13.893-.59 20.881-.34 5.641-.09 11.283 0 16.924.17 3.115-.84 8.251 1.77 10.609s8.58 1.347 11.87 1.431c6.06.253 12.04.421 18.1.506 11.28.168 22.57-.253 33.85.168 4.45.212 8.91-.042 13.3-.758 2.61-.421 3.37-1.936 3.62-4.294 1.01-9.935.42-20.123.09-30.059zm-75.36-27.533 3.2-.168c4.38-.337 8.76-.505 13.22-.59 9.43-.084 18.86.085 28.37.085h12.21c4.21 0 8.93-.506 13.14 0 2.02.336 2.1.421 2.44 2.526.24 1.955.35 3.924.34 5.894v.842c-25.6-.927-51.28-1.011-76.88-.253.09-1.431.25-2.863.42-4.294.34-2.61.85-3.789 3.54-4.042zm73.08 46.309c-.08 3.453 0 6.905-.25 10.357s-1.26 2.442-3.54 2.778c-2.36.419-4.75.672-7.15.758-8.93.169-17.85-.252-26.69-.168-10.53 0-20.97-.337-31.49-.59-3.29-.168-8.34.337-8.51-3.957-.17-2.357-.08-4.715-.17-7.157-.16-5.052-.33-10.188 0-15.324.51-7.494.26-15.156.68-22.649 25.59-.786 51.25-.702 76.96.252.08 3.537-.09 7.157-.17 10.694 0 8.335.59 16.587.33 25.006z" fill-opacity=".04"/><path d="m1013.47 433.458c1.6-.169 3.2-1.095 2.94-2.863-.08-.752-.43-1.449-.99-1.96-.56-.512-1.28-.803-2.04-.819-1.51 0-2.69 1.516-2.94 2.947-.26 1.432 1.43 2.863 3.03 2.695zm-1.1-2.526c.09-.505.51-1.179 1.01-1.179.23-.007.46.064.64.202.19.137.32.333.37.556.26.758-.16.926-.92 1.01-.15.05-.31.068-.47.053-.16-.014-.32-.061-.46-.137-.34-.084-.25-.168-.17-.505z" fill-opacity=".04"/><path d="m1021.47 433.372c.38.023.77-.031 1.14-.158.36-.128.7-.326.99-.584s.53-.571.69-.92c.17-.35.27-.729.29-1.116.07-.391.04-.792-.07-1.172s-.31-.729-.58-1.021-.6-.519-.97-.665c-.37-.145-.76-.204-1.16-.173-1.51-.085-3.2 1.01-3.28 2.61-.02.812.27 1.601.82 2.199s1.31.957 2.13 1zm-1.01-3.115c.08-.589.84-.842 1.34-.842.51 0 1.01.337.93 1.01 0 .159-.03.317-.1.462-.06.145-.16.274-.28.379-.12.104-.26.181-.41.224-.16.044-.32.054-.47.03-.59-.168-1.18-.674-1.01-1.263z" fill-opacity=".04"/><path d="m1029.97 433.206c.78-.023 1.52-.355 2.06-.923s.83-1.327.8-2.108c-.02-.782-.35-1.523-.92-2.06s-1.33-.826-2.11-.803c-.81.078-1.57.442-2.14 1.028s-.92 1.355-.97 2.171c-.09 1.768 1.6 2.863 3.28 2.695zm-.17-4.042c.15-.011.29.006.43.051.13.045.26.116.37.21s.2.208.27.337c.06.129.1.269.11.413.01.143-.01.288-.05.425-.05.137-.12.264-.21.373-.09.11-.21.2-.34.265s-.27.104-.41.115c-.5.084-1.35-.168-1.35-.757-.02-.345.09-.685.31-.951.22-.267.53-.439.87-.481z" fill-opacity=".04"/><path d="m1034.94 445.414c-2.61-2.105-6.31-.337-8.67 1.347-4.38 3.031-8 6.904-12.21 10.272-6.32 5.558 1.35 11.62 5.72 14.904 3.04 2.189 6.57 5.304 10.19 6.314 3.62 1.011 6.15-.168 6.32-3.199s-4.46-5.978-6.49-7.746c-1.2-1.082-2.47-2.094-3.78-3.031l-1.86-1.179c-1.26-.926-1.77-.674-1.01-1.937 2.02-3.199 17.85-10.777 11.79-15.745zm-13.81 17.85c1.43 1.684 4.46 2.947 6.23 4.378 1.77 1.432 2.7 2.358 3.96 3.621s2.1 1.516 2.27 2.273c1.1 3.537-1.76 3.284-3.53 2.695l.5-.337c.22-.139.38-.356.44-.607.06-.25.03-.515-.1-.74-.12-.212-.33-.366-.56-.429-.24-.064-.49-.03-.7.092l-1.1.842c-.17.084-.25.253-.34.337l-1.17-.59.42-.336c1.09-.59.08-2.274-.93-1.6-.42.232-.82.514-1.18.842l-1.35-1.011.76-.421c1.1-.505.09-2.189-.92-1.599l-1.52.757-.93-.673.51-.253c.16-.159.26-.368.29-.592.03-.225-.02-.453-.13-.647-.12-.194-.3-.344-.51-.424-.21-.081-.44-.088-.66-.021l-1.01.758-1.43-1.095.76-.505c.11-.053.21-.129.29-.222s.14-.202.18-.32.06-.242.05-.366-.05-.245-.1-.355c-.14-.217-.36-.374-.61-.436-.25-.063-.52-.027-.74.099-.47.239-.9.552-1.26.927l-1.1-1.011c.34-.146.65-.345.93-.589 1.01-.674.08-2.273-.93-1.6l-1.18.758c-.4-.58-.74-1.201-1.01-1.852h.93c.21-.063.39-.19.52-.365.13-.174.2-.386.2-.604 0-.217-.07-.429-.2-.604-.13-.174-.31-.302-.52-.364h-1.01c.14-.647.42-1.253.84-1.768.34.385.71.751 1.09 1.094.24.094.49.112.73.051.25-.06.46-.196.62-.387.11-.229.14-.489.07-.734-.06-.246-.2-.463-.4-.614l-.17-.168c-.17-.084-.26-.253-.34-.337l-.25-.252.92-.758 1.1 1.094c.25.421 1.01.337 1.35 0 .15-.192.23-.429.23-.673s-.08-.481-.23-.674l-1.02-1.01 1.35-1.179c.4.262.77.574 1.1.926.84.842 2.19-.505 1.34-1.347l-1.01-.926 1.6-1.347 1.01 1.178c.85.927 2.19-.42 1.35-1.347-.84-.926-.67-.589-.93-.926l.76-.589 1.01-.758.51.674c.33.421.84.673 1.26.336.12-.051.22-.127.3-.222.08-.096.14-.208.17-.329s.04-.248.01-.371c-.02-.123-.07-.239-.14-.341l-.59-.926 1.26-.842h.09l.84.842c.92.842 2.27-.505 1.34-1.347l-.5-.505c1.18-.421 2.19-.421 3.03 1.01.84 1.432-.08 2.274-1.35 3.537-3.11 3.199-7.15 5.388-10.27 8.504-1.18 1.263-1.68 2.273-.59 3.62z" fill-opacity=".04"/><path d="m1071.06 451.139c-3.03-2.273-6.57-5.304-10.19-6.399-3.62-1.094-6.15.253-6.31 3.284-.17 3.031 4.46 5.978 6.48 7.746s2.53 2.021 3.87 3.031l1.77 1.179c1.26.842 1.77.674 1.01 1.937-2.02 3.115-17.85 10.693-11.79 15.661 2.61 2.105 6.32.337 8.68-1.263 4.37-3.116 7.99-6.989 12.2-10.272 6.32-5.558-1.34-11.62-5.72-14.904zm4.38 13.556c-3.2 2.526-5.98 5.557-9.35 7.915-1.32 1.186-2.76 2.23-4.29 3.115-1.77.927-3.2 1.516-4.3-.421-.17-.255-.29-.548-.33-.854-.04-.307-.02-.619.08-.914l1.43 1.095c.1.073.22.123.34.146.13.023.25.018.37-.014s.24-.091.33-.172c.1-.081.17-.183.22-.297.13-.212.16-.464.1-.701-.07-.237-.22-.439-.43-.562l-1.1-.926.34-.337.84-.758c.42.372.81.765 1.18 1.179.19.166.43.257.67.257.25 0 .49-.091.68-.257.09-.087.16-.191.21-.307s.08-.24.08-.367c0-.126-.03-.251-.08-.366-.05-.116-.12-.221-.21-.307l-1.1-1.095 1.35-1.094 1.26 1.431c.85.842 2.19-.505 1.35-1.347l-1.09-1.263 1.18-.842 1.01 1.094c.08.089.19.159.3.207.12.048.24.073.37.073.12 0 .25-.025.36-.073.12-.048.22-.118.31-.207.09-.088.16-.193.21-.309.05-.115.07-.239.07-.364s-.02-.249-.07-.365c-.05-.115-.12-.22-.21-.309l-.84-.926 1.43-1.263.68.59c.84.926 2.18-.421 1.34-1.263-.17-.218-.37-.415-.59-.59.32-.333.55-.737.68-1.179h1.18c.15.045.31.054.46.027.16-.027.3-.091.43-.185.12-.094.23-.216.3-.357.07-.14.1-.296.1-.453s-.03-.312-.1-.453-.18-.263-.3-.357c-.13-.094-.27-.157-.43-.185-.15-.027-.31-.018-.46.027h-1.69c-.23-.322-.52-.606-.84-.842l.93-.421c.2-.151.34-.368.41-.613.06-.246.03-.505-.08-.734-.06-.117-.14-.219-.25-.301-.1-.081-.22-.14-.34-.172-.13-.031-.26-.036-.39-.012-.13.023-.26.073-.36.148l-1.69.842-.92-.59.75-.336c.22-.139.38-.356.44-.607.06-.25.03-.515-.1-.74-.14-.197-.34-.339-.57-.401-.23-.061-.48-.039-.69.064l-1.52.758h-.17l-.84-.59-.34-.252 1.1-.59c.21-.123.36-.325.43-.562.06-.237.03-.489-.09-.701-.13-.211-.32-.37-.56-.448-.23-.077-.48-.068-.71.027l-1.68.926-1.01-1.01.59-.337c.12-.029.24-.083.34-.159s.19-.173.25-.283c.06-.111.1-.233.12-.36.01-.127 0-.255-.04-.377-.08-.238-.24-.439-.46-.564-.22-.124-.47-.163-.72-.109l-1.51.842-.93-.674.76-.589c1.09-.505.17-2.189-.93-1.6l-.92.674c-.85-3.453 2.27-2.947 3.87-2.274 3.45 1.263 6.65 4.042 9.51 6.147 2.87 2.105 9.94 7.241 4.89 11.703z" fill-opacity=".04"/><path d="m1047.82 444.403c-2.78-.085-3.54 2.357-4.29 4.715-1.73 5.145-3.08 10.407-4.05 15.745-.5 2.778-4.04 14.735 2.36 14.061 2.53-.337 4.04-2.947 4.89-5.052 1.59-4.463 2.52-9.43 3.53-14.061.42-2.274.84-4.547 1.35-6.82.5-2.274 1.09-3.537.84-5.136-.25-1.6-2.27-3.452-4.63-3.452zm0 17.597-1.52 6.146c-.67 2.611-1.26 7.831-4.46 7.747-1.77 0-1.85-.169-1.85-1.347l.67.168c.12.038.25.051.38.037s.25-.053.36-.117c.11-.063.21-.148.28-.251.08-.102.13-.218.16-.343.04-.121.05-.249.04-.376-.02-.127-.05-.249-.12-.36-.06-.111-.15-.207-.25-.283s-.22-.13-.34-.159l-1.01-.169c0-.337.08-.673.08-1.094l1.26.168c1.27.084 1.27-1.852 0-1.852l-.92-.169c0-.168.08-.337.08-.505s0-.253.09-.337l1.18.253c1.17.252 1.68-1.6.5-1.852-.47-.132-.95-.217-1.43-.253.07-.569.18-1.132.34-1.684l1.6.421c.23.051.48.01.68-.116s.35-.326.41-.558c.04-.121.05-.249.04-.376-.02-.127-.06-.249-.12-.36s-.15-.207-.25-.283-.22-.13-.34-.159l-1.69-.421.26-1.179 1.26.252c.24.067.51.034.73-.092.22-.127.38-.336.45-.581.06-.246.03-.508-.1-.729-.12-.221-.33-.383-.58-.45l-1.43-.253c.08-.483.2-.962.34-1.431l.84.253c.25.067.51.033.73-.093s.38-.335.45-.581.03-.508-.09-.729c-.13-.221-.34-.383-.58-.45l-1.01-.252c.08-.253.08-.421.16-.674l1.6.337c.25.054.51.015.72-.109.22-.125.39-.326.46-.565.06-.245.02-.501-.11-.719-.12-.218-.32-.382-.56-.459l-1.68-.337c.07-.403.18-.798.33-1.179l1.1.253c1.18.336 1.68-1.516.5-1.769l-1.09-.252c.09-.242.15-.498.17-.758l1.01.253c.11.053.24.08.36.078.13-.002.25-.032.37-.089.11-.056.21-.138.29-.238s.13-.217.16-.341c.03-.121.05-.25.03-.376-.01-.127-.05-.249-.11-.36-.07-.111-.15-.207-.26-.283-.1-.076-.21-.131-.34-.16l-.84-.252.42-.758.93.253c.12.038.25.05.37.037.13-.014.25-.054.36-.117s.21-.149.29-.251c.07-.102.13-.219.16-.343.05-.245.01-.501-.11-.719-.13-.218-.33-.382-.57-.46h-.33c.28-.304.67-.486 1.09-.505 4.55.084.5 13.472 0 15.661z" fill-opacity=".04"/><path d="m652.079 447.391c-15.644 9.725-24.947 31.29-18.322 48.908 2.058 5.784 4.853 11.279 8.315 16.349 1.833 2.537 3.947 4.792 6.061 7.188s3.946 6.202 5.074 10.43c.384 1.41 1.004 2.744 1.832 3.947-.68.697-1.116 1.595-1.243 2.56-.127.966.062 1.946.538 2.796-2.818 3.664-1.55 5.778 1.41 7.047-4.51 6.906 4.933 8.315 13.672 8.315.048 1.355.334 2.691.845 3.947.987 1.691 3.242 1.973 4.933 1.832 2.219.131 4.439-.255 6.484-1.127 1.55-.987 1.973-3.242 2.114-5.074 4.933 0 12.544.422 15.081-2.678.311-.377.543-.813.684-1.281.14-.468.185-.96.133-1.446-.053-.485-.202-.956-.439-1.383-.237-.428-.558-.803-.942-1.105 2.396-1.269 3.383-3.383 1.409-6.484.987-1.691.423-3.805-1.409-5.637.439-.439.775-.968.987-1.551 1.127-2.255.422-4.933.986-7.329s3.383-5.779 5.497-8.738c2.114-2.96 7.188-8.88 9.443-13.672 7.752-15.786 4.651-37.773-7.752-50.317-14.94-15.222-37.632-16.631-55.391-5.497zm20.437 31.854c-.219-.566-.288-1.178-.202-1.778.087-.6.328-1.168.698-1.648s.858-.857 1.417-1.093c.558-.236 1.168-.324 1.771-.256.602.069 1.177.291 1.668.647s.882.832 1.135 1.383c.254.551.36 1.158.31 1.762s-.255 1.185-.595 1.687c-.065 2.445-1.075 4.769-2.819 6.484-2.114-2.114-3.665-4.651-3.383-7.188zm3.101 11.275c2.214 1.816 4.747 3.202 7.47 4.087-3.524 12.122-2.678 26.78-1.973 38.76h-10.148c-.141-5.215.282-25.229-2.819-39.182 2.669-.816 5.191-2.054 7.47-3.665zm1.269 46.934c5.073 0 10.288-.281 15.362-.704 1.142.015 2.28-.127 3.383-.423 3.101 3.101-6.061 3.805-8.175 3.805s-6.906.141-10.43 0l-9.443-.422c-2.114-.141-13.389-1.41-9.725-3.947l1.41.282c5.822.965 11.716 1.436 17.618 1.409zm17.899 7.47-3.664.423-4.792.282h-19.169c-.845-.141-11.557-.423-10.288-3.664 4.51 2.255 12.966 1.268 16.913 1.55 6.765.141 15.504 1.409 22.128-.705zm-15.503 12.122c-1.324.404-2.704.595-4.088.563-.423 0-1.268.141-1.691-.141-.423-.281-.141 0-.423-.422-.27-.68-.46-1.39-.564-2.115l8.034-.422c0 .986-.282 2.255-1.268 2.537zm15.503-9.021c-.323.962-.993 1.768-1.879 2.263s-1.924.643-2.913.415l-4.933.282-8.315.564c-2.115 0-21.142.705-18.041-3.665 0-.141.141-.141.141-.282 5.919 1.41 14.235 1.128 16.772 1.128s12.544.705 19.168-.846zm19.169-56.095c-.772 5.116-2.807 9.96-5.92 14.094-2.96 3.805-6.06 7.752-8.738 11.839-1.315 2.066-2.357 4.292-3.101 6.625-.705 3.241.564 6.342-3.947 8.033-2.599.796-5.318 1.13-8.033.987-.705-12.121-1.41-26.216 2.114-38.196 6.06.423 14.94-2.255 13.389-9.443-2.255-10.289-11.839-2.96-14.517 2.819l-1.127 2.819-3.383-1.41-2.396-1.691c4.51-4.087 6.342-9.443 1.691-14.799s-9.302-1.41-10.43 4.087c-1.127 5.497.987 7.611 3.806 10.712-1.852 1.233-3.902 2.138-6.061 2.678-2.396-8.175-6.342-13.249-12.967-9.866-3.946 1.973-3.523 7.47-.986 10.43 2.537 2.959 7.47 3.946 11.839 3.1.895 5.737 1.366 11.531 1.41 17.337.422 7.047.845 13.953 1.127 20.859-1.945-.133-3.877-.416-5.779-.845-2.959-.705-3.523-.564-4.792-3.806-1.268-3.242-.704-4.369-1.832-6.342-2.537-5.074-7.752-8.598-10.853-13.39-3.678-5.381-6.44-11.335-8.174-17.618-1.974-9.725 1.127-20.014 6.342-28.048 7.752-11.698 19.591-17.477 33.263-18.605 6.349-.368 12.683.934 18.372 3.778 5.688 2.844 10.531 7.131 14.045 12.431 2.979 4.602 5.012 9.752 5.98 15.148.968 5.397.851 10.932-.342 16.283zm-26.78.281c.141-.141.141-.422.282-.563.718-2.327 1.973-4.451 3.665-6.202 5.638-1.973 6.624-.141 3.242 5.215-1.005.783-2.173 1.329-3.417 1.597-1.245.269-2.534.253-3.772-.047zm-22.832-.563h-2.678c-2.115-.141-9.303-2.537-6.907-6.484 2.396-3.946 8.316 2.819 9.303 5.215-.012.44.085.875.282 1.269z" fill-opacity=".04"/><path d="m734.533 449.506c-4.511 2.114-9.162 3.946-13.249 6.906s-.141 5.215 2.114 3.665c4.156-2.77 8.598-5.085 13.249-6.907 2.537-1.127.423-4.792-2.114-3.664z" fill-opacity=".04"/><path d="m703.807 439.639c3.041-4.037 5.729-8.328 8.034-12.826.281-.486.356-1.063.211-1.605s-.5-1.004-.986-1.284c-.486-.281-1.063-.356-1.605-.211s-1.004.5-1.284.986c-2.12 4.182-4.571 8.188-7.329 11.98-1.551 2.114 1.409 5.074 2.959 2.96z" fill-opacity=".04"/><path d="m677.169 430.76c.281-4.792.422-9.584.422-14.376 0-.561-.222-1.099-.619-1.495-.396-.397-.934-.619-1.495-.619-.56 0-1.098.222-1.495.619-.396.396-.619.934-.619 1.495 0 4.792-.141 9.584-.423 14.376-.282 2.678 3.947 2.678 4.229 0z" fill-opacity=".04"/><path d="m647.289 439.498c1.551 2.255 5.215.141 3.665-2.114s-6.061-8.457-7.893-13.249c-.987-2.537-5.074-1.409-4.087 1.128 1.973 5.215 5.215 9.725 8.315 14.235z" fill-opacity=".04"/><path d="m629.815 455.988c-4.12-3.06-8.621-5.571-13.389-7.47-2.537-.987-3.665 3.1-1.128 4.087 4.401 1.847 8.564 4.213 12.403 7.047 2.255 1.692 4.37-1.973 2.114-3.664z" fill-opacity=".04"/><path d="m661.948 452.748c-9.866 2.96-18.886 13.531-20.155 23.678-.282 1.974 2.678 2.819 2.96.846 1.269-9.02 9.021-18.745 18.041-21.423 1.832-.564 1.127-3.665-.846-3.101z" fill-opacity=".04"/><path d="m663.921 458.245c-3.121.591-5.895 2.357-7.752 4.933-1.269 1.55.986 3.805 2.255 2.255.706-1.093 1.637-2.022 2.731-2.727 1.093-.705 2.324-1.169 3.611-1.361 1.974-.281 1.128-3.382-.845-3.1z" fill-opacity=".04"/><path d="m626.66 627.707c-18.502-16.528-46.624-18.625-68.209-7.524s-36.633 36.017-33.056 61.056c4.07 28.739 37.003 43.54 62.905 44.157 11.7.428 23.258-2.666 33.18-8.881 10.36-6.167 16.898-14.801 21.461-26.026 8.511-21.215.617-47.734-16.281-62.782zm16.035 44.651c-5.427 1.11-10.855 2.097-16.282 2.713.037-2.346-.045-4.692-.246-7.03-.512-6.22-1.796-12.353-3.824-18.255 4.092-2.187 7.973-4.747 11.594-7.647 5.716 9.043 8.752 19.521 8.758 30.219zm-89.055 3.33c-.462-7.865.628-15.744 3.207-23.189 7.818 2.827 15.927 4.771 24.176 5.798 3.234.369 6.491.493 9.744.37.74 6.414 1.233 12.704 1.48 18.995l-6.291.246c-10.73.37-21.461.617-32.192.124-.106-.777-.147-1.561-.124-2.344zm36.757-20.722c-4.049.148-8.101-.142-12.088-.863-6.854-1.07-13.587-2.805-20.105-5.181.805-1.857 1.711-3.668 2.714-5.427 5.55-10.237 13.197-20.105 23.558-25.655 2.593 12.269 4.569 24.66 5.921 37.126zm-2.22-37.25c14.554 5.428 24.298 16.652 29.726 30.22-7.456 3.691-15.524 5.99-23.806 6.784-1.357-12.458-3.33-24.669-5.92-37.004zm-2.221 63.893 6.538-.247.37 13.198h-3.454c-9.587.244-19.093 1.822-28.246 4.687-3.46-5.313-5.81-11.271-6.907-17.515 10.484.493 21.092.247 31.699-.123zm3.454 16.651h3.454c0 7.647-.247 15.295-.74 22.942-11.46-2.738-21.616-9.363-28.739-18.748 8.446-2.566 17.2-3.977 26.025-4.194zm-8.757 22.819c-11.758-1.298-23.02-5.448-32.81-12.088 3.783-2.114 7.746-3.888 11.841-5.304 5.393 7.49 12.611 13.476 20.969 17.392zm15.911-22.819c6.393.165 12.754.95 18.995 2.344-4.934 8.387-10.854 15.294-19.612 19.858.37-7.401.617-14.801.617-22.202zm0-3.7-.37-13.321c8.881-.37 17.638-.987 26.396-1.974-.438 6.301-2.203 12.438-5.181 18.008-6.833-1.637-13.82-2.547-20.845-2.713zm-.617-17.022c-.246-6.414-.74-12.704-1.48-19.118 8.587-.8 16.951-3.184 24.669-7.031 1.848 5.891 3.006 11.975 3.454 18.132.163 2.01.204 4.028.123 6.044-8.881.986-17.762 1.603-26.766 1.973zm35.893-38.483c-3.348 2.747-6.94 5.182-10.731 7.277-4.81-12.087-12.951-22.325-24.545-28.739 7.157 1.546 14.025 4.21 20.352 7.894 5.864 3.435 10.948 8.056 14.924 13.568zm-79.186-10.731c7.329-5.387 15.821-8.979 24.792-10.484-8.388 6.167-14.925 14.801-19.735 23.805-1.151 1.974-2.138 3.947-2.961 5.921-4.888-2.137-9.422-5.007-13.444-8.511 3.252-4.1 7.073-7.713 11.348-10.731zm-13.568 13.691c4.294 3.698 9.116 6.733 14.308 9.004-2.963 8.551-4.138 17.619-3.454 26.643-7.292-.452-14.545-1.4-21.708-2.837-.37-11.471 3.947-23.189 10.854-32.81zm-7.401 48.104c-1.593-3.614-2.673-7.434-3.207-11.347 7.24 1.457 14.579 2.364 21.955 2.713.977 6.757 3.373 13.231 7.031 18.995-4.443 1.64-8.735 3.662-12.828 6.044-5.528-4.393-9.961-10.008-12.951-16.405zm71.91 29.973c6.518-4.991 11.865-11.348 15.664-18.625 3.427 1.058 6.767 2.378 9.991 3.947-7.009 7.198-15.898 12.284-25.655 14.678zm28.122-17.515c-3.37-1.817-6.927-3.264-10.608-4.317 3.048-6.027 4.812-12.621 5.181-19.365 5.427-.74 10.854-1.603 16.281-2.714-.125 1.742-.372 3.474-.74 5.181-1.53 7.811-5.009 15.108-10.114 21.215z" fill-opacity=".04"/><path d="m528.235 642.878c4.269-8.024 9.952-15.211 16.775-21.215 1.234-1.11-.74-3.084-1.973-1.974-6.987 6.182-12.796 13.579-17.145 21.832-.864 1.604 1.603 2.96 2.343 1.357z" fill-opacity=".04"/><path d="m528.482 632.887c1.576-2.944 3.571-5.644 5.92-8.017 1.357-1.234-.617-3.207-1.973-1.974-2.515 2.55-4.635 5.46-6.291 8.634-.863 1.604 1.603 2.961 2.344 1.357z" fill-opacity=".04"/><path d="m635.539 711.335c-5.119 5.929-11.653 10.469-18.995 13.198-1.604.616-.863 3.33.74 2.713 7.773-2.87 14.691-7.665 20.105-13.938 1.233-1.356-.74-3.33-1.85-1.973z" fill-opacity=".04"/><path d="m633.073 720.585c-1.421 1.757-3.239 3.151-5.303 4.07-1.604.864-.247 3.207 1.356 2.467 2.27-1.093 4.286-2.648 5.921-4.564 1.233-1.356-.74-3.33-1.974-1.973z" fill-opacity=".04"/><path d="m479.812 942.04c6.329.155 13.585.927 14.357-6.946.771-7.873.154-19.606.154-29.177 0-4.631 2.624-15.437-3.087-17.599-5.712-2.161-8.645-.617-12.196-1.08-3.437-.332-6.892-.435-10.343-.309-6.175.154-9.262.618-9.262 7.101 0 9.417-.772 18.679-.772 28.096-.309 4.323-1.081 12.968 1.389 16.518 2.47 3.551 14.511 3.396 19.76 3.396zm-11.887-50.48c4.799-.205 9.607.054 14.357.772 2.007.155 6.175-.463 7.41 1.081 1.235 1.543 0 8.645 0 10.343 0 5.557 0 11.269-.155 16.826v10.344c-.154 5.711-1.852 6.638-7.718 6.638-3.551 0-10.806 1.235-15.129-.309 1.243-.959 2.381-2.045 3.396-3.242 1.39-1.698-1.08-4.168-2.47-2.47-1.119 1.298-2.36 2.487-3.705 3.551v-.309c-.599-1.739-.912-3.564-.926-5.403l5.866-5.095c1.698-1.389-.772-3.859-2.47-2.47l-3.241 2.779c0-.926.154-1.852.154-2.47v-3.087l7.255-6.33c1.699-1.389-.771-3.705-2.47-2.47l-4.476 3.86c-.026-1.289.026-2.577.154-3.86l6.329-5.248c1.698-1.39-.772-3.86-2.47-2.47l-3.55 3.087v-2.47c.127-.608.179-1.231.154-1.852l5.403-4.014c1.853-1.389.155-4.322-1.698-3.087l-3.859 2.933c-.025-.622.027-1.244.154-1.853.155-3.242.309-3.242 3.705-3.705z" fill-opacity=".04"/><path d="m507.908 937.718c2.316 5.249 9.571 4.014 14.048 3.859 4.477-.154 14.666 1.698 18.679-1.389 4.014-3.088 1.853-14.048 1.853-18.371 0-10.343.154-20.686.154-31.029v-15.128c.155-2.316.772-6.33-.617-8.491-1.39-2.161-11.578-2.47-15.283-2.933s-13.585-1.852-17.136.772c-3.55 2.624-1.698 13.122-1.852 17.135-.155 10.652-.926 21.458-.772 32.264-.18 4.425-.129 8.857.154 13.277.155 2.933-.308 7.255.772 10.034zm4.477-68.079c2.161-3.242 14.202-.772 17.29-.309 3.087.463 7.101-.772 8.49 2.162 1.39 2.933-.154 9.262-.154 12.195 0 8.954 0 18.062-.154 27.17v13.43c0 2.316 1.235 9.571-.155 11.424-1.389 1.852-12.35 2.007-18.525 1.698l5.095-3.705c1.698-1.235 0-4.322-1.853-2.933l-8.182 5.866c-.559-.209-1.053-.561-1.432-1.022-.38-.461-.631-1.013-.729-1.602 3.242-2.47 6.638-5.094 9.726-7.873 3.087-2.779-.772-3.86-2.47-2.47l-7.565 6.175v-2.161c.026-.673-.026-1.347-.154-2.007 3.058-3.395 6.474-6.449 10.189-9.108 1.852-1.235.154-4.323-1.698-2.933-3.092 2.156-5.985 4.584-8.645 7.255v-3.705c2.744-2.876 5.684-5.558 8.799-8.027 1.698-1.39-.772-3.86-2.47-2.47-1.698 1.389-4.168 3.55-6.175 5.403v-5.558c2.567-2.512 5.358-4.785 8.336-6.792 1.853-1.235 0-4.168-1.852-2.933-2.21 1.458-4.324 3.057-6.33 4.785.132-1.436.183-2.88.155-4.322 2.521-2.654 5.315-5.034 8.336-7.101 1.853-1.235.154-4.168-1.698-2.933-2.292 1.525-4.46 3.228-6.484 5.094.123-.714.175-1.438.155-2.161v-2.316c2.209-2.678 4.751-5.065 7.564-7.101 1.852-1.235.154-4.322-1.698-2.933-2.008 1.411-3.916 2.958-5.712 4.631.128-1.076.18-2.159.154-3.242 1.936-2.1 4.112-3.965 6.484-5.557 1.853-1.39.154-4.323-1.698-3.088-1.75 1.205-3.402 2.547-4.94 4.014-.309-2.007-.463-4.322 0-4.94z" fill-opacity=".04"/><path d="m557 933.705c.309 3.705.772 6.02 4.477 7.41 3.705 1.389 8.49.926 12.35 1.08 3.859.155 10.188.463 14.665-1.543 4.477-2.007 3.396-12.505 3.396-18.062.155-11.424.155-22.693.155-34.117 0-11.423.154-23.001.309-34.579 0-4.94 2.47-16.981-3.242-19.143-5.712-2.161-10.035-.926-14.357-1.389s-9.571-.772-13.43.309c-3.86 1.08-3.705 10.497-3.86 15.591-.154 21.767-1.235 43.534-.772 65.146-.36 6.431-.256 12.88.309 19.297zm5.094-93.242c.772-3.705 7.41-2.779 10.961-2.624 3.55.154 10.189 0 12.659 1.235 2.469 1.235 2.006 3.705 2.006 6.947 0 7.873-.154 15.746-.154 23.619-.154 18.37-.154 36.741-.309 55.265 0 2.47 1.081 7.874 0 10.189-1.08 2.316-10.188 2.47-13.43 2.47s-4.168 0-6.175 0c.707-.63 1.377-1.3 2.007-2.007 1.543-1.698-.927-4.168-2.316-2.47l-3.705 3.396-1.081-.771c1.699-1.853 3.397-3.705 5.249-5.403 1.853-1.699-.926-3.86-2.47-2.47l-4.013 4.013c-.187-1.071-.29-2.155-.309-3.242l6.02-4.939c1.698-1.39-.772-3.86-2.47-2.47l-3.705 3.087v-2.161c3.088-2.161 6.175-4.631 9.108-6.947 2.934-2.316-.771-3.859-2.47-2.47l-6.483 4.94c.154-1.081.154-2.161.309-3.242v-1.544c2.271-2.13 4.696-4.091 7.255-5.866 1.853-1.235.154-4.322-1.698-3.087-1.853 1.235-3.859 2.933-5.557 4.322 0-1.235-.155-2.47-.155-3.705l6.329-4.785c1.699-1.544-.771-3.86-2.47-2.47l-3.704 2.933v-4.168c2.33-2.173 4.805-4.185 7.409-6.021 1.699-1.235 0-4.168-1.852-2.933-1.926 1.344-3.781 2.786-5.557 4.322.154-2.161.154-4.168.154-6.174 1.64-1.569 3.394-3.014 5.249-4.323.372-.277.638-.674.75-1.124.113-.451.066-.926-.133-1.346-.25-.36-.62-.62-1.044-.734-.425-.113-.875-.072-1.272.117l-3.396 2.624v-2.779c2.63-1.992 5.361-3.847 8.182-5.557.208-.103.393-.248.543-.425.149-.178.261-.384.328-.606.067-.223.088-.456.061-.687s-.101-.453-.217-.654-.273-.376-.459-.514c-.187-.138-.4-.237-.626-.289-.226-.053-.461-.059-.689-.017-.229.042-.446.13-.639.259-2.202 1.244-4.316 2.637-6.329 4.168-.026-1.391.026-2.783.154-4.168v-.463c1.852-1.853 3.859-3.551 5.866-5.249s-.772-4.014-2.47-2.47l-3.396 2.933c0-1.698.154-3.396.154-5.249l4.94-4.477c.328-.327.512-.771.512-1.235 0-.463-.184-.907-.512-1.235-.327-.327-.771-.511-1.235-.511-.463 0-.907.184-1.235.511l-2.47 2.162v-4.477c2.316-1.698 4.477-3.551 6.638-5.403 2.162-1.853-.771-4.014-2.47-2.47l-4.168 3.55c-.232-1.535-.232-3.096 0-4.631z" fill-opacity=".04"/><path d="m594.668 947.752c-22.847.926-45.694.926-68.541.463-22.848-.463-43.225-2.007-64.992-1.544-2.161 0-7.255.926-8.953-.154-1.699-1.081-1.853-6.329-1.853-8.182-.309-4.785-.463-9.725-.617-14.511-.155-9.726-.155-19.297-.155-28.868.309-19.605.618-39.211.309-58.816-.154-3.088-4.786-3.088-4.631 0 .463 21.458-.155 43.07-.309 64.682-.154 10.189 0 20.532.463 30.721.155 6.175-2.007 17.135 5.558 19.451 3.859 1.235 8.799.308 12.658.308 3.86 0 11.27-.154 16.827.155l36.895 1.235c25.781.617 51.561.617 77.341-.309 2.933-.154 2.933-4.785 0-4.631z" fill-opacity=".04"/><path d="m901.768 516.055c-6.194-5.708-12.023-7.408-19.917-4.129s-12.509 9.229-17.974 14.33c-8.379 7.53-16.273 15.423-24.167 23.439-7.894 8.015-15.059 15.666-22.346 23.682-3.498 3.482-6.783 7.173-9.837 11.051 0 .122-.122.243-.243.364-.121.122-.243.365-.243.608-1.943 3.886-2.793 8.622-3.765 12.751-1.555 6.683-2.691 13.457-3.4 20.282-.122 1.336 1.214 1.943 2.307 1.821 10.687-1.7 21.132-4.129 31.819-5.95 4.25-.729 6.194-3.765 9.23-6.923l15.18-15.666c9.352-9.837 18.703-19.553 28.176-29.268 7.893-7.894 19.066-16.517 22.71-27.447 2.793-8.137-1.943-13.602-7.53-18.945zm-11.294 37.769c-4.372-3.522-7.651-7.772-11.659-11.902-4.008-4.129-8.501-8.501-12.873-12.508l2.429-2.186c8.137 8.015 16.273 16.152 24.289 24.531zm-9.837 9.473c-7.651-8.623-16.638-16.152-25.382-23.804l2.186-2.064c9.23 6.801 17.124 15.788 25.26 23.925-.382.259-.712.589-.971.971zm-46.999 34.976c-3.522.243-6.923.243-10.445.243-.121-2.551-.121-6.801-1.093-9.23 6.315-6.194 11.659-12.873 17.61-19.188 5.951-6.316 13.966-14.088 20.888-21.132 3.644 3.158 7.166 6.437 10.566 9.716-12.144 13.48-24.532 26.839-37.526 39.591zm30.239-67.038 1.943 1.822c-1.335 1.457-2.671 2.915-4.129 4.25l-2.307-1.821zm8.866 16.152c1.419-1.119 2.759-2.336 4.008-3.643.121 0 .121 0 .121.122.83.749 1.602 1.561 2.307 2.428-1.163 1.306-2.421 2.524-3.764 3.644zm-1.943-1.943-2.186-2.186 3.765-4.007 2.55 2.55c-1.336 1.214-2.672 2.55-4.129 3.643zm-4.251-4.007-2.793-2.429c1.427-1.285 2.766-2.664 4.008-4.129l2.671 2.55c-1.336 1.214-2.671 2.672-3.886 4.008zm10.687 10.565c1.336-1.214 2.672-2.429 3.765-3.643l2.429 2.55c-1.214 1.215-2.429 2.429-3.522 3.765zm-45.299 10.93c6.801-7.043 13.602-14.087 20.646-20.888l5.951 5.101c-6.923 7.043-13.966 13.844-20.767 21.009-6.801 7.166-11.295 12.995-17.61 19.189-1.033-.271-2.091-.434-3.157-.486l-5.951-.972c5.829-8.258 13.966-15.666 20.888-22.953zm-13.844 51.007c-3.53-4.382-7.52-8.372-11.902-11.901.26-.959.463-1.932.607-2.915.703-3.618 1.636-7.188 2.793-10.687 2.915.243 7.53.364 10.08 1.579-1.093-.243-.121 1.821.122 3.279l.729 6.679c.03.365.197.705.467.953.27.247.624.384.99.383 2.55-.122 5.222.121 7.772-.121 2.551-.243 2.672-.851 3.036 1.943.365 2.793.365 4.979.608 7.529l-.972.243c-4.736 1.215-9.473 2.186-14.33 3.036zm39.226-26.475-12.994 13.602c-2.672 2.672-5.101 6.072-8.259 8.258-.242-2.914-.485-5.829-.971-8.744 13.237-12.873 25.746-26.353 38.012-39.955 1.7 1.7 3.401 3.522 4.979 5.343zm27.325-28.054c-.99-.869-1.923-1.802-2.793-2.793 1.112-1.273 2.287-2.489 3.522-3.643l3.036 2.793zm20.282-23.196c-2.551 4.77-5.829 9.113-9.716 12.874-8.015-8.259-16.031-16.395-24.167-24.411l.485-.486c5.465-4.979 12.388-12.387 20.646-10.079 3.886 1.093 7.044 4.372 9.594 7.286 2.55 2.915 6.194 8.623 3.158 14.816z" fill-opacity=".04"/><path d="m882.459 521.399c-.365-1.822-2.915-1.093-2.672.729.477 2.471 1.126 4.906 1.943 7.286.486 1.579 3.157.972 2.55-.728-.607-1.701-1.336-4.858-1.821-7.287z" fill-opacity=".04"/><path d="m887.073 520.427c-.096-.355-.33-.656-.649-.838-.319-.183-.697-.231-1.051-.134s-.656.33-.838.649-.23.697-.134 1.051c.729 2.065 1.458 4.129 2.065 6.194s3.279.972 2.672-.729c-.608-1.7-1.336-4.129-2.065-6.193z" fill-opacity=".04"/><path d="m870.808 714.334c-15.134 5.654-29.311 13.395-43.923 20.092s-30.877 15.134-46.359 22.614c-.957.435-.87 2.261.261 2.348 10.176 1.479 20.179 3.653 30.094 6.002.174 10.176-.087 20.352.087 30.529-.01.291.077.577.248.813.172.236.417.407.697.487.281.08.58.064.85-.045.27-.11.495-.307.64-.56 5.306-7.654 10.611-15.221 16.265-22.527 7.915 4.784 15.83 9.481 23.31 14.873.172.101.366.16.565.174s.399-.019.584-.094c.185-.076.35-.193.483-.342.132-.15.228-.328.281-.52 2.349-12.177 4.784-24.093 8.176-36.009s6.697-24.006 9.394-36.182c.174-.87-.609-2.001-1.653-1.653zm-50.968 51.49c-.186.113-.344.265-.465.445-.12.18-.199.385-.231.599-.54 1.109-.949 2.276-1.218 3.479-1.566 6.176-2.696 12.525-4.436 18.613 0-8.175.174-16.351 0-24.527 15.482-13.656 31.486-26.876 47.664-39.749l-28.964 28.616-8.958 8.784c-1.278 1.105-2.417 2.361-3.392 3.74zm44.532-46.097c-17.744 13.916-35.226 28.354-52.099 43.227-8.959-2-17.831-4.001-26.789-5.479 13.742-6.698 27.397-13.743 41.314-20.092 12.524-5.827 24.788-12.351 37.574-17.656zm-48.794 69.233c1.478-5.479 2.522-11.046 3.827-16.525.273-1.333.651-2.642 1.13-3.914l6.958 4.262c-4.087 5.305-8.088 10.698-11.915 16.177zm44.967-37.487c-3.218 11.307-5.567 22.614-7.828 34.095-9.916-6.871-20.614-12.872-30.877-19.309l.261-.348c1.131-1.391 2.696-2.609 4.001-3.914l9.045-8.871 33.748-33.312c-2.436 10.611-5.306 21.135-8.35 31.659z" fill-opacity=".04"/><path d="m803.314 756.78 9.393-5.132c1.044-.609.087-2.348-1.044-1.739l-9.393 5.218c-1.044.609-.087 2.262 1.044 1.653z" fill-opacity=".04"/><path d="m812.188 754.169-4.436 2.261c-1.131.609-.087 2.262.957 1.653l4.436-2.261c.117-.058.221-.14.305-.24.085-.1.148-.216.186-.341.037-.126.049-.257.034-.387s-.057-.256-.122-.369c-.066-.113-.154-.212-.259-.289-.105-.078-.225-.134-.353-.163-.127-.03-.259-.033-.388-.01-.129.024-.251.073-.36.146z" fill-opacity=".04"/><path d="m496.168 514.445c0-.123-.123-.246-.246-.492-3.187-3.168-6.646-6.051-10.337-8.615-.285-.15-.602-.229-.923-.229-.322 0-.639.079-.923.229l-1.231.739c-1.477-1.6-3.077-3.569-5.292-3.077-.619.187-1.202.478-1.723.862-3.569-5.169-5.045-10.584-6.891-16.491-1.772-5.269-4.717-10.067-8.615-14.03-2.831-3.076-6.646-8.122-10.953-8.614-1.379-.187-2.783.041-4.032.655s-2.287 1.585-2.983 2.79c-4.307-2.707-9.599-1.476-11.568 3.077-1.844-.809-3.922-.904-5.832-.268-1.91.637-3.516 1.96-4.506 3.714-7.63-7.507-14.029-16.491-22.521-22.767-6.03-4.431-15.383-.493-11.691 7.63 2.461 5.415 8.246 9.476 12.307 13.66s5.784 5.907 8.614 8.984l6.769 7.015c-3.569 10.091.123 19.936 10.338 24.367 5.291 2.215 10.829 3.076 16.367 4.061s8.861 4.307 12.43 7.876c-.255.427-.462.881-.615 1.354-.616 2.338 1.846 4.676 3.569 6.399l-.493.616c-.183.161-.33.36-.43.583-.101.223-.153.464-.153.709 0 .244.052.486.153.709.1.223.247.421.43.583 3.446 3.569 6.646 7.261 10.215 10.83.292.277.666.451 1.066.495s.803-.043 1.149-.249c3.692-1.723 6.646-5.538 9.476-8.492 2.831-2.953 6.646-7.014 10.215-10.46s12.183-9.353 8.86-14.153zm-40.858 8.369c-5.045-4.8-9.599-7.876-16.613-9.107-11.938-1.969-26.583-7.384-22.276-21.66l6.154 6.03c1.6 1.6 4.307-.984 2.584-2.584-7.999-7.999-15.752-16.122-23.628-24.121-3.446-3.569-8.861-7.384-11.323-11.691-2.461-4.307-1.846-5.415 1.846-5.661s2.954.492 4.677 1.969l3.938 3.815c6.399 6.399 12.184 13.291 18.829 19.321.232.226.519.387.832.467.314.08.643.077.955-.011.311-.087.595-.255.821-.486.227-.231.388-.518.469-.831.861-3.569 3.446-4.554 7.63-2.831.277.225.61.37.964.419.353.05.713.003 1.042-.136.328-.139.613-.365.823-.653.211-.288.339-.628.371-.983.861-3.939 3.569-4.431 7.999-1.723.223.227.501.392.808.48.306.088.629.095.939.02.31-.074.595-.227.828-.444s.406-.491.502-.795c2.092-8.122 11.199 2.462 13.168 4.677 3.174 3.257 5.609 7.161 7.138 11.445 2.338 6.645 3.691 12.676 7.876 18.46l-.492.492c-2.728 2.131-5.318 4.433-7.754 6.892-2.215 2.092-4.307 4.43-6.399 6.645zm.739 5.169c.123-.739 1.846-2.093 2.584-3.077 2.708-2.954 5.538-5.907 8.369-8.738 3.068-2.984 6.314-5.779 9.722-8.368 1.846-1.477 1.723-.862 2.954.615-2.831 2.707-5.292 6.153-7.877 8.615-4.553 4.553-9.23 8.737-13.66 13.414zm10.83 15.629-7.877-8.492c6.031-7.014 13.045-12.798 19.445-19.567l3.938-4.184 2.338-2.093c1.6.124 7.384 6.154 8.615 7.384 1.23 1.231-20.429 22.275-26.459 26.952z" fill-opacity=".04"/><path d="m464.786 532.044c-.123 0-.123.123-.246.246v.246c-.327.44-.561.942-.689 1.475s-.146 1.087-.054 1.627c.092.541.292 1.057.589 1.518s.684.857 1.138 1.164c.954.56 2.086.732 3.163.48s2.015-.908 2.621-1.833c.601-.943.844-2.069.686-3.175s-.707-2.119-1.547-2.856c-1.846-1.6-4.307-.492-5.661 1.108zm4.061 3.446c-.2.287-.495.494-.833.585-.338.09-.697.057-1.013-.093-.985-.492-.615-1.6-.123-2.338.492-.739 1.477-1.108 1.969-.246.184.318.28.678.28 1.046 0 .367-.096.728-.28 1.046z" fill-opacity=".04"/><path d="m410.145 455.743c1.723-15.629-19.075-19.69-28.551-10.707-9.476 8.984-5.784 31.382 10.953 29.659 1.723-.246 1.723-2.953 0-2.83-14.399 1.477-17.845-16.614-8.984-24.86 8.861-8.245 25.228-4.43 23.752 8.738-.123 1.723 2.584 1.723 2.83 0z" fill-opacity=".04"/><path d="m397.101 477.033c-7.015 2.83-15.752.123-20.921-5.292-7.63-8.123-4.8-22.398 2.215-29.905 3.265-3.543 7.635-5.874 12.397-6.612 4.761-.738 9.632.161 13.816 2.551 7.876 4.307 13.414 15.998 8.615 24.367-.985 1.476 1.477 2.953 2.338 1.353 5.292-8.983.615-21.044-7.507-26.828-4.561-3.189-10.077-4.721-15.629-4.34-5.553.38-10.808 2.65-14.891 6.432-8.246 7.876-11.815 22.275-5.292 32.366 5.169 7.877 16.86 12.061 25.597 8.615 1.6-.738.862-3.323-.738-2.707z" fill-opacity=".04"/><path d="m483.617 514.814c-.862-1.6-3.2-.123-2.339 1.353l2.339 3.939c.861 1.599 3.199.123 2.338-1.354z" fill-opacity=".04"/><path d="m487.677 514.198c-.18-.309-.476-.535-.822-.627s-.714-.044-1.024.135c-.167.075-.316.186-.434.326-.119.139-.205.303-.252.48s-.054.362-.021.542c.034.18.107.35.214.498.493 1.354 1.108 2.585 1.6 3.815.203.319.512.555.872.668.361.112.749.094 1.097-.052.297-.221.509-.538.599-.897.089-.359.052-.738-.106-1.073-.616-1.23-1.108-2.584-1.723-3.815z" fill-opacity=".04"/><path d="m330.52 764.315c-.246-5.884-.491-12.748-4.412-17.407-1.424-1.687-3.184-3.059-5.167-4.03-1.983-.97-4.146-1.518-6.351-1.608h-24.508c-10.538 0-21.322.245-31.615.735l-27.203 2.207h-.491c-4.411.49-9.558.98-12.253 4.658-2.696 3.677-3.186 10.542-2.696 15.936.49 5.393 1.715 16.18 2.696 22.8l2.205 12.503c2.79 13.168 4.592 26.526 5.392 39.963h-13.234c-4.166 0-6.372.735-7.352 2.696-.981 1.962-.981 11.768.735 15.446 3.431 8.09 12.499 9.071 20.096 9.071h16.42c15.868.276 31.739-.296 47.545-1.716.245 0 .735 0 .735-.245h3.431c7.598-.981 12.499-3.923 14.705-9.071 2.206-5.149 1.225-15.201 0-22.311v-2.206c-.735-4.413-1.471-8.826-2.451-13.239-2.696-15.446-5.882-31.626-4.656-47.317h11.763c5.247.125 10.495-.203 15.685-.981.325 0 .637-.129.867-.359.229-.23.359-.542.359-.867zm-5.882 2.697-4.902.49h-17.645c.245-2.696.49-4.658.735-6.864 1.961-10.788 5.882-16.181 11.764-16.181h2.205c6.372 1.471 9.803 6.619 10.539 16.181v1.716c.49 2.452.49 3.923-2.696 4.658zm-116.902 83.847c-.245-4.903 1.226-7.11 5.882-7.845l8.823-.491h11.763l40.683-.98c.252 6.132 2.204 12.074 5.637 17.161.887 1.375 2.057 2.545 3.431 3.433-9.313.735-19.606 1.225-32.595 1.225h-26.714c-4.208.258-8.395-.768-12.008-2.942-1.476-1.129-2.682-2.573-3.53-4.227s-1.317-3.476-1.372-5.334zm70.092-10.542c0-.736-.245-1.226-.735-1.226h-.735l-47.3.981c-.8-13.599-2.602-27.12-5.392-40.453v-.735c-1.225-7.355-2.696-15.201-3.676-22.556-.058-1.318-.221-2.63-.49-3.922-.98-6.375-2.206-14.22.245-19.123 2.451-4.904 11.028-6.62 17.645-6.865h3.677l23.282-1.471c8.332-.49 16.665-.49 25.243-.49h17.645c-4.656 3.922-6.372 10.787-7.352 17.897-1.264 9.936-1.182 19.997.245 29.91.98 7.355 2.206 14.71 3.186 21.82.49 2.452.98 4.903 1.225 7.355.246 2.452.736 4.168 1.226 6.374 1.218 6.144 1.955 12.374 2.205 18.633-.245 7.6-2.695 11.768-7.842 13.729-2.709 1.193-5.62 1.859-8.578 1.962-1.424.039-2.841-.212-4.166-.736-6.372-2.697-10.293-14.71-9.558-21.084z" fill-opacity=".04"/><path d="m283.222 763.333c-.059-.346-.239-.66-.509-.885-.269-.224-.611-.345-.962-.34-16.175 1.471-32.84 2.451-49.26 2.451-.39 0-.764.155-1.04.431s-.43.65-.43 1.04.154.765.43 1.04c.276.276.65.431 1.04.431 16.42 0 33.085-.98 49.26-2.451.412-.06.787-.266 1.058-.582.27-.316.417-.719.413-1.135z" fill-opacity=".04"/><path d="m282.236 782.213c.005-.351-.116-.693-.341-.962-.225-.27-.539-.451-.885-.509-15.424-.076-30.831 1.072-46.074 3.432-.163.029-.317.091-.455.181-.139.091-.257.208-.348.346-.092.137-.155.292-.185.454-.031.162-.028.329.008.49 0 .193.038.385.112.563.073.179.182.341.318.477.137.137.299.245.477.319.179.074.37.112.563.112h.245c14.994-2.382 30.158-3.53 45.339-3.432.346-.059.66-.239.885-.509s.346-.611.341-.962z" fill-opacity=".04"/><path d="m237.634 805.259h.245c7.304-1.078 14.674-1.652 22.057-1.716h2.696l6.127.49 7.352.49c2.583.012 5.149-.403 7.597-1.225.192-.022.375-.089.535-.195.161-.106.295-.248.39-.415s.15-.355.16-.547-.026-.384-.104-.56c0-.325-.129-.637-.359-.866-.23-.23-.542-.36-.867-.36h-.49c-2.407.6-4.873.929-7.352.981l-7.843-.49-7.352-.491h-.735c-7.301.075-14.589.648-21.812 1.717-.411.059-.787.266-1.058.581-.27.316-.417.719-.412 1.135-.037.18-.033.366.012.544.045.179.129.345.247.486.117.141.265.254.433.331.167.076.349.114.533.11z" fill-opacity=".04"/><path d="m284.194 819.723h-15.195c-10.293.245-20.831.49-31.124 1.716-.735 0-1.226.981-1.226 1.716 0 .325.13.637.359.867.23.23.542.359.867.359h.245c10.293-1.226 20.586-1.471 30.879-1.716h15.195c.412-.06.787-.266 1.058-.582.27-.316.417-.719.413-1.134-.059-.347-.239-.661-.509-.885-.27-.225-.611-.346-.962-.341z" fill-opacity=".04"/><path d="m881.771 362.701c-.221-7.057-.221-14.336-.221-22.276 1.914.085 3.782.606 5.464 1.523 1.681.917 3.13 2.207 4.237 3.771.121.182.285.331.477.434s.407.157.626.157c.218 0 .433-.054.625-.157s.356-.252.477-.434c.116-.202.177-.43.177-.662s-.061-.461-.177-.662c-1.346-1.94-3.12-3.546-5.184-4.693s-4.364-1.805-6.722-1.923v-5.735c0-.441 0-.662-.441-.882-.102-.137-.236-.248-.389-.325-.153-.076-.321-.116-.493-.116-.173 0-.345.034-.506.1-.16.067-.306.164-.429.287s-.22.269-.287.43c-.066.16-.1.332-.1.506v5.735h-.221c-2.375.062-4.738.358-7.055.882v-5.955c-.045-.335-.199-.646-.438-.885s-.55-.393-.885-.439c-.174 0-.346.035-.506.101-.161.067-.307.164-.429.287-.123.123-.221.269-.287.429-.067.161-.101.333-.101.507v6.837c-6.614 2.426-13.228 7.719-10.803 14.998 2.425 7.278 6.614 7.499 10.803 8.601v21.394c-2.483-.595-4.758-1.852-6.583-3.639s-3.131-4.035-3.779-6.506c-.12-.253-.306-.469-.539-.625-.233-.155-.504-.244-.784-.257-.23-.019-.46.034-.658.153-.197.119-.353.297-.444.508-.221.221-.441.662-.221.883 2.425 7.057 6.614 11.027 13.008 12.13v12.351c0 .171.04.34.117.493.076.154.187.287.324.389l.882.442c.351 0 .687-.14.935-.388s.388-.585.388-.936v-11.91h8.378c.22 3.97.22 7.94.441 11.69 0 .351.139.687.387.935.248.249.585.388.936.388.441 0 .882 0 1.102-.441.221-.441.221-.441.221-.882-.221-4.191-.441-8.381-.441-12.572 2.169-.422 4.227-1.285 6.048-2.537 1.821-1.253 3.364-2.866 4.534-4.741.586-1.157.909-2.429.947-3.725s-.21-2.585-.726-3.774c-2.205-6.396-7.055-8.161-11.685-9.264zm.441 21.174c-.221-6.617-.441-12.572-.441-18.527l3.748 1.544c1.301.584 2.464 1.436 3.414 2.5s1.665 2.316 2.098 3.676c.462 1.953.146 4.01-.882 5.734-1.934 2.608-4.759 4.413-7.937 5.073zm-5.512-22.056-5.071-.882v-19.63h.441c2.168-.524 4.385-.819 6.614-.882h.221c0 7.94 0 14.998.22 22.056zm-5.071 1.544 3.527.662 3.969.661c0 6.396.221 13.013.441 19.63h-8.158zm-2.646-21.173v18.085c-1.178-.334-2.294-.856-3.307-1.544-1.274-.669-2.388-1.607-3.264-2.75-.875-1.142-1.492-2.461-1.807-3.866-.124-1.13.01-2.272.392-3.342s1.002-2.039 1.813-2.834c1.732-1.721 3.848-3.006 6.173-3.749z" fill-opacity=".04"/><path d="m922.554 403.725c.221-8.822 0-17.865-.441-26.687 0-4.852-.22-9.484-.22-14.336s0-13.895 0-20.512c0-2.867.22-5.514.22-8.381s0-10.145-.22-14.557v-1.985c.008-2.702-.439-5.386-1.323-7.94-3.086-5.955-9.26-7.057-15.433-7.057h-19.622l-11.024.441h-29.323c-3.561-.137-7.105.541-10.363 1.985-2.236 1.316-4.099 3.182-5.411 5.421s-2.03 4.776-2.085 7.371c-.33 6.171-.33 12.355 0 18.527 0 3.308 0 6.396.221 9.704 0 9.925-.221 19.85-.441 29.555 0 5.072-.221 9.925-.221 14.997v21.615c.221 6.617.441 10.587 4.851 16.101 4.409 5.513 7.496 4.411 11.464 4.411h42.332c7.879.143 15.759-.225 23.59-1.103 4.851-.441 9.26-1.323 11.465-6.176 2.205-4.852 1.984-11.248 1.984-16.982zm-93.261-2.646c0-1.765.221-3.529.221-5.073 0-6.396 0-12.792.22-19.409.221-6.617.221-9.484.221-14.336s.22-16.542 0-26.026c-.221-1.544-.221-3.308-.441-5.073-.441-7.057-.882-14.997 2.646-20.511 3.527-5.514 8.819-5.294 13.669-5.294h28.662l11.465-.441h18.519c5.071 0 11.245.662 13.67 5.955.946 2.915 1.32 5.986 1.102 9.043v2.426c.221 3.309.221 6.837.221 10.807s-.221 6.397-.221 9.484c0 3.088-.22 8.602-.22 13.013s.22 13.895.441 20.512c.22 6.617.441 9.263.441 14.115 0 4.853 0 11.469-.221 17.204v3.529c0 7.94-.22 16.983-9.039 18.306-6.88.779-13.801 1.147-20.725 1.103h-27.78l-20.284-.441c-6.173-.221-9.921-3.529-11.685-10.146-1.082-6.187-1.378-12.486-.882-18.747z" fill-opacity=".04"/><path d="m838.339 358.953c-.221 16.321-.441 32.863.882 49.184 0 .174.034.346.1.506.067.161.164.307.287.43s.269.22.429.287c.161.066.333.1.507.1h6.614c12.346.662 25.134 1.103 37.481 1.103 9.48 0 17.858-.22 25.575-.882.173 0 .345-.034.506-.101.16-.066.306-.164.429-.287s.22-.268.287-.429c.066-.161.101-.333.101-.506 0-5.735-.221-11.91-.221-17.645 0-5.734-.441-15.218-.441-22.938v-7.058c.221-10.145.221-20.952 0-31.319v-1.543c.221-2.206.441-5.073-.661-6.176-1.103-1.103-1.544-.662-2.425-.662h-1.544c-9.48-.441-18.74-.441-28.441-.441h-4.189c-11.024 0-22.709.221-34.174.882h-.441c-.252.052-.479.191-.64.392-.161.202-.247.453-.242.711.441 12.351.221 24.482.221 36.392zm69.67-35.51c.177.418.253.871.22 1.324v.882c0 3.088.001 6.176.221 9.263v1.324c0 7.278 0 14.336-.221 21.614 0 13.454 0 27.129.441 40.803v.882c0 1.765.221 3.75.221 5.735v.882c0 .662 0 .662-.882 1.323h-4.189l-18.961.441h-4.189l-21.166-.441-10.582-.441h-5.071c-1.985-.441-2.205-.441-2.205-2.867-.661-13.674-.441-27.349-.441-40.803s0-26.246-.441-39.259c8.819-.662 18.3-.882 30.646-.882h36.599z" fill-opacity=".04"/><path d="m875.597 414.312h-3.087c-3.528 0-7.496.442-9.04 4.191-.443.812-.676 1.722-.676 2.647s.233 1.835.676 2.647c1.985 2.646 6.835 3.087 9.04 3.087h4.63c4.189 0 8.378-.661 9.48-5.734.153-.722.154-1.467.002-2.189-.152-.721-.453-1.403-.883-2.002-1.985-2.426-6.835-2.426-10.142-2.647zm-6.835 9.705c-.723-.22-1.363-.654-1.835-1.244-.472-.591-.755-1.31-.811-2.064.043-.784.317-1.538.788-2.166s1.117-1.103 1.858-1.363h9.701c2.205 0 5.071 1.103 5.512 3.308.186.348.265.744.226 1.137-.039.392-.195.765-.447 1.069-.882 1.323-3.307 1.764-7.275 1.764h-7.717z" fill-opacity=".04"/><path d="m864.132 314.842h9.481l11.905.441c.316.004.623-.104.866-.307.242-.202.405-.484.457-.796.004-.374-.128-.736-.371-1.02s-.582-.47-.952-.524l-11.905-.441-9.481.441c-.173 0-.345.035-.506.101-.16.067-.306.164-.429.287s-.22.269-.287.429c-.066.161-.1.333-.1.507.22.441.441.882 1.322.882z" fill-opacity=".04"/><path d="m889.929 315.061.882-.441c.176-.259.254-.572.221-.883.004-.315-.105-.623-.307-.865-.202-.243-.484-.405-.796-.458-.441 0-.882 0-1.102.441-.221.441-.221.441-.221.882 0 .174.035.346.101.507.067.16.164.306.287.429s.269.221.429.287c.161.067.333.101.506.101z" fill-opacity=".04"/><path d="m851.786 327.191h-3.086c-1.764 0-3.969.221-4.63 2.206-.66 3.201-.66 6.503 0 9.705.174.871.248 1.758.22 2.646.054.37.24.709.523.952.284.243.647.375 1.021.372.441 0 .661-.001.882-.442.22-.441.44-.441.22-.882v-1.764c-.329-2.12-.55-4.254-.661-6.396v-.662c0-1.323 0-2.426.881-2.867h4.63c.312-.126.581-.338.777-.611.195-.274.308-.598.326-.933 0-.882-.221-1.324-1.103-1.324z" fill-opacity=".04"/><path d="m856.635 327.855c0-.174-.034-.346-.101-.507-.066-.16-.164-.306-.287-.429-.122-.123-.268-.22-.429-.287-.16-.066-.332-.101-.506-.101-.171 0-.34.04-.493.117-.153.076-.286.187-.389.324-.228.247-.381.553-.441.883 0 .173.035.345.101.506s.164.306.287.429.268.221.429.287c.16.067.332.101.506.101h.882c.22-.662.441-.882.441-1.323z" fill-opacity=".04"/><path d="m1079.41 672.006h-1.37c-4.11-.491-8.25-.721-12.39-.689h-45.87c-.92 0-1.61-.229-1.84-.688s-.46-3.442-.23-5.277c.23-1.836.23-1.377.23-1.836-.23-22.716-.68-43.366-1.37-62.87v-.459c-.13-.263-.32-.488-.56-.649-.25-.162-.53-.255-.82-.268-17.431.917-31.193 7.801-43.579 21.797l-1.147 1.377c-4.358 5.048-8.716 10.096-11.009 16.062-2.104 5.252-3.642 10.713-4.588 16.291-4.817 27.534 8.028 54.151 33.259 69.524 9.725 5.768 20.804 8.856 32.114 8.949h5.04c16.75-1.377 32.11-7.113 42.21-15.374 10.09-8.26 16.05-23.633 18.12-34.647l.46-1.606c.68-2.754 1.83-6.884.45-8.49-1.37-1.606-4.58-1.147-7.11-1.147zm4.36 6.195c-1.24 9.648-4.44 18.94-9.4 27.305-6.19 10.784-17.89 18.356-34.41 22.716-6.56 1.903-13.35 2.907-20.18 2.982-3.72.023-7.42-.44-11.01-1.376-9.996-2.366-19.377-6.824-27.525-13.079-18.35-13.997-27.295-36.712-23.855-60.805.918-4.818 2.523-9.637 3.9-14.455 2.504-5.955 6.08-11.399 10.55-16.062l.459-.459c4.963-6.142 10.843-11.482 17.432-15.832 7.428-3.963 15.669-6.162 24.079-6.425.92 22.257 1.38 45.202 1.38 70.442 0 .365.15.715.4.974.26.258.61.403.98.403h51.83l10.78.459h4.59c.46.688.23 1.606 0 3.212z" fill-opacity=".04"/><path d="m1081.71 633.917c-3.03-7.026-7.57-13.294-13.3-18.356-12.62-12.161-28.9-15.603-40.6-16.291-.46 0-.69.229-.92.688-.08.093-.15.202-.19.32-.04.119-.05.244-.04.368 0 9.867.23 19.733.23 29.6 0 9.866.23 19.732.23 29.828 0 .365.14.716.4.974s.61.403.98.403h40.13c6.06-.176 12.12.131 18.12.918l.92-.459.46-.918c-.85-9.284-3.01-18.4-6.42-27.075zm-49.77-31.435-2.53 2.753v-2.983zm-2.07 6.654c1.59-2.273 3.44-4.352 5.51-6.195l5.73 1.147-11.7 12.849v-7.572zm19.5-2.295c-6.88 6.884-13.53 13.997-19.73 21.569v-7.343l14.68-16.291zm14.91 8.949c-1.89 2.234-3.96 4.306-6.2 6.195l-3.44 2.983c-2.98 2.754-5.96 5.966-9.4 9.637l-2.52 2.754c-1.72 2.022-3.56 3.938-5.51 5.736-1.13 1.326-2.44 2.485-3.9 3.442l-3.44 3.212v-6.195l8.72-9.178c2.29-2.754 4.58-5.507 7.11-8.031l5.04-4.589c3.33-2.872 6.33-6.104 8.95-9.637l4.82 3.671zm-16.52 4.589-5.5 5.507c-2.03 2.032-3.95 4.177-5.74 6.425l-6.88 7.342v-7.113h.23c6.88-8.26 14.45-16.52 22.25-24.322l5.05 2.524c-2.67 3.639-5.84 6.883-9.41 9.637zm-15.14 38.548h-1.83c-.49-.506-.84-1.137-1-1.823-.16-.687-.13-1.405.08-2.078v-1.147c1.72-1.8 3.56-3.487 5.51-5.048l3.9-3.442 5.96-6.424 3.44-3.672c2.29-2.523 4.82-4.818 7.34-7.113 3.72-3.148 7.17-6.602 10.32-10.325 1.34 1.107 2.57 2.336 3.67 3.671l.46.459c-12.39 13.079-25.23 25.469-37.85 36.942zm27.3-14.226c-4.61 4.954-9.51 9.628-14.68 13.997h-8.26c11.93-10.555 23.86-22.257 35.32-34.418l3.9 5.507c-5.79 4.553-11.24 9.539-16.28 14.914zm1.83 2.065c4.89-5.301 10.18-10.211 15.83-14.685.69 1.606 1.61 3.442 2.29 5.278-7.11 7.571-14.45 14.684-21.79 21.568h-8.71c4.35-3.814 8.49-7.875 12.38-12.161zm19.04-6.425 1.38 4.131c.07.629.22 1.246.46 1.835v.689l-1.38 1.606c-3.44 3.441-6.88 7.342-10.55 10.325h-8.72c6.43-5.966 12.85-12.161 18.81-18.586zm4.36 18.586c-1.04.599-2.25.841-3.44.688h-6.88c3.21-2.982 6.19-6.195 8.94-9.178 1.84 5.966 1.84 7.802 1.38 8.49z" fill-opacity=".04"/><path d="m977.114 633.458h-.917c-7.284 7.505-11.392 17.533-11.468 27.993 0 .459 0 .689.229.918s.688.459 1.147.459c.365 0 .715-.145.973-.403s.403-.609.403-.974c.229-7.342 2.294-18.126 10.78-25.928.14-.197.233-.424.272-.662.04-.238.025-.483-.042-.715-.104-.265-.302-.482-.556-.609s-.547-.155-.821-.079z" fill-opacity=".04"/><path d="m981.245 629.328-1.147.459c-.182.269-.263.594-.229.918 0 .365.145.715.403.973s.608.404.973.404l.918-.459c.229-.23.229-.459.229-.918.005-.329-.108-.648-.319-.901-.21-.252-.504-.421-.828-.476z" fill-opacity=".04"/><path d="m440.162 683.53c-1.551-2.099-3.924-3.651-6.023-5.293-2.099-1.643-5.567-4.746-8.305-7.119 3.65-2.555 2.738-10.038 2.647-13.78-.092-8.031-.365-16.062-.548-24.093-.091-2.282-.091-5.019-2.19-6.48-2.099-1.46-7.119-1.003-9.948-1.277-7.757-.639-15.697.365-23.545 0l-26.557.182c-2.373 0-4.654-.182-6.206 1.825-1.551 2.008-1.551 6.663-1.46 9.765.456 9.857-.548 19.622.091 29.478.024.888.261 1.757.689 2.535.429.778 1.038 1.442 1.775 1.937-3.65 2.555-7.392 5.019-10.951 7.848s-5.567 4.016-5.476 7.575c.092 3.559 1.46 4.745 4.472 5.11 6.066.594 12.171.685 18.252.274 13.963-.456 27.835-.091 41.707-.456 6.023-.183 12.046 0 18.069.091 3.651 0 10.313 1.278 13.142-1.734.779-.864 1.24-1.968 1.306-3.13.066-1.161-.266-2.311-.941-3.258zm-79.488-24.367c-.183-4.198-.274-8.396-.183-12.503.091-4.106.274-7.666.183-11.499 0-2.464 0-5.749 2.92-6.753s4.107 0 5.841 0l22.815-.182c4.837.182 9.765.365 14.693.091s16.792-1.552 18.161 2.92c.456 1.643.091 3.833.091 5.476-.091 3.742.091 7.392.183 11.042.091 3.651.274 5.841.365 8.853v5.475c-.091 2.647.365 4.746-2.008 6.206s-7.392.639-10.495.639h-10.221c-6.662.183-13.324.548-19.986.548-3.286.091-6.48-.092-9.674.091-3.194.182-7.94 1.278-10.678-.183-2.738-1.46-1.916-7.483-2.007-10.221zm76.02 29.569c-2.19.912-7.027.182-9.4.182-11.864-.091-23.819-.456-35.683-.274-11.864.183-24.823.913-37.234.639-2.464-.091-7.301.457-7.484-2.646-.182-3.103 1.825-3.194 3.194-4.381 4.107-3.65 8.853-6.479 13.233-9.674l.365-.273c2.212.258 4.444.289 6.662.091 8.67-.456 17.431-.365 26.101-.639l12.868-.182c4.289.091 9.035.638 13.324.365h.091c4.472 3.559 9.035 7.301 13.233 11.134 1.643 1.551 4.381 3.924.73 5.658z" fill-opacity=".04"/><path d="m366.423 665.916c8.852-.183 17.795-.183 26.739-.548s18.161-.821 27.196-.274c.259-.02.503-.133.687-.317.183-.184.296-.427.317-.686-.274-10.222-.274-20.26-.73-30.482 0-.266-.106-.521-.294-.71-.189-.188-.444-.294-.71-.294-17.887.183-35.775-.182-53.753 0l-.548.183c-.137.089-.25.211-.33.354-.079.143-.123.304-.126.467.183 10.404.365 20.808.456 31.212 0 .29.116.569.321.774.206.205.484.321.775.321zm52.201-31.212c.365 9.4.456 18.8.639 28.291-8.579-.456-17.522-.091-26.101.274-8.578.365-17.157.365-25.736.548-.182-9.765-.365-19.439-.456-29.204 17.248-.182 34.406.274 51.654.091z" fill-opacity=".04"/><path d="m402.473 679.423c-.061-.217-.194-.406-.376-.539-.182-.132-.403-.199-.628-.191-5.658-.456-11.225.091-16.883.183-.222.005-.437.078-.616.209-.179.13-.315.312-.388.521-.726 1.735-1.276 3.539-1.643 5.384-.091.183 0 .456 0 .639.077.199.216.369.397.484s.393.169.607.155c6.753 0 13.963.547 20.625-.548.131-.02.256-.068.367-.141.11-.073.203-.17.273-.283.069-.113.114-.239.129-.371.016-.132.002-.265-.039-.391-.639-1.734-1.186-3.468-1.825-5.111zm-18.252 4.837c.273-.821.547-1.734.73-2.555l.273-.822h.092l8.122-.274c2.431-.197 4.875-.167 7.301.092.16.287.283.594.365.912.192.788.467 1.553.821 2.282-5.749.73-11.864.365-17.704.365z" fill-opacity=".04"/><path d="m392.34 631.42c.266 0 .521-.106.71-.294.188-.188.294-.444.294-.71s-.106-.522-.294-.71c-.189-.188-.444-.294-.71-.294s-.522.106-.71.294-.294.444-.294.71.106.522.294.71.444.294.71.294z" fill-opacity=".04"/><path d="m368.615 638.174c.73 1.186 1.643 2.464 2.464 3.559.151.236.386.405.657.473.272.068.559.029.803-.108.213-.148.367-.367.434-.618.067-.25.042-.517-.069-.751l-2.555-3.559c-.639-1.187-2.464-.091-1.734 1.004z" fill-opacity=".04"/><path d="m375.186 641.549c.913.913 2.373-.547 1.46-1.46l-3.194-3.377c-.912-1.003-2.373.457-1.46 1.461z" fill-opacity=".04"/><path d="m277.785 311.408c-8.59-11.526-23.812-11.308-35.121-4.023-5.943 4.095-11.286 8.999-15.875 14.57-4.023 4.676-8.698 10.33-10.873 16.201l-.326.979c-6.258 2.731-11.856 6.772-16.419 11.852-5.219 5.545-10.873 11.852-14.461 18.702-5.219 10.112-3.262 22.29 5.98 29.575s25.226-.652 33.707-7.72c6.109-5.277 11.484-11.348 15.984-18.05 2.097-2.866 3.917-5.924 5.437-9.133 12.395-2.066 21.202-11.526 27.726-21.747s11.744-21.094 4.241-31.206zm-44.254 24.465c.892-1.402 1.873-2.746 2.936-4.023 5.11-6.524 10.655-14.244 19.028-16.528 5.98-1.522 11.634 1.849 11.199 8.373-.217 3.588-2.066 7.067-4.132 9.894-4.131 5.437-8.698 11.091-14.678 14.571-1.631-7.068-6.742-12.94-14.353-12.287zm-4.784 27.944-4.785 6.089c-3.914 5.111-7.828 11.091-13.7 14.135-3.045 1.631-9.134 3.371-11.743.218-2.61-3.153.435-11.308 2.936-14.897 4.59-6.221 10.088-11.719 16.31-16.309 2.501 4.605 6.327 8.355 10.982 10.764zm-19.79 34.468c-7.829 2.936-15.331 2.066-20.442-5.001-5.11-7.068-5.654-11.852-3.37-18.376 2.283-6.524 8.046-13.483 13.048-19.246 4.594-5.714 10.384-10.353 16.962-13.591-.047.178-.083.36-.109.543l-2.066.87c-.254.176-.437.437-.516.736-.08.298-.051.616.081.895.18.281.46.483.784.564.323.081.665.035.956-.129l.87-.326-1.522.978c-.274.173-.468.448-.54.764-.071.316-.014.648.159.922s.448.468.764.539.648.014.921-.159l.762-.435v.218l-.87.652c-.263.195-.45.475-.529.792-.079.318-.046.652.094.948.159.273.42.473.726.554.305.082.631.039.905-.119l.543-.435c0 .109 0 .217.109.217h-.109c-8.263 6.416-20.659 16.202-21.637 27.619-.327 3.697.761 8.372 4.675 9.459 3.915 1.088 8.481.109 11.961-1.739 8.59-4.567 13.809-14.462 19.898-21.638 3.806-4.567 9.46-16.854-1.305-17.397v-.218h.109c.269-.08.505-.245.673-.471.168-.225.259-.498.259-.779s-.091-.555-.259-.78-.404-.391-.673-.471h-.435v-.217l1.631.217c.327-.027.631-.177.853-.418.222-.242.344-.559.343-.887-.025-.308-.159-.599-.378-.818s-.509-.353-.818-.378h-1.087l.217-.543h.979c.161.017.324-.002.477-.056s.292-.142.406-.257c.115-.114.203-.253.257-.406s.073-.316.056-.477c-.025-.309-.159-.599-.378-.818-.219-.22-.509-.354-.818-.378l.326-.435c7.067-1.74 11.852 3.153 13.591 9.677 1.74 6.524-.435 12.939-3.697 18.484-7.393 12.94-18.702 26.314-32.837 31.75zm38.057-36.643c-.005-.058.002-.118.02-.174.019-.056.049-.108.088-.152l.544-.217 1.957-.979c.289-.158.502-.425.594-.741s.054-.656-.104-.944c-.159-.289-.426-.502-.742-.594s-.655-.054-.944.105l-.435.217c0-.217.109-.435.109-.652l2.392-.979c.263-.195.449-.475.529-.792.079-.317.046-.652-.094-.948-.207-.247-.486-.422-.799-.501-.313-.078-.642-.055-.941.066l-.652.327v-.544l1.413-.544c.161-.037.312-.107.444-.205.131-.099.242-.223.323-.366.082-.143.133-.301.151-.465.018-.163.001-.329-.048-.486-.037-.16-.107-.311-.205-.443-.099-.132-.223-.242-.366-.324s-.301-.133-.465-.151c-.163-.017-.329-.001-.486.048l-.87.326v-.761c5.219-2.936 8.59-6.85 12.396-11.417 3.805-4.567 5.98-6.959 7.502-11.417 2.827-8.481-2.501-16.962-11.96-15.222-11.2 1.957-19.246 13.483-25.335 22.181-4.349 6.198-6.415 15.658 3.153 17.832v.435c-.524-.178-1.078-.252-1.631-.217-.317 0-.621.126-.846.35-.224.224-.35.529-.35.846-.017.161.002.324.056.477s.142.292.257.407c.114.114.253.202.406.256s.316.073.477.056l1.088.217c-.022.232-.097.455-.218.653l-1.413-.435c-.318-.087-.656-.044-.942.12-.285.163-.494.433-.581.75-.086.317-.043.656.12.941.163.286.433.495.75.581l.979.217c-.121.267-.267.522-.435.762l-1.522-.544c-.318-.087-.656-.044-.942.12-.285.163-.494.433-.581.75-.086.317-.043.656.12.941.163.286.433.495.75.581l.87.326-.435.544c-2.854-1.38-5.378-3.356-7.404-5.794-2.026-2.439-3.505-5.283-4.339-8.341-1.74-5.981.217-10.112 3.479-15.114 7.503-11.526 19.681-25.879 34.142-27.945 8.373-1.087 17.506 3.045 21.421 10.765 3.914 7.72.761 14.135-2.501 20.116-6.089 11.09-15.005 23.377-27.944 26.095z" fill-opacity=".04"/><path d="m251.472 306.842c-4.112 1.728-7.956 4.035-11.417 6.85-1.196 1.088.544 2.827 1.74 1.74 3.305-2.697 7.01-4.861 10.982-6.415 1.414-.653.109-2.719-1.305-2.175z" fill-opacity=".04"/><path d="m256.472 305.754c-.269.08-.505.245-.673.471-.168.225-.259.498-.259.779s.091.555.259.78.404.39.673.471c.269-.081.506-.246.674-.471.167-.225.258-.499.258-.78s-.091-.554-.258-.779c-.168-.226-.405-.391-.674-.471z" fill-opacity=".04"/><path d="m209.717 393.72c-3.958 1.883-8.381 2.563-12.722 1.957-1.522-.218-2.174 2.174-.652 2.392 4.976.721 10.053-.075 14.57-2.284 1.414-.652.218-2.718-1.196-2.065z" fill-opacity=".04"/><path d="m214.285 391.436c-.27.08-.506.245-.674.47s-.258.499-.258.78.09.554.258.78c.168.225.404.39.674.47.269-.08.505-.245.673-.47.168-.226.259-.499.259-.78s-.091-.555-.259-.78-.404-.39-.673-.47z" fill-opacity=".04"/><path d="m761.479 834.749c-5.7-10.9-18.3-17.9-30.7-14.7-10.2 2.1-19.3 10.4-20.7 21-.668 5.33.258 10.739 2.661 15.544 2.402 4.805 6.174 8.792 10.839 11.456 2.92 1.612 6.103 2.695 9.4 3.2.13 3.516.464 7.022 1 10.5-2.9 2.4-2.8 8.1-3.1 11.5-.7 7.5 0 15 .2 22.6.2 3.4-.1 8.8 3.1 11.1s8.8 1.9 11.4.3 3.9-7.9 3.9-11.7c.049-7.75-.351-15.497-1.2-23.2-.4-3.8-.3-8.8-4-11.1-.3-3.4-.1-6.8-.4-10.1 4.452-.857 8.656-2.703 12.3-5.4 10.2-7.8 11-20.2 5.3-31zm-16 59.5c.6 7.6 1.4 15.6 1 23.2-.2 2.9-.3 5.2-2.9 6.8-1.766.986-3.85 1.237-5.8.7h-.2l.9-.4c.6-.3 1-.8.8-1.4-.034-.148-.099-.286-.189-.408-.091-.121-.205-.222-.336-.298-.132-.075-.277-.122-.428-.138-.15-.016-.303-.001-.447.044l-2.5 1.1c-.292-.399-.527-.837-.7-1.3l4.5-3.2c1.2-.7.1-2.7-1.1-1.9-1.361.808-2.665 1.71-3.9 2.7v-1.7l4.5-3.2c1.2-.8 0-2.7-1.1-1.9l-3.5 2.4c0-.5-.1-1.1-.1-1.6 1.396-1.284 2.866-2.486 4.4-3.6 1.2-.8.1-2.7-1.1-1.9-1.198.778-2.335 1.647-3.4 2.6 0-.9-.1-1.8-.1-2.6 1.419-1.147 2.923-2.183 4.5-3.1 1.2-.7.1-2.7-1.1-1.9l-3.5 2.3v-1.5l4.3-3c1.2-.8.1-2.7-1.1-1.9l-3.3 2.2v-1.4l.3-.2c1.465-1.585 3.11-2.995 4.9-4.2 1.2-.8.1-2.7-1.1-1.9-1.44.888-2.781 1.927-4 3.1-.016-.602.017-1.204.1-1.8 1.626-1.339 3.405-2.481 5.3-3.4 1.3-.6.2-2.6-1.1-2-1.389.703-2.726 1.505-4 2.4 0-.5.1-1.1.1-1.7 1.377-.897 2.814-1.699 4.3-2.4 1.3-.6.1-2.6-1.2-2l-2.5 1.4c.214-1.065.769-2.032 1.581-2.754.811-.721 1.836-1.159 2.919-1.246 5.9-.8 6 7 6.3 11zm-4.3-14c-1.465-.234-2.962-.166-4.4.2-.4-2.9-.6-5.9-.8-8.8 1.634.067 3.27.034 4.9-.1.2 2.9.1 5.8.3 8.7zm-.9-11.6c-12.4.9-24.2-6.6-26.9-19.1s5.8-24.1 18.2-26.6 25.1 5.7 29.2 17.7c5 14.6-5.9 26.8-20.5 28z" fill-opacity=".04"/><path d="m736.179 824.748c-11.2.8-22.6 11-20.7 22.9s13.6 18.7 24.5 18.4 20.2-8.4 18.5-20.8-10.8-20.8-22.3-20.5zm17.9 33c-3.2 4.5-8.9 6-14.1 6.1-9.3.2-19.6-5.5-22-15s7.8-21.1 18.2-21.8 17 6.7 19.5 15.6c1.3 4.8 1.3 10.9-1.6 15.1z" fill-opacity=".04"/><path d="m728.077 832.348c-2.484 1.288-4.603 3.182-6.159 5.507s-2.499 5.006-2.741 7.793c0 1.7.3 4.2 2.3 4.7.714.118 1.446-.045 2.043-.455s1.011-1.035 1.157-1.745c.4-1.2.3-2.6.6-3.9.552-1.764 1.511-3.374 2.8-4.7 1.5-1.7 4-2.6 5.3-4.3.353-.525.525-1.151.488-1.783-.036-.632-.278-1.235-.688-1.717-1.3-1.3-3.7-.1-5.1.6zm.7 3.4c-1.807 1.442-3.333 3.205-4.5 5.2-.612 1.138-1.083 2.348-1.4 3.6-.018.44-.085.876-.2 1.3-.3 1-1.2 2.9-1.2-.2.152-1.926.702-3.801 1.614-5.504.912-1.704 2.167-3.201 3.686-4.396.6-.4 4.4-2.9 4.3-1.6s-2 1.4-2.3 1.6z" fill-opacity=".04"/><path d="m737.08 829.449h-.3c-.428.219-.801.531-1.092.913-.29.383-.491.826-.587 1.297-.096.47-.085.957.032 1.422.118.466.339.899.647 1.268.328.372.738.663 1.198.849s.957.263 1.451.224c.495-.038.974-.192 1.399-.447.425-.256.785-.607 1.052-1.026.302-.537.452-1.147.435-1.764-.018-.616-.203-1.216-.535-1.736-.39-.588-.981-1.014-1.662-1.198s-1.406-.114-2.038.198zm1.7 3.6c-.3.2-.6.4-.9.2-.177-.061-.33-.176-.438-.328-.108-.153-.167-.335-.167-.522s.059-.369.167-.521c.108-.153.261-.267.438-.329.4-.2.7-.2.9.1.202.294.307.644.3 1z" fill-opacity=".04"/><path d="m485.507 357.525h-.633c-3.641.159-8.074.476-11.399 3.01-3.338 2.976-5.57 6.995-6.333 11.403-.312 1.795-.218 3.637.275 5.391s1.373 3.376 2.575 4.745c1.418 1.722 3.176 3.132 5.165 4.14 1.989 1.009 4.166 1.594 6.392 1.72h.634c4.11.04 8.094-1.415 11.211-4.096s5.153-6.404 5.729-10.475c.286-1.893.151-3.826-.396-5.66-.548-1.834-1.494-3.525-2.771-4.951-1.252-1.584-2.837-2.873-4.643-3.776-1.805-.904-3.788-1.399-5.806-1.451zm-3.324 28.508h-.634c-2.064-.073-4.084-.626-5.897-1.616-1.814-.989-3.372-2.388-4.552-4.085-1.074-1.493-1.765-3.227-2.014-5.049-.248-1.823-.046-3.678.589-5.404.792-2.376 2.533-6.494 5.858-8.394 3.325-1.901 6.016-1.901 9.183-2.059h.791c1.816.003 3.603.453 5.204 1.309s2.967 2.092 3.979 3.601c1.183 1.559 1.973 3.381 2.304 5.311.33 1.929.192 3.91-.404 5.775-.904 3.106-2.804 5.828-5.408 7.746s-5.766 2.925-8.999 2.865z" fill-opacity=".04"/><path d="m484.24 363.701h-.158c-6.016.317-9.658 3.326-10.608 8.553-.125 1.105-.021 2.224.306 3.286.327 1.063.87 2.047 1.594 2.89.901 1.009 1.996 1.824 3.221 2.395 1.225.572 2.553.889 3.904.931 2.434.03 4.797-.818 6.658-2.388 1.861-1.571 3.094-3.759 3.474-6.164.194-1.156.124-2.34-.205-3.465-.329-1.124-.909-2.16-1.695-3.028-.793-.95-1.787-1.712-2.909-2.232s-2.345-.786-3.582-.778zm0 1.901c1.024-.007 2.034.234 2.944.703.909.469 1.692 1.152 2.281 1.989.612.831 1.018 1.796 1.183 2.815s.085 2.063-.233 3.045c-.499 1.684-1.553 3.149-2.99 4.155-1.438 1.007-3.175 1.497-4.926 1.388-1.129.001-2.243-.256-3.258-.75-1.015-.493-1.904-1.212-2.6-2.1-.597-.715-.998-1.572-1.164-2.488-.167-.916-.093-1.86.214-2.739 1.108-3.959 3.8-5.86 8.391-6.018z" fill-opacity=".04"/><path d="m526.671 338.519h1.266c2.898.01 5.708-1 7.936-2.853 2.229-1.853 3.735-4.431 4.255-7.283.358-1.462.358-2.988-.001-4.449-.358-1.462-1.064-2.815-2.057-3.945-.925-1.276-2.139-2.314-3.543-3.029-1.403-.716-2.956-1.089-4.531-1.089h-.317c-7.599.317-12.032 3.96-13.141 10.611-.239 1.305-.193 2.646.135 3.931.328 1.284.93 2.483 1.765 3.513 2.029 2.56 4.99 4.211 8.233 4.593zm-7.916-13.145c1.583-4.91 5.066-7.286 10.924-7.602h.317c1.348-.01 2.678.318 3.867.954 1.189.637 2.2 1.561 2.94 2.688.818 1.224 1.319 2.632 1.457 4.097.138 1.466-.09 2.942-.665 4.297-.753 1.966-2.073 3.663-3.793 4.875-1.72 1.213-3.761 1.887-5.865 1.936-.804.05-1.611-.057-2.374-.317-1.273-.235-2.476-.757-3.518-1.525-1.043-.768-1.897-1.763-2.498-2.91-.587-.963-.961-2.041-1.098-3.161-.136-1.12-.032-2.256.306-3.332z" fill-opacity=".04"/><path d="m527.937 334.086c1.861.014 3.663-.655 5.063-1.881 1.401-1.226 2.303-2.924 2.536-4.771.148-.848.096-1.72-.152-2.544-.247-.825-.683-1.581-1.273-2.208-.582-.745-1.327-1.347-2.177-1.759-.851-.412-1.785-.622-2.731-.616-4.591.158-7.441 2.375-8.074 6.493-.139 1.707.37 3.403 1.425 4.752 1.416 1.486 3.335 2.39 5.383 2.534zm1.266-11.879c.718-.014 1.428.152 2.064.484.636.333 1.179.82 1.578 1.417.409.564.679 1.216.789 1.904s.057 1.392-.156 2.055c-.326 1.198-1.056 2.246-2.065 2.968-1.01.721-2.238 1.072-3.476.992-.798-.006-1.584-.195-2.297-.552-.714-.357-1.336-.872-1.82-1.507-.382-.516-.638-1.114-.748-1.746-.11-.633-.07-1.282.115-1.897.792-2.692 2.692-3.959 6.016-4.118z" fill-opacity=".04"/><path d="m502.446 330.601c.2-.01.395-.074.562-.185.168-.112.302-.267.388-.449 1.738-4.521 4.632-8.507 8.39-11.561.099-.074.179-.17.234-.28.054-.11.083-.231.083-.354-.066-.309-.233-.588-.475-.792-3.008-2.217-6.174-4.276-9.341-6.176l-4.116-2.534h-.475l-.792.316c-.128.243-.183.518-.158.792l1.108 5.227c-10.298 1.603-19.561 7.174-25.806 15.521-2.545 3.44-4.362 7.363-5.342 11.529s-1.102 8.488-.357 12.702c0 .476.316.634.791.634h.159c.02 0 .041-.004.06-.012s.037-.02.052-.034c.014-.015.026-.033.034-.052s.012-.04.012-.06c5.309-1.405 10.703-2.463 16.149-3.168.165.014.33-.025.472-.11s.253-.213.319-.365c.158-.159.317-.475.159-.634-3.325-10.928 3.482-23.281 15.198-27.082.467 2.193 1.048 4.361 1.742 6.493.086.182.219.337.387.449.167.111.362.175.563.185zm-19.949 19.322c-4.86.629-9.673 1.582-14.407 2.851-.574-3.936-.336-7.948.699-11.789 1.035-3.84 2.844-7.428 5.317-10.543 3.002-3.895 6.743-7.159 11.008-9.605 4.266-2.446 8.972-4.025 13.849-4.649l.791-.316c.128-.244.183-.519.158-.792l-.791-4.118 1.9 1.267 8.549 5.543c-2.892 2.584-5.258 5.704-6.966 9.186-.551-1.601-.974-3.242-1.267-4.91-.068-.194-.198-.361-.369-.475s-.375-.17-.581-.158h-.316c-12.666 3.484-20.74 16.471-17.574 28.508z" fill-opacity=".04"/><path d="m544.717 340.895c0-.123-.029-.244-.083-.354-.055-.11-.135-.206-.234-.279h-1.424c-4.537 1.633-9.195 2.904-13.933 3.801l-.475.316c-.158.317-.316.634-.158.792 2.533 12.037-5.699 23.44-15.04 28.192-.633-2.218-1.425-4.277-2.217-6.335-.065-.153-.177-.28-.319-.365-.142-.086-.307-.124-.472-.111-.227-.003-.447.075-.622.221-.174.145-.29.348-.328.571-1.511 4.574-4.121 8.707-7.6 12.037-.316.158-.316.317-.316.633-.014.166.025.331.11.473s.213.254.365.319c4.464 2.945 9.118 5.59 13.932 7.919h.475l.791-.317c.159-.316.317-.633.159-.791l-1.425-5.227c10.153-2.249 19.019-8.39 24.698-17.105 2.312-3.57 3.869-7.575 4.577-11.769.708-4.195.551-8.489-.461-12.621zm-30.239 40.07c-.123 0-.244.028-.354.083s-.205.135-.279.234c-.114.247-.169.519-.159.791l1.267 4.118c-3.745-1.869-7.391-3.931-10.924-6.177 2.715-2.78 4.865-6.061 6.333-9.661l1.583 4.752c0 .21.083.411.232.56.148.148.35.232.56.232h.474c11.874-5.385 19.157-18.214 17.099-29.775 4.361-.888 8.648-2.106 12.824-3.643.795 3.916.798 7.951.01 11.868-.789 3.917-2.353 7.636-4.601 10.938-5.686 8.15-14.315 13.772-24.065 15.68z" fill-opacity=".04"/><path d="m471.257 340.421c-.165-.014-.33.025-.472.11s-.254.213-.32.365c-1.206 2.851-1.482 6.01-.791 9.027 0 .125.024.249.072.364s.118.22.206.308c.088.089.193.159.308.206.115.048.239.073.363.073.241-.033.464-.144.636-.315.171-.172.282-.395.314-.636-.716-2.673-.55-5.506.475-8.077.09-.112.139-.252.139-.396s-.049-.283-.139-.396c-.072-.161-.181-.302-.319-.412-.137-.111-.299-.186-.472-.221z" fill-opacity=".04"/><path d="m472.365 337.41c-.317 0-.633 0-.792.317-.158.317-.158.317-.158.633 0 .125.025.249.072.364.048.115.118.22.206.308.088.089.193.159.308.206.116.048.239.073.364.073.123 0 .244-.029.354-.084s.206-.135.279-.233c.164-.177.274-.397.317-.634 0-.252-.1-.493-.278-.671-.178-.179-.42-.279-.672-.279z" fill-opacity=".04"/><path d="m538.545 358.158c.165.014.33-.025.472-.11s.254-.213.319-.365c1.622-2.686 2.547-5.735 2.692-8.869.07-.13.092-.28.063-.425-.029-.144-.107-.274-.221-.367l-.792-.317c-.475 0-.792.158-.792.634 0 .475-.791 5.86-2.533 8.394-.083.144-.127.308-.127.475s.044.33.127.475c.066.152.178.28.32.365s.307.124.472.11z" fill-opacity=".04"/><path d="m540.759 346.756c.316 0 .633 0 .791-.317.159-.316.159-.316.159-.633 0-.125-.025-.249-.073-.364-.047-.115-.117-.22-.206-.308-.088-.088-.192-.158-.308-.206-.115-.048-.238-.073-.363-.073l-.633.317c-.126.186-.182.411-.159.634-.003.227.075.447.22.621.145.175.348.291.572.329z" fill-opacity=".04"/><path d="m231.633 488.577 4.042-.573-.574-4.042-4.042.573zm24.079-103.619-2.156 3.466 3.466 2.157 2.157-3.466zm-21.945 101.612c.769-1.024 1.522-2.037 2.258-3.038l-.806-.592c-.734.998-1.484 2.008-2.252 3.029zm6.657-9.195c1.482-2.139 2.882-4.234 4.2-6.293l-.842-.539c-1.311 2.048-2.704 4.132-4.18 6.262zm8.137-12.766c1.296-2.256 2.49-4.48 3.582-6.685l-.896-.444c-1.082 2.185-2.266 4.391-3.553 6.631zm6.694-13.597c.964-2.387 1.808-4.767 2.534-7.159l-.957-.291c-.717 2.362-1.551 4.715-2.505 7.075zm4.389-14.523c.496-2.468.872-4.964 1.132-7.509l-.995-.102c-.256 2.513-.628 4.979-1.117 7.414zm1.56-15.088c.032-2.467-.035-4.989-.198-7.581l-.998.063c.162 2.569.228 5.065.196 7.505zm-.919-15.133c-.305-2.427-.685-4.921-1.138-7.491l-.985.174c.45 2.555.828 5.032 1.131 7.442zm-2.601-14.918c-.262-1.214-.539-2.445-.83-3.694l-.974.227c.29 1.244.566 2.47.827 3.679z" fill-opacity=".08"/><path d="m255.633 726.577 4.042-.573-.574-4.042-4.042.573zm134.079-17.619-2.156 3.466 3.466 2.157 2.157-3.466zm-131.945 15.612c.816-1.086 1.718-2.074 2.701-2.973l-.674-.738c-1.028.94-1.973 1.974-2.827 3.11zm9.462-7.308c2.353-1.041 4.941-1.821 7.726-2.377l-.196-.98c-2.843.567-5.503 1.367-7.935 2.443zm15.796-3.363c2.628-.15 5.367-.162 8.193-.061l.035-1c-2.851-.101-5.622-.089-8.285.062zm16.349.502c2.675.265 5.399.603 8.156.998l.142-.99c-2.769-.397-5.508-.737-8.2-1.003zm16.253 2.291c2.686.468 5.383.973 8.078 1.498l.191-.981c-2.699-.526-5.404-1.032-8.097-1.502zm16.132 3.121c2.713.561 5.405 1.126 8.059 1.681l.205-.979c-2.653-.554-5.347-1.12-8.062-1.681zm16.11 3.34c2.771.558 5.478 1.083 8.098 1.555l.177-.984c-2.611-.47-5.311-.994-8.078-1.551zm16.215 2.865c2.919.404 5.68.696 8.243.84l.056-.999c-2.528-.141-5.261-.43-8.162-.831zm16.528.649c3.26-.43 5.949-1.367 7.839-3.019l-.658-.753c-1.681 1.469-4.148 2.363-7.312 2.78zm10.828-10.808c-.037-1.277-.23-2.675-.586-4.203l-.974.227c.344 1.476.526 2.807.56 4.004z" fill-opacity=".08"/><path d="m524.133 822.077 4.042-.573-.574-4.042-4.042.573zm-57.921-254.119-2.156 3.466 3.466 2.157 2.157-3.466zm.168 2.925c.281 1.204.615 2.514.999 3.922l.965-.263c-.382-1.399-.713-2.696-.99-3.886zm3.289 11.674c.755 2.413 1.596 5.002 2.512 7.751l.948-.316c-.914-2.744-1.753-5.328-2.505-7.734zm5.132 15.473c.851 2.468 1.745 5.032 2.676 7.683l.944-.331c-.931-2.65-1.825-5.212-2.674-7.678zm5.383 15.339c.884 2.488 1.793 5.038 2.724 7.642l.941-.337c-.93-2.604-1.839-5.153-2.723-7.64zm5.455 15.282c.897 2.508 1.809 5.058 2.732 7.645l.942-.336c-.923-2.587-1.835-5.138-2.732-7.646zm5.458 15.299c.898 2.528 1.803 5.085 2.713 7.665l.943-.333c-.91-2.581-1.816-5.138-2.714-7.667zm5.406 15.339c.886 2.538 1.773 5.094 2.66 7.664l.945-.327c-.887-2.571-1.775-5.128-2.661-7.667zm5.291 15.342c.869 2.557 1.735 5.124 2.596 7.696l.948-.317c-.861-2.574-1.727-5.143-2.598-7.701zm5.149 15.407c.843 2.572 1.678 5.146 2.502 7.719l.952-.305c-.824-2.575-1.66-5.151-2.504-7.726zm4.951 15.464c.81 2.596 1.606 5.186 2.386 7.766l.957-.29c-.781-2.583-1.578-5.175-2.388-7.774zm4.697 15.549c.762 2.616 1.505 5.216 2.225 7.798l.963-.269c-.721-2.585-1.465-5.19-2.228-7.809zm4.349 15.61c.702 2.653 1.377 5.28 2.021 7.876l.971-.241c-.646-2.601-1.322-5.233-2.025-7.891zm3.907 15.78c.614 2.687 1.19 5.334 1.724 7.934l.979-.201c-.535-2.608-1.113-5.262-1.729-7.956zm3.251 15.903c.485 2.735.914 5.406 1.283 8.006l.99-.141c-.371-2.612-.802-5.294-1.288-8.039zm2.252 16.048c.27 2.796.455 5.488.546 8.061l1-.035c-.093-2.597-.279-5.308-.551-8.123zm.502 16.088c-.153 2.901-.466 5.591-.952 8.049l.981.194c.497-2.513.815-5.252.97-8.19zm-3.352 15.601c-.596 1.245-1.272 2.376-2.033 3.388l.8.601c.804-1.07 1.514-2.259 2.135-3.558z" fill-opacity=".08"/><path d="m340.133 650.577 4.042-.573-.574-4.042-4.042.573zm-85.421-53.619-2.156 3.466 3.466 2.157 2.157-3.466zm.168 2.925c.331 1.421.768 2.764 1.303 4.033l.921-.388c-.512-1.216-.932-2.505-1.25-3.872zm5.898 11.102c1.875 2.018 4.086 3.756 6.554 5.261l.521-.854c-2.403-1.465-4.539-3.148-6.343-5.088zm14.095 8.916c2.527.975 5.2 1.806 7.968 2.524l.251-.968c-2.739-.711-5.374-1.531-7.859-2.489zm16.119 4.299c2.713.495 5.47.917 8.229 1.29l.134-.991c-2.748-.371-5.489-.791-8.183-1.282zm16.482 2.288c2.807.308 5.578.591 8.265.874l.105-.994c-2.691-.284-5.457-.566-8.261-.874zm16.509 1.809c2.924.371 5.664.781 8.15 1.273l.194-.981c-2.518-.498-5.282-.912-8.218-1.284zm16.041 3.545c3.035 1.318 4.917 2.991 5.491 5.183l.968-.253c-.69-2.633-2.916-4.482-6.061-5.847zm3.729 12.698c-.608 1.065-1.366 2.206-2.286 3.429l.8.601c.94-1.251 1.722-2.427 2.354-3.534z" fill-opacity=".08"/><path d="m679.133 399.576 4.042-.573-.574-4.042-4.042.574zm-177.921 9.881-2.156 3.466 3.466 2.157 2.157-3.466zm.168 2.925c.341 1.465.903 2.779 1.672 3.946l.835-.55c-.701-1.064-1.217-2.267-1.533-3.623zm8.286 9.106c2.321.973 5.048 1.626 8.11 2.007l.124-.992c-3-.374-5.633-1.009-7.848-1.937zm16.366 2.423c2.603-.026 5.361-.176 8.25-.434l-.089-.996c-2.868.256-5.599.404-8.171.43zm16.463-1.398c2.642-.377 5.364-.821 8.153-1.324l-.177-.984c-2.778.501-5.489.943-8.117 1.317zm16.252-2.905c2.644-.552 5.332-1.146 8.053-1.775l-.225-.974c-2.715.627-5.396 1.219-8.033 1.77zm16.071-3.7c2.646-.657 5.312-1.34 7.99-2.042l-.254-.967c-2.673.701-5.336 1.383-7.977 2.039zm15.955-4.174c2.648-.723 5.299-1.459 7.943-2.202l-.271-.963c-2.641.743-5.29 1.478-7.936 2.2zm15.866-4.453c2.656-.762 5.294-1.525 7.907-2.284l-.278-.96c-2.613.758-5.251 1.521-7.905 2.282zm15.803-4.583c2.678-.78 5.317-1.549 7.906-2.299l-.278-.96c-2.59.75-5.229 1.519-7.907 2.299zm15.816-4.572c2.717-.774 5.36-1.515 7.914-2.217l-.264-.964c-2.558.702-5.204 1.445-7.923 2.219zm15.895-4.344c2.838-.729 5.523-1.384 8.03-1.949l-.22-.976c-2.519.568-5.214 1.226-8.059 1.957zm16.026-3.532c3.275-.53 6-.78 8.088-.697l.04-.999c-2.186-.088-4.988.175-8.288.709zm12.356 3.217c-.353.955-1.025 2.115-2.068 3.501l.8.601c1.071-1.426 1.806-2.674 2.206-3.755z" fill-opacity=".08"/><path d="m730.134 816.578 4.042-.574-.573-4.042-4.042.574zm-96.591-77.66-4.026.677.677 4.026 4.026-.677zm-2.082 2.061c-.819 1.151-1.598 2.278-2.337 3.384l.831.556c.733-1.097 1.507-2.217 2.321-3.359zm-6.46 10.023c-1.4 2.459-2.581 4.794-3.554 7.013l.916.401c.957-2.183 2.121-4.487 3.507-6.919zm-6.179 14.493c-.718 2.832-1.03 5.439-.971 7.837l.999-.024c-.056-2.294.242-4.809.942-7.568zm.783 15.604c1.129 2.414 2.767 4.51 4.82 6.329l.664-.748c-1.965-1.741-3.514-3.729-4.578-6.004zm11.488 10.694c2.237 1.101 4.698 2.048 7.335 2.864l.296-.956c-2.598-.804-5.008-1.732-7.19-2.806zm14.988 4.795c2.504.511 5.109.943 7.787 1.31l.135-.991c-2.66-.364-5.243-.793-7.721-1.299zm15.588 2.188c2.577.236 5.194.427 7.83.585l.06-.999c-2.627-.157-5.234-.347-7.799-.581zm15.675.965c2.626.101 5.248.18 7.846.248l.026-1c-2.595-.067-5.213-.146-7.834-.248zm15.686.43c2.667.058 5.28.115 7.817.183l.027-1c-2.54-.068-5.156-.125-7.822-.183zm15.669.458c2.766.126 5.385.287 7.816.503l.088-.996c-2.449-.217-5.083-.379-7.859-.506zm15.541 1.523c3.109.599 5.555 1.393 7.212 2.441l.535-.845c-1.816-1.149-4.409-1.971-7.557-2.578zm9.176 8.523c-.393.981-1.031 2.075-1.947 3.294l.799.601c.952-1.267 1.642-2.438 2.076-3.524z" fill-opacity=".08"/><path d="m818.659 730.578 4.042-.574-.574-4.042-4.042.574zm-124.696-160.406.807 4.002 4.002-.807-.807-4.002zm2.127 2.014c1.135.754 2.269 1.512 3.403 2.275l.558-.83c-1.135-.764-2.271-1.523-3.407-2.278zm10.18 6.892c2.246 1.55 4.488 3.115 6.722 4.695l.577-.816c-2.237-1.582-4.482-3.15-6.732-4.702zm13.389 9.469c2.214 1.606 4.417 3.224 6.608 4.854l.597-.803c-2.194-1.632-4.401-3.252-6.618-4.86zm13.156 9.788c2.178 1.663 4.34 3.336 6.483 5.017l.617-.787c-2.147-1.684-4.312-3.359-6.494-5.025zm12.898 10.119c2.137 1.724 4.253 3.455 6.343 5.192l.639-.769c-2.094-1.74-4.213-3.474-6.354-5.201zm12.607 10.477c2.09 1.791 4.151 3.587 6.179 5.384l.664-.748c-2.033-1.802-4.098-3.6-6.192-5.395zm12.265 10.875c2.033 1.867 4.028 3.736 5.982 5.603l.691-.723c-1.959-1.872-3.959-3.745-5.996-5.617zm11.847 11.33c1.961 1.958 3.872 3.912 5.73 5.861l.724-.69c-1.864-1.955-3.781-3.915-5.748-5.878zm11.304 11.868c1.862 2.066 3.66 4.123 5.387 6.168l.764-.645c-1.735-2.054-3.539-4.119-5.408-6.192zm10.546 12.51c1.719 2.201 3.349 4.384 4.884 6.547l.815-.579c-1.544-2.176-3.183-4.371-4.911-6.583zm9.444 13.362c1.495 2.384 2.86 4.737 4.088 7.053l.883-.468c-1.239-2.34-2.617-4.714-4.124-7.117zm7.575 14.437c1.078 2.62 1.952 5.182 2.609 7.676l.967-.255c-.669-2.542-1.559-5.145-2.652-7.801zm3.973 15.664c.195 2.793.059 5.478-.43 8.041l.983.187c.506-2.656.645-5.427.445-8.298zm-3.105 15.603c-.628 1.163-1.352 2.293-2.176 3.389l.8.601c.853-1.135 1.604-2.308 2.256-3.515z" fill-opacity=".08"/><path d="m849.868 523.656 2.887-2.886-2.887-2.887-2.887 2.886zm-33.304-152.221-4.032.637.636 4.032 4.033-.637zm-2.102 2.04c-.855 1.176-1.676 2.341-2.463 3.498l.826.563c.782-1.148 1.597-2.305 2.446-3.472zm-6.947 10.578c-1.468 2.513-2.778 4.98-3.938 7.402l.902.432c1.147-2.397 2.444-4.839 3.9-7.329zm-7.194 15.121c-.994 2.733-1.796 5.406-2.421 8.023l.973.233c.616-2.579 1.406-5.216 2.388-7.914zm-3.848 16.341c-.296 2.867-.382 5.663-.279 8.392l.999-.037c-.101-2.683-.017-5.431.275-8.252zm.64 16.769c.509 2.789 1.206 5.504 2.064 8.15l.951-.308c-.844-2.607-1.531-5.279-2.031-8.022zm5.131 15.981c1.168 2.548 2.47 5.031 3.876 7.452l.865-.502c-1.391-2.397-2.678-4.85-3.832-7.367zm8.369 14.54c1.585 2.311 3.242 4.568 4.941 6.774l.793-.61c-1.691-2.195-3.337-4.436-4.909-6.73zm10.181 13.305c1.803 2.172 3.619 4.298 5.412 6.382l.758-.652c-1.792-2.083-3.603-4.204-5.401-6.369zm10.867 12.72c1.858 2.176 3.65 4.31 5.335 6.411l.78-.625c-1.694-2.113-3.493-4.256-5.355-6.436zm10.328 13.062c1.657 2.405 3.098 4.769 4.255 7.105l.896-.444c-1.184-2.39-2.651-4.796-4.328-7.228zm6.978 14.829c.263 1.354.401 2.702.401 4.048l1 .001c0-1.415-.145-2.828-.419-4.24z" fill-opacity=".08"/><path d="m998.081 594.156 2.889-2.886-2.888-2.887-2.887 2.886zm-4.518-131.721-4.032.637.636 4.032 4.033-.637zm-2.102 2.04c-.792 1.089-1.56 2.166-2.306 3.23l.82.573c.741-1.059 1.506-2.13 2.295-3.214zm-6.633 9.67c-1.457 2.267-2.804 4.476-4.048 6.629l.866.5c1.235-2.139 2.574-4.334 4.023-6.588zm-7.746 13.467c-1.219 2.425-2.3 4.775-3.251 7.055l.923.385c.942-2.257 2.012-4.586 3.222-6.991zm-5.928 14.318c-.836 2.625-1.491 5.151-1.982 7.586l.98.198c.484-2.398 1.13-4.889 1.955-7.481zm-3.035 15.295c-.187 2.721-.162 5.321.042 7.814l.997-.082c-.201-2.442-.225-4.992-.041-7.664zm1.296 15.533c.633 2.591 1.454 5.06 2.415 7.429l.927-.376c-.945-2.328-1.75-4.751-2.371-7.29zm5.783 14.465c1.262 2.299 2.623 4.512 4.029 6.664l.837-.547c-1.396-2.137-2.743-4.327-3.989-6.598zm8.409 13.078c1.508 2.15 2.999 4.256 4.419 6.357l.829-.56c-1.426-2.11-2.926-4.227-4.429-6.371zm8.519 12.879c1.29 2.272 2.418 4.565 3.308 6.914l.935-.354c-.912-2.409-2.064-4.749-3.374-7.054zm5.205 14.286c.164 1.242.251 2.509.25 3.803l1 .001c.001-1.34-.089-2.65-.258-3.935z" fill-opacity=".08"/><path d="m879.633 759.578 4.042-.574-.574-4.042-4.042.574zm75.734-11.308.417-.277zm65.263 6.403-3.86 1.337 1.34 3.857 3.85-1.337zm-138.863 2.897c.831-1.105 1.621-2.241 2.375-3.402l-.838-.545c-.743 1.143-1.52 2.26-2.337 3.346zm6.48-10.595c1.246-2.474 2.374-4.999 3.413-7.53l-.925-.379c-1.031 2.511-2.149 5.013-3.382 7.459zm6.345-15.244c.948-2.667 1.829-5.288 2.674-7.801l-.948-.319c-.846 2.515-1.723 5.127-2.668 7.785zm5.367-15.581c1.034-2.82 2.07-5.36 3.179-7.511l-.888-.458c-1.138 2.205-2.191 4.789-3.23 7.624zm8.072-13.701c1.995-1.305 4.354-1.551 7.375-.286l.386-.922c-3.274-1.371-5.99-1.146-8.309.371zm14.054 4.133c1.789 1.535 3.735 3.433 5.859 5.732l.735-.678c-2.144-2.32-4.118-4.247-5.942-5.813zm11.189 11.889c1.609 1.964 3.304 4.117 5.09 6.47l.797-.605c-1.793-2.361-3.495-4.524-5.114-6.499zm9.977 13.086c1.517 2.106 3.092 4.338 4.729 6.7l.822-.57c-1.64-2.366-3.219-4.603-4.74-6.714zm9.347 13.469c.772 1.147 1.556 2.32 2.353 3.52l.833-.553c-.798-1.201-1.583-2.376-2.356-3.525zm2.353 3.52c.812 1.224 1.617 2.401 2.417 3.533l.817-.577c-.794-1.124-1.594-2.293-2.401-3.509zm7.48 10.221c1.926 2.359 3.812 4.459 5.658 6.321l.71-.704c-1.821-1.837-3.686-3.912-5.593-6.249zm11.995 11.933c2.484 1.89 4.886 3.351 7.202 4.441l.426-.905c-2.246-1.056-4.588-2.479-7.022-4.332zm15.377 6.89c3.049.382 5.894.129 8.519-.567l-.256-.966c-2.508.664-5.223.906-8.139.541zm16.267-4.141c2.46-1.648 4.61-3.604 6.43-5.567l-.73-.68c-1.78 1.92-3.87 3.821-6.26 5.416zm11.62-12.294c.7-1.083 1.23-1.996 1.59-2.64.17-.322.31-.577.4-.753.04-.087.08-.155.1-.201.01-.023.02-.041.03-.053 0-.006 0-.011 0-.014.01-.002.01-.003.01-.004s0-.001 0-.001v-.001s0 0-.45-.218-.45-.218-.45-.218v-.001.001.003c-.01.002-.01.006-.01.011 0 .01-.01.026-.02.048-.02.042-.06.106-.1.19-.09.167-.22.414-.39.728-.35.627-.86 1.521-1.55 2.582z" fill-opacity=".08"/></g></svg>