<svg fill="none" height="57" viewBox="0 0 159 57" width="159" xmlns="http://www.w3.org/2000/svg"><path d="m36.1463 21.1348c-.1668.2859-.3336.5718-.5004.8578-2.5495 3.9315-6.9576 6.5286-11.9851 6.5286h-12.5332l-11.0797484 7.3865v6.6955 6.5764 7.3865l11.0797484-7.3865h21.3969c7.8869 0 14.2726-6.3858 14.2726-14.2726-.0476-6.6002-4.551-12.152-10.6508-13.7722z" fill="#5d71ff"/><path d="m35.6219 21.0157c.1668.0477.3336.0953.5004.143 1.1199-2.0491 1.7632-4.3842 1.7632-6.8861 0-7.88686-6.3857-14.2726-14.2726-14.2726h-16.96507c-3.66941 0-6.64783 2.97843-6.64783 6.64784v14.01046h32.4767c1.0961 0 2.1445.1192 3.1452.3574z" fill="#7dcaff"/><path d="m23.6373 28.5216c5.0276 0 9.4595-2.5972 11.9852-6.5287.1668-.2859.3574-.548.5004-.8578-.1668-.0476-.3336-.0953-.5004-.1429-1.0008-.2145-2.0492-.3574-3.1452-.3574h-32.4528859v.3097.6672.3097 5.5995.9769 6.3857.9769l11.0796859-7.3864h12.5332z" fill="#3ba2ff"/><path d="m15.3656 37.1706c1.1317 0 2.0491-.9175 2.0491-2.0492s-.9174-2.0491-2.0491-2.0491c-1.1318 0-2.0492.9174-2.0492 2.0491s.9174 2.0492 2.0492 2.0492z" fill="#fff"/><path d="m23.2288 37.1706c1.1318 0 2.0492-.9175 2.0492-2.0492s-.9174-2.0491-2.0492-2.0491c-1.1317 0-2.0491.9174-2.0491 2.0491s.9174 2.0492 2.0491 2.0492z" fill="#fff"/><path d="m31.4251 37.1706c1.1317 0 2.0492-.9175 2.0492-2.0492s-.9175-2.0491-2.0492-2.0491-2.0491.9174-2.0491 2.0491.9174 2.0492 2.0491 2.0492z" fill="#fff"/><g fill="#142a5b"><path d="m93.4273 18.4191c-.5957-.5719-1.2867-1.0246-2.073-1.3582-.8102-.3336-1.6679-.5004-2.621-.5004h-3.8601c-.9531 0-1.8109.1668-2.621.5004s-1.5011.7863-2.073 1.3582c-.5956.5718-1.0484 1.2628-1.3819 2.073-.3336.8101-.5004 1.6917-.5004 2.621v3.026c0 .9531.1668 1.8348.5004 2.6449.3335.8101.7863 1.5011 1.3819 2.073.5957.5956 1.2867 1.0484 2.073 1.3581.8101.3336 1.6679.4766 2.621.4766h3.8601c.9531 0 1.8108-.1668 2.621-.4766.8101-.3336 1.5011-.7863 2.073-1.3581.5956-.5957 1.0484-1.2867 1.3581-2.073.3336-.8101.5004-1.6918.5004-2.6449v-3.0022c0-.9531-.1668-1.8347-.5004-2.621-.3336-.8101-.7863-1.5011-1.3581-2.0968zm-1.0008 7.72c0 .5719-.0953 1.0723-.2621 1.525s-.4289.8578-.7625 1.1675c-.3336.3336-.7148.5719-1.1675.7625s-.9531.2621-1.525.2621h-3.8362c-.548 0-1.0722-.0953-1.5249-.2621s-.8578-.4289-1.1676-.7625c-.3335-.3335-.5718-.7148-.7624-1.1675-.1907-.4527-.2621-.9531-.2621-1.525v-3.0022c0-.5719.0953-1.0722.2621-1.5249.1668-.4528.4289-.8578.7624-1.1676.3336-.3336.7149-.5718 1.1676-.7625.4527-.1668.9531-.2621 1.5249-.2621h3.8601c.548 0 1.0484.0953 1.5011.2621.4527.1907.8578.4289 1.1675.7625.3336.3336.5719.7148.7625 1.1676.1906.4527.2621.9769.2621 1.5249z"/><path d="m101.145 19.6343h6.266v12.8668h2.859v-12.8668h6.267v-2.8355h-15.392z"/><path d="m136.028 17.0371c-.238-.1668-.5-.2383-.762-.2383h-12.867v2.8355h9.65l-9.412 10.484c-.191.2145-.286.4528-.334.7149-.047.2859 0 .548.12.8101.119.2621.285.4527.524.6195.238.1668.5.2383.762.2383h12.819v-2.8355h-9.626l9.388-10.484c.191-.1907.31-.4289.357-.7149.048-.2859.001-.548-.095-.8101-.119-.2621-.31-.4765-.524-.6195z"/><path d="m158.881 17.657c-.072-.1668-.167-.3336-.31-.4527-.143-.143-.286-.2383-.453-.3098s-.357-.1191-.548-.1191h-6.41c-1.119 0-2.168.1906-3.121.5718-.953.3813-1.787.9293-2.478 1.6203s-1.239 1.525-1.644 2.478c-.405.9531-.596 2.0254-.596 3.1691v7.8392h2.836v-3.86h10.007v3.86h2.836v-14.2726c0-.143-.048-.3336-.119-.5242zm-2.741 8.1251h-10.007v-1.1437c0-.7863.119-1.4773.334-2.0253.214-.548.5-1.0246.857-1.4058.334-.3813.715-.6672 1.12-.8816.405-.2145.786-.3574 1.168-.4766.357-.0953.691-.1668.977-.1906s.476-.0477.548-.0477h5.003z"/><path d="m71.1476 25.7345c-.2145-.3574-.4528-.691-.7387-.9531-.2859-.2859-.5718-.5242-.9054-.7148.3812-.5242.6433-1.0723.8101-1.6441.1668-.5719.2621-1.1199.2621-1.6203v-.548c0-.6434-.1191-1.1676-.3336-1.6203-.2382-.4289-.5242-.7863-.8578-1.0722-.3574-.2621-.7148-.4766-1.1198-.5957-.4051-.1191-.7863-.1906-1.1199-.1906h-9.531c-.2144 0-.405.0476-.5718.1191s-.3336.1668-.4528.3098c-.1191.1429-.2382.2859-.3097.4527s-.1191.3574-.1191.548v1.4058h2.8354 3.3597 4.7654c.4051 0 .5957.2145.5957.6196v.548c0 .3812-.0476.7148-.1668 1.0007-.1191.286-.2859.5481-.4765.7625-.2145.2145-.4766.3812-.7625.4766-.3097.1191-.6433.1668-1.0007.1668h-6.2666-2.8831v7.8392c0 .2144.0476.405.1191.5718s.1668.3336.3097.4527c.1192.1192.286.2383.4528.3098s.3574.1191.5718.1191h10.7938c.6434 0 1.1676-.1191 1.6203-.3336.4289-.2382.7863-.5242 1.0722-.8578.2621-.3335.4766-.7148.5957-1.1198.1191-.4051.1906-.7863.1906-1.1199v-.548c0-.5481-.0715-1.0723-.1906-1.525-.1668-.4527-.3336-.8816-.548-1.239zm-2.1445 3.2882c0 .1429-.0238.2621-.0715.3574-.0476.0953-.0953.1429-.1429.1906-.0477.0476-.1192.0476-.1907.0715-.0714 0-.1429 0-.1906 0h-6.0283-3.2882v-3.5741h7.4818c.3813 0 .7148.0476 1.0008.1667.3097.1192.548.286.7624.4766.2145.2144.3813.4765.5004.7625.1192.2859.1668.6195.1668 1.0007z"/></g></svg>