<svg fill="none" height="24" viewBox="0 0 24 24" width="24" xmlns="http://www.w3.org/2000/svg"><path d="m0 0h24v24h-24z" fill="#fff"/><path d="m17.3243 8.89844c-.0702.12039-.1404.24078-.2106.36117-1.0735 1.65539-2.9295 2.74889-5.0464 2.74889h-5.27715l-4.66515 3.1101v2.8192 2.769 3.1101l4.66515-3.1101h9.00925c3.3208 0 6.0095-2.6888 6.0095-6.0095-.0201-2.7791-1.9162-5.11665-4.4846-5.79886z" fill="#5d71ff"/><path d="m17.1042 8.84873c.0702.02007.1404.04013.2107.0602.4715-.8628.7424-1.84599.7424-2.89941 0-3.32079-2.6888-6.00952-6.0096-6.00952h-7.14314c-1.54502 0-2.79909 1.25407-2.79909 2.79909v5.89915h13.67443c.4615 0 .9029.05017 1.3243.15049z" fill="#7dcaff"/><path d="m12.0575 12.0083c2.1169 0 3.9829-1.0936 5.0464-2.74894.0702-.12039.1505-.23075.2107-.36118-.0702-.02006-.1405-.04013-.2107-.06019-.4214-.09029-.8628-.15049-1.3243-.15049h-13.66437v.13043.28091.13042 2.35764.4113 2.6888.4113l4.66515-3.1101h5.27712z" fill="#3ba2ff"/><g fill="#fff"><path d="m8.57569 15.6514c.47652 0 .8628-.3863.8628-.8628s-.38628-.8628-.8628-.8628c-.47651 0-.8628.3863-.8628.8628s.38629.8628.8628.8628z"/><path d="m11.8862 15.6514c.4765 0 .8628-.3863.8628-.8628s-.3863-.8628-.8628-.8628-.8628.3863-.8628.8628.3863.8628.8628.8628z"/><path d="m15.3374 15.6514c.4765 0 .8628-.3863.8628-.8628s-.3863-.8628-.8628-.8628-.8628.3863-.8628.8628.3863.8628.8628.8628z"/></g></svg>