<svg width="24" height="24" viewBox="0 0 24 24" fill="none" xmlns="http://www.w3.org/2000/svg">
<rect width="24" height="24" fill="white"/>
<path d="M17.3243 8.89844C17.2541 9.01883 17.1839 9.13922 17.1137 9.25961C16.0402 10.915 14.1842 12.0085 12.0673 12.0085H6.79015L2.125 15.1186V17.9378V20.7068V23.8169L6.79015 20.7068H15.7994C19.1202 20.7068 21.8089 18.018 21.8089 14.6973C21.7888 11.9182 19.8927 9.58065 17.3243 8.89844Z" fill="#5D71FF"/>
<path d="M17.1042 8.84873C17.1744 8.8688 17.2446 8.88886 17.3149 8.90893C17.7864 8.04613 18.0573 7.06294 18.0573 6.00952C18.0573 2.68873 15.3685 0 12.0477 0H4.90456C3.35954 0 2.10547 1.25407 2.10547 2.79909V8.69824H15.7799C16.2414 8.69824 16.6828 8.74841 17.1042 8.84873Z" fill="#7DCAFF"/>
<path d="M12.0575 12.0083C14.1744 12.0083 16.0404 10.9147 17.1039 9.25936C17.1741 9.13897 17.2544 9.02861 17.3146 8.89818C17.2444 8.87812 17.1741 8.85805 17.1039 8.83799C16.6825 8.7477 16.2411 8.6875 15.7796 8.6875H2.11523V8.81793V9.09884V9.22926V11.5869V11.9982V14.687V15.0983L6.78038 11.9882H12.0575V12.0083Z" fill="#3BA2FF"/>
<path d="M8.57569 15.6514C9.05221 15.6514 9.43849 15.2651 9.43849 14.7886C9.43849 14.3121 9.05221 13.9258 8.57569 13.9258C8.09918 13.9258 7.71289 14.3121 7.71289 14.7886C7.71289 15.2651 8.09918 15.6514 8.57569 15.6514Z" fill="white"/>
<path d="M11.8862 15.6514C12.3627 15.6514 12.749 15.2651 12.749 14.7886C12.749 14.3121 12.3627 13.9258 11.8862 13.9258C11.4097 13.9258 11.0234 14.3121 11.0234 14.7886C11.0234 15.2651 11.4097 15.6514 11.8862 15.6514Z" fill="white"/>
<path d="M15.3374 15.6514C15.8139 15.6514 16.2002 15.2651 16.2002 14.7886C16.2002 14.3121 15.8139 13.9258 15.3374 13.9258C14.8609 13.9258 14.4746 14.3121 14.4746 14.7886C14.4746 15.2651 14.8609 15.6514 15.3374 15.6514Z" fill="white"/>
</svg>
