<svg fill="none" height="45" viewBox="0 0 97 45" width="97" xmlns="http://www.w3.org/2000/svg"><path d="m73.9294 45.0004c-5.9142.0163-11.5937-2.3122-15.7944-6.4755l-27.1925-24.2503-.1084-.1082c-1.6482-1.6483-3.7483-2.7708-6.0345-3.2255-2.2862-.4548-4.656-.2214-6.8095.6706-2.1536.8921-3.9943 2.4027-5.2894 4.3408-1.295 1.9382-1.9863 4.2169-1.9863 6.5479s.6913 4.6097 1.9863 6.5479c1.2951 1.9382 3.1358 3.4488 5.2894 4.3408 2.1535.8921 4.5233 1.1254 6.8095.6707 2.2862-.4548 4.3863-1.5773 6.0345-3.2256.4975-.4975 1.0881-.8921 1.7381-1.1613.6499-.2692 1.3466-.4078 2.0501-.4078s1.4001.1386 2.0501.4078 1.2405.6638 1.738 1.1613.8921 1.088 1.1613 1.738.4078 1.3466.4078 2.0501-.1386 1.4002-.4078 2.0501c-.2692.65-.6638 1.2406-1.1613 1.738-3.1418 3.1419-7.1435 5.2832-11.5005 6.154s-8.8743.4321-12.9824-1.2608c-4.10804-1.6929-7.62292-4.5641-10.10146-8.2518-2.47855-3.6876-3.8097924-8.0266-3.82589222-12.4697-.01609978-4.4432 1.28366222-8.7917 3.73542222-12.4972 2.45176-3.70552 5.94573-6.60219 10.04143-8.32479 4.0957-1.7226095 8.6097-2.194031 12.9729-1.35483 4.3632.8392 8.3803 2.95145 11.5448 6.07044l27.1927 24.25028.1083.1082c1.6482 1.6483 3.7483 2.7708 6.0345 3.2256 2.2862.4547 4.656.2214 6.8095-.6707 2.1536-.892 3.9943-2.4026 5.2894-4.3408 1.295-1.9382 1.9863-4.2169 1.9863-6.5479s-.6913-4.6097-1.9863-6.5479c-1.2951-1.9381-3.1358-3.4487-5.2894-4.3408-2.1535-.892-4.5233-1.1254-6.8095-.6706-2.2862.4547-4.3863 1.5772-6.0345 3.2255-1.0047 1.0047-2.3674 1.5691-3.7882 1.5691s-2.7834-.5644-3.7881-1.5691c-1.0047-1.0046-1.5691-2.3673-1.5691-3.7881 0-1.42081.5644-2.78344 1.5691-3.78811 2.6164-2.61643 5.8377-4.54722 9.3786-5.621329 3.5408-1.074111 7.292-1.258396 10.921-.536527 3.6291.721866 7.0242 2.327606 9.8845 4.674976 2.8602 2.34738 5.0975 5.36389 6.5135 8.78249 1.416 3.4185 1.967 7.1335 1.6043 10.8158-.3626 3.6824-1.6279 7.2185-3.6836 10.2951s-4.8384 5.5987-8.1017 7.343c-3.2633 1.7442-6.9064 2.6567-10.6066 2.6567z" fill="#3a3a3a"/></svg>