<svg fill="none" height="33" viewBox="0 0 90 33" width="90" xmlns="http://www.w3.org/2000/svg"><path d="m4.20686 19.6429c0 1.1625-.93689 2.1019-2.09611 2.1019-1.159205 0-2.0961016-.9394-2.0961016-2.1019 0-1.1624.9368966-2.1019 2.0961016-2.1019h2.09611z" fill="#e01e5a"/><path d="m5.25293 19.6429c0-1.1624.9369-2.1019 2.09611-2.1019s2.0961.9395 2.0961 2.1019v5.2548c0 1.1624-.93689 2.1019-2.0961 2.1019s-2.09611-.9395-2.09611-2.1019z" fill="#e01e5a"/><path d="m7.35001 11.2038c-1.15921 0-2.0961-.9395-2.0961-2.10189 0-1.16242.93689-2.10191 2.0961-2.10191s2.09611.93949 2.09611 2.10191v2.10189z" fill="#36c5f0"/><path d="m7.35226 12.2715c1.15921 0 2.0961.9395 2.0961 2.1019s-.93689 2.1019-2.0961 2.1019h-5.25615c-1.159213 0-2.09611-.9395-2.09611-2.1019s.936897-2.1019 2.09611-2.1019z" fill="#36c5f0"/><path d="m15.7461 14.3734c0-1.1624.9369-2.1019 2.0961-2.1019s2.0961.9395 2.0961 2.1019-.9369 2.1019-2.0961 2.1019h-2.0961z" fill="#2eb67d"/><path d="m14.7 14.3726c0 1.1624-.9369 2.1019-2.0961 2.1019s-2.0961-.9395-2.0961-2.1019v-5.27069c0-1.16242.9369-2.10191 2.0961-2.10191s2.0961.93949 2.0961 2.10191z" fill="#2eb67d"/><path d="m12.6039 22.7949c1.1592 0 2.0961.9395 2.0961 2.1019 0 1.1625-.9369 2.1019-2.0961 2.1019s-2.0961-.9394-2.0961-2.1019v-2.1019z" fill="#ecb22e"/><path d="m12.6039 21.7448c-1.1592 0-2.0961-.9394-2.0961-2.1019 0-1.1624.9369-2.1019 2.0961-2.1019h5.2562c1.1592 0 2.0961.9395 2.0961 2.1019 0 1.1625-.9369 2.1019-2.0961 2.1019z" fill="#ecb22e"/><path d="m32.458 9.424c-3.696 0-6.138 1.804-6.138 4.642 0 5.456 8.14 3.828 8.14 6.556 0 .88-.77 1.342-2.002 1.342-1.606 0-3.982-.924-5.566-2.31l-1.518 3.014c1.826 1.496 4.466 2.464 7.04 2.464 3.432 0 6.16-1.628 6.16-4.708 0-5.566-8.14-4.048-8.14-6.71 0-.748.682-1.122 1.694-1.122 1.254 0 3.3.66 4.928 1.606l1.474-3.058c-1.584-1.034-3.85-1.716-6.072-1.716zm12.5742 15.576v-16.324h-3.806v16.324zm8.9164-12.034c-1.98 0-3.652.484-5.5 1.342l1.078 2.508c1.254-.638 2.552-.99 3.542-.99 1.54 0 2.31.704 2.31 1.87v.176h-3.124c-2.948.022-4.554 1.342-4.554 3.586 0 2.178 1.54 3.718 4.07 3.718 1.606 0 2.86-.528 3.63-1.54v1.364h3.718v-7.744c-.022-2.684-1.914-4.29-5.17-4.29zm-1.012 9.636c-1.056 0-1.672-.55-1.672-1.408 0-.88.572-1.276 1.716-1.276h2.398v1.056c-.242.968-1.254 1.628-2.442 1.628zm14.4894-9.592c-3.674 0-6.16 2.442-6.16 6.094 0 3.608 2.464 6.028 6.116 6.028 2.508 0 4.422-1.012 5.39-2.75l-2.772-1.628c-.506.902-1.342 1.342-2.42 1.342-1.474 0-2.486-1.188-2.486-3.014 0-1.782 1.012-2.992 2.486-2.992 1.034 0 1.848.462 2.398 1.232l2.728-1.65c-1.034-1.694-2.926-2.662-5.28-2.662zm12.8155 7.414 2.574 4.576h4.51l-4.488-7.304 4.356-4.554h-4.312l-3.916 4.158v-8.624h-3.806v16.324h3.806v-3.234z" fill="#4a154b"/></svg>