<svg width="45" height="45" viewBox="0 0 45 45" fill="none" xmlns="http://www.w3.org/2000/svg">
<path fill-rule="evenodd" clip-rule="evenodd" d="M0 7.29144C0 3.26449 3.26448 0 7.29143 0H35.6616C39.6886 0 42.9531 3.26448 42.9531 7.29143V31.3549C43.9929 32.7395 44.6091 34.4605 44.6091 36.3254C44.6091 40.9009 40.8999 44.6101 36.3244 44.6101C34.4589 44.6101 32.7374 43.9935 31.3526 42.9531H7.29144C3.26449 42.9531 0 39.6886 0 35.6616V7.29144ZM12.6619 23.3148C13.025 22.7714 13.2188 22.1325 13.2188 21.4789C13.2188 20.6025 12.8707 19.762 12.251 19.1423C11.6313 18.5226 10.7908 18.1745 9.91436 18.1745C9.26081 18.1745 8.62192 18.3683 8.07851 18.7314C7.5351 19.0945 7.11156 19.6106 6.86145 20.2144C6.61135 20.8182 6.54591 21.4826 6.67341 22.1236C6.80091 22.7646 7.11563 23.3534 7.57777 23.8155C8.0399 24.2777 8.6287 24.5924 9.2697 24.7199C9.9107 24.8474 10.5751 24.7819 11.1789 24.5318C11.7827 24.2817 12.2988 23.8582 12.6619 23.3148ZM11.2881 20.561C11.4697 20.8327 11.5666 21.1521 11.5666 21.4789C11.5666 21.9171 11.3925 22.3374 11.0827 22.6472C10.7728 22.9571 10.3526 23.1311 9.91436 23.1311C9.58758 23.1311 9.26814 23.0342 8.99644 22.8527C8.72473 22.6711 8.51296 22.4131 8.38791 22.1112C8.26285 21.8093 8.23014 21.4771 8.29389 21.1566C8.35764 20.8361 8.515 20.5417 8.74607 20.3106C8.97713 20.0796 9.27153 19.9222 9.59203 19.8584C9.91253 19.7947 10.2447 19.8274 10.5466 19.9525C10.8485 20.0775 11.1066 20.2893 11.2881 20.561ZM36.108 20.8948C36.2629 21.0497 36.3499 21.2598 36.3499 21.4789C36.3499 21.698 36.2629 21.9081 36.108 22.0631C35.953 22.218 35.7429 22.305 35.5238 22.305H17.3494C17.1303 22.305 16.9201 22.218 16.7652 22.0631C16.6103 21.9081 16.5233 21.698 16.5233 21.4789C16.5233 21.2598 16.6103 21.0497 16.7652 20.8948C16.9201 20.7398 17.1303 20.6528 17.3494 20.6528H35.5238C35.7429 20.6528 35.953 20.7398 36.108 20.8948ZM12.6619 11.7492C13.025 11.2058 13.2188 10.5669 13.2188 9.91337C13.2188 9.03698 12.8707 8.19648 12.251 7.57677C11.6313 6.95707 10.7908 6.60893 9.91436 6.60893C9.26081 6.60893 8.62192 6.80273 8.07851 7.16582C7.5351 7.52892 7.11156 8.04501 6.86145 8.64881C6.61135 9.25262 6.54591 9.91704 6.67341 10.558C6.80091 11.199 7.11563 11.7878 7.57777 12.25C8.0399 12.7121 8.6287 13.0268 9.2697 13.1543C9.9107 13.2818 10.5751 13.2164 11.1789 12.9663C11.7827 12.7162 12.2988 12.2926 12.6619 11.7492ZM11.2881 8.99544C11.4697 9.26715 11.5666 9.58659 11.5666 9.91337C11.5666 10.3516 11.3925 10.7718 11.0827 11.0817C10.7728 11.3915 10.3526 11.5656 9.91436 11.5656C9.58758 11.5656 9.26814 11.4687 8.99644 11.2871C8.72473 11.1056 8.51296 10.8476 8.38791 10.5456C8.26285 10.2437 8.23014 9.91154 8.29389 9.59104C8.35764 9.27054 8.515 8.97614 8.74607 8.74507C8.97713 8.514 9.27153 8.35665 9.59203 8.29289C9.91253 8.22914 10.2447 8.26186 10.5466 8.38692C10.8485 8.51197 11.1066 8.72374 11.2881 8.99544ZM17.3494 9.08726H35.5238C35.7429 9.08726 35.953 9.17429 36.108 9.32922C36.2629 9.48415 36.3499 9.69427 36.3499 9.91337C36.3499 10.1325 36.2629 10.3426 36.108 10.4975C35.953 10.6524 35.7429 10.7395 35.5238 10.7395H17.3494C17.1303 10.7395 16.9201 10.6524 16.7652 10.4975C16.6103 10.3426 16.5233 10.1325 16.5233 9.91337C16.5233 9.69427 16.6103 9.48415 16.7652 9.32922C16.9201 9.17429 17.1303 9.08726 17.3494 9.08726ZM12.6619 34.8803C13.025 34.3369 13.2188 33.698 13.2188 33.0445C13.2188 32.1681 12.8707 31.3276 12.251 30.7079C11.6313 30.0882 10.7908 29.74 9.91436 29.74C9.26081 29.74 8.62192 29.9338 8.07851 30.2969C7.5351 30.66 7.11156 31.1761 6.86145 31.7799C6.61135 32.3837 6.54591 33.0481 6.67341 33.6891C6.80091 34.3301 7.11563 34.9189 7.57777 35.3811C8.0399 35.8432 8.6287 36.1579 9.2697 36.2854C9.9107 36.4129 10.5751 36.3475 11.1789 36.0974C11.7827 35.8473 12.2988 35.4237 12.6619 34.8803ZM11.2881 32.1265C11.4697 32.3983 11.5666 32.7177 11.5666 33.0445C11.5666 33.4827 11.3925 33.9029 11.0827 34.2128C10.7728 34.5226 10.3526 34.6967 9.91436 34.6967C9.58758 34.6967 9.26814 34.5998 8.99644 34.4183C8.72473 34.2367 8.51296 33.9787 8.38791 33.6768C8.26285 33.3748 8.23014 33.0426 8.29389 32.7221C8.35764 32.4016 8.515 32.1072 8.74607 31.8762C8.97713 31.6451 9.27153 31.4878 9.59203 31.424C9.91253 31.3603 10.2447 31.393 10.5466 31.518C10.8485 31.6431 11.1066 31.8548 11.2881 32.1265ZM16.7652 32.4603C16.9201 32.3054 17.1303 32.2184 17.3494 32.2184H24.7844C25.0035 32.2184 25.2136 32.3054 25.3685 32.4603C25.5234 32.6153 25.6105 32.8254 25.6105 33.0445C25.6105 33.2636 25.5234 33.4737 25.3685 33.6286C25.2136 33.7836 25.0035 33.8706 24.7844 33.8706H17.3494C17.1303 33.8706 16.9201 33.7836 16.7652 33.6286C16.6103 33.4737 16.5233 33.2636 16.5233 33.0445C16.5233 32.8254 16.6103 32.6153 16.7652 32.4603ZM37.176 35.5228H39.6544C39.8735 35.5228 40.0836 35.6098 40.2385 35.7648C40.3934 35.9197 40.4805 36.1298 40.4805 36.3489C40.4805 36.568 40.3934 36.7781 40.2385 36.9331C40.0836 37.088 39.8735 37.175 39.6544 37.175H37.176V39.6534C37.176 39.8725 37.089 40.0826 36.9341 40.2375C36.7791 40.3924 36.569 40.4795 36.3499 40.4795C36.1308 40.4795 35.9207 40.3924 35.7658 40.2375C35.6108 40.0826 35.5238 39.8725 35.5238 39.6534V37.175H33.0455C32.8264 37.175 32.6162 37.088 32.4613 36.9331C32.3064 36.7781 32.2194 36.568 32.2194 36.3489C32.2194 36.1298 32.3064 35.9197 32.4613 35.7648C32.6162 35.6098 32.8264 35.5228 33.0455 35.5228H35.5238V33.0445C35.5238 32.8254 35.6108 32.6153 35.7658 32.4603C35.9207 32.3054 36.1308 32.2184 36.3499 32.2184C36.569 32.2184 36.7791 32.3054 36.9341 32.4603C37.089 32.6153 37.176 32.8254 37.176 33.0445V35.5228Z" fill="#725AFF"/>
</svg>
