<svg width="26" height="26" viewBox="0 0 26 26" fill="none" xmlns="http://www.w3.org/2000/svg">
<path d="M0.398438 20.5071V4.64043C0.399796 3.52694 0.842731 2.45944 1.63009 1.67208C2.41745 0.884723 3.48495 0.441788 4.59844 0.44043H20.4651C21.5786 0.441788 22.6461 0.884723 23.4335 1.67208C24.2208 2.45944 24.6637 3.52694 24.6651 4.64043V15.3738C24.6651 15.4975 24.6159 15.6162 24.5284 15.7037C24.4409 15.7913 24.3222 15.8404 24.1984 15.8404C24.0747 15.8404 23.956 15.7913 23.8685 15.7037C23.7809 15.6162 23.7318 15.4975 23.7318 15.3738V4.64043C23.7308 3.77436 23.3863 2.94404 22.7739 2.33164C22.1615 1.71923 21.3312 1.37475 20.4651 1.37376H4.59844C3.73237 1.37475 2.90205 1.71923 2.28965 2.33164C1.67724 2.94404 1.33276 3.77436 1.33177 4.64043V20.5071C1.33276 21.3732 1.67724 22.2035 2.28965 22.8159C2.90205 23.4283 3.73237 23.7728 4.59844 23.7738H15.3318C15.4555 23.7738 15.5742 23.8229 15.6618 23.9104C15.7493 23.998 15.7984 24.1167 15.7984 24.2404C15.7984 24.3642 15.7493 24.4829 15.6618 24.5704C15.5742 24.6579 15.4555 24.7071 15.3318 24.7071H4.59844C3.48495 24.7057 2.41745 24.2628 1.63009 23.4754C0.842731 22.6881 0.399796 21.6206 0.398438 20.5071ZM7.8651 12.5738C7.8651 12.943 7.75563 13.3039 7.55051 13.6108C7.3454 13.9178 7.05387 14.1571 6.71278 14.2983C6.37169 14.4396 5.99637 14.4766 5.63427 14.4046C5.27217 14.3325 4.93956 14.1548 4.6785 13.8937C4.41745 13.6326 4.23966 13.3 4.16764 12.9379C4.09561 12.5758 4.13258 12.2005 4.27386 11.8594C4.41515 11.5183 4.6544 11.2268 4.96137 11.0217C5.26835 10.8166 5.62925 10.7071 5.99844 10.7071C6.49351 10.7071 6.9683 10.9038 7.31837 11.2538C7.66844 11.6039 7.8651 12.0787 7.8651 12.5738ZM6.93177 12.5738C6.93177 12.3892 6.87703 12.2087 6.77448 12.0552C6.67192 11.9017 6.52615 11.7821 6.35561 11.7115C6.18507 11.6408 5.9974 11.6224 5.81635 11.6584C5.6353 11.6944 5.469 11.7833 5.33847 11.9138C5.20794 12.0443 5.11905 12.2106 5.08304 12.3917C5.04703 12.5727 5.06551 12.7604 5.13615 12.9309C5.20679 13.1015 5.32642 13.2472 5.47991 13.3498C5.63339 13.4524 5.81384 13.5071 5.99844 13.5071C6.24597 13.5071 6.48337 13.4088 6.6584 13.2337C6.83344 13.0587 6.93177 12.8213 6.93177 12.5738ZM20.9318 12.5738C20.9318 12.45 20.8826 12.3313 20.7951 12.2438C20.7076 12.1563 20.5889 12.1071 20.4651 12.1071H10.1984C10.0747 12.1071 9.95597 12.1563 9.86845 12.2438C9.78094 12.3313 9.73177 12.45 9.73177 12.5738C9.73177 12.6975 9.78094 12.8162 9.86845 12.9037C9.95597 12.9913 10.0747 13.0404 10.1984 13.0404H20.4651C20.5889 13.0404 20.7076 12.9913 20.7951 12.9037C20.8826 12.8162 20.9318 12.6975 20.9318 12.5738ZM7.8651 6.04043C7.8651 6.40962 7.75563 6.77052 7.55051 7.07749C7.3454 7.38447 7.05387 7.62372 6.71278 7.76501C6.37169 7.90629 5.99637 7.94326 5.63427 7.87123C5.27217 7.7992 4.93956 7.62142 4.6785 7.36036C4.41745 7.0993 4.23966 6.7667 4.16764 6.4046C4.09561 6.0425 4.13258 5.66718 4.27386 5.32609C4.41515 4.985 4.6544 4.69347 4.96137 4.48835C5.26835 4.28324 5.62925 4.17376 5.99844 4.17376C6.49351 4.17376 6.9683 4.37043 7.31837 4.7205C7.66844 5.07057 7.8651 5.54536 7.8651 6.04043ZM6.93177 6.04043C6.93177 5.85583 6.87703 5.67538 6.77448 5.5219C6.67192 5.36841 6.52615 5.24878 6.35561 5.17814C6.18507 5.1075 5.9974 5.08902 5.81635 5.12503C5.6353 5.16104 5.469 5.24993 5.33847 5.38046C5.20794 5.51099 5.11905 5.6773 5.08304 5.85835C5.04703 6.03939 5.06551 6.22706 5.13615 6.3976C5.20679 6.56815 5.32642 6.71391 5.47991 6.81647C5.63339 6.91902 5.81384 6.97376 5.99844 6.97376C6.24597 6.97376 6.48337 6.87543 6.6584 6.7004C6.83344 6.52536 6.93177 6.28797 6.93177 6.04043ZM20.4651 5.57376H10.1984C10.0747 5.57376 9.95597 5.62293 9.86845 5.71045C9.78094 5.79796 9.73177 5.91666 9.73177 6.04043C9.73177 6.1642 9.78094 6.2829 9.86845 6.37041C9.95597 6.45793 10.0747 6.5071 10.1984 6.5071H20.4651C20.5889 6.5071 20.7076 6.45793 20.7951 6.37041C20.8826 6.2829 20.9318 6.1642 20.9318 6.04043C20.9318 5.91666 20.8826 5.79796 20.7951 5.71045C20.7076 5.62293 20.5889 5.57376 20.4651 5.57376ZM7.8651 19.1071C7.8651 19.4763 7.75563 19.8372 7.55051 20.1442C7.3454 20.4511 7.05387 20.6904 6.71278 20.8317C6.37169 20.973 5.99637 21.0099 5.63427 20.9379C5.27217 20.8659 4.93956 20.6881 4.6785 20.427C4.41745 20.166 4.23966 19.8334 4.16764 19.4713C4.09561 19.1092 4.13258 18.7338 4.27386 18.3928C4.41515 18.0517 4.6544 17.7601 4.96137 17.555C5.26835 17.3499 5.62925 17.2404 5.99844 17.2404C6.49351 17.2404 6.9683 17.4371 7.31837 17.7872C7.66844 18.1372 7.8651 18.612 7.8651 19.1071ZM6.93177 19.1071C6.93177 18.9225 6.87703 18.7421 6.77448 18.5886C6.67192 18.4351 6.52615 18.3155 6.35561 18.2448C6.18507 18.1742 5.9974 18.1557 5.81635 18.1917C5.6353 18.2277 5.469 18.3166 5.33847 18.4471C5.20794 18.5777 5.11905 18.744 5.08304 18.925C5.04703 19.1061 5.06551 19.2937 5.13615 19.4643C5.20679 19.6348 5.32642 19.7806 5.47991 19.8831C5.63339 19.9857 5.81384 20.0404 5.99844 20.0404C6.24597 20.0404 6.48337 19.9421 6.6584 19.7671C6.83344 19.592 6.93177 19.3546 6.93177 19.1071ZM10.1984 18.6404C10.0747 18.6404 9.95597 18.6896 9.86845 18.7771C9.78094 18.8646 9.73177 18.9833 9.73177 19.1071C9.73177 19.2309 9.78094 19.3496 9.86845 19.4371C9.95597 19.5246 10.0747 19.5738 10.1984 19.5738H14.3984C14.5222 19.5738 14.6409 19.5246 14.7284 19.4371C14.8159 19.3496 14.8651 19.2309 14.8651 19.1071C14.8651 18.9833 14.8159 18.8646 14.7284 18.7771C14.6409 18.6896 14.5222 18.6404 14.3984 18.6404H10.1984ZM25.5984 20.9738C25.5984 21.8967 25.3247 22.799 24.812 23.5664C24.2992 24.3339 23.5704 24.932 22.7176 25.2852C21.8649 25.6384 20.9266 25.7308 20.0214 25.5508C19.1161 25.3707 18.2846 24.9262 17.6319 24.2736C16.9793 23.621 16.5348 22.7894 16.3548 21.8842C16.1747 20.9789 16.2671 20.0406 16.6203 19.1879C16.9735 18.3352 17.5717 17.6064 18.3391 17.0936C19.1065 16.5808 20.0088 16.3071 20.9318 16.3071C22.169 16.3085 23.3552 16.8006 24.2301 17.6754C25.105 18.5503 25.5971 19.7365 25.5984 20.9738ZM24.6651 20.9738C24.6651 20.2354 24.4461 19.5136 24.0359 18.8996C23.6257 18.2857 23.0426 17.8072 22.3605 17.5246C21.6783 17.242 20.9276 17.1681 20.2034 17.3122C19.4792 17.4562 18.814 17.8118 18.2919 18.3339C17.7698 18.856 17.4142 19.5212 17.2702 20.2454C17.1261 20.9696 17.2001 21.7203 17.4826 22.4024C17.7652 23.0846 18.2437 23.6677 18.8576 24.0779C19.4716 24.4881 20.1934 24.7071 20.9318 24.7071C21.9216 24.706 22.8705 24.3123 23.5704 23.6124C24.2703 22.9125 24.664 21.9636 24.6651 20.9738ZM22.7984 20.5071H21.3984V19.1071C21.3984 18.9833 21.3493 18.8646 21.2618 18.7771C21.1742 18.6896 21.0555 18.6404 20.9318 18.6404C20.808 18.6404 20.6893 18.6896 20.6018 18.7771C20.5143 18.8646 20.4651 18.9833 20.4651 19.1071V20.5071H19.0651C18.9413 20.5071 18.8226 20.5563 18.7351 20.6438C18.6476 20.7313 18.5984 20.85 18.5984 20.9738C18.5984 21.0975 18.6476 21.2162 18.7351 21.3037C18.8226 21.3913 18.9413 21.4404 19.0651 21.4404H20.4651V22.8404C20.4651 22.9642 20.5143 23.0829 20.6018 23.1704C20.6893 23.2579 20.808 23.3071 20.9318 23.3071C21.0555 23.3071 21.1742 23.2579 21.2618 23.1704C21.3493 23.0829 21.3984 22.9642 21.3984 22.8404V21.4404H22.7984C22.9222 21.4404 23.0409 21.3913 23.1284 21.3037C23.2159 21.2162 23.2651 21.0975 23.2651 20.9738C23.2651 20.85 23.2159 20.7313 23.1284 20.6438C23.0409 20.5563 22.9222 20.5071 22.7984 20.5071Z" fill="#979EA8"/>
</svg>
