<svg width="45" height="45" viewBox="0 0 45 45" fill="none" xmlns="http://www.w3.org/2000/svg">
<path fill-rule="evenodd" clip-rule="evenodd" d="M0 7.92C0 3.54591 3.54591 0 7.92 0H36.69C41.0641 0 44.61 3.54591 44.61 7.92V8.92203H0V7.92ZM0 10.5949H44.61V36.69C44.61 41.0641 41.0641 44.61 36.69 44.61H7.92C3.54591 44.61 0 41.0641 0 36.69V10.5949ZM31.6167 3.68143C31.1548 3.68143 30.7803 4.05591 30.7803 4.51786C30.7803 4.97982 31.1548 5.3543 31.6167 5.3543H38.1967C38.6586 5.3543 39.0331 4.97982 39.0331 4.51786C39.0331 4.05591 38.6586 3.68143 38.1967 3.68143H31.6167ZM7.80863 5.06393C8.14138 5.06393 8.41113 4.79418 8.41113 4.46143C8.41113 4.12868 8.14138 3.85893 7.80863 3.85893C7.47587 3.85893 7.20613 4.12868 7.20613 4.46143C7.20613 4.79418 7.47587 5.06393 7.80863 5.06393ZM7.80863 6.69193C9.0405 6.69193 10.0391 5.6933 10.0391 4.46143C10.0391 3.22956 9.0405 2.23093 7.80863 2.23093C6.57675 2.23093 5.57812 3.22956 5.57812 4.46143C5.57812 5.6933 6.57675 6.69193 7.80863 6.69193ZM14.5439 4.46143C14.5439 4.79418 14.2742 5.06393 13.9414 5.06393C13.6087 5.06393 13.3389 4.79418 13.3389 4.46143C13.3389 4.12868 13.6087 3.85893 13.9414 3.85893C14.2742 3.85893 14.5439 4.12868 14.5439 4.46143ZM16.1719 4.46143C16.1719 5.6933 15.1733 6.69193 13.9414 6.69193C12.7095 6.69193 11.7109 5.6933 11.7109 4.46143C11.7109 3.22956 12.7095 2.23093 13.9414 2.23093C15.1733 2.23093 16.1719 3.22956 16.1719 4.46143ZM20.0742 5.06393C20.407 5.06393 20.6768 4.79418 20.6768 4.46143C20.6768 4.12868 20.407 3.85893 20.0742 3.85893C19.7415 3.85893 19.4718 4.12868 19.4718 4.46143C19.4718 4.79418 19.7415 5.06393 20.0742 5.06393ZM20.0742 6.69193C21.3061 6.69193 22.3048 5.6933 22.3048 4.46143C22.3048 3.22956 21.3061 2.23093 20.0742 2.23093C18.8424 2.23093 17.8438 3.22956 17.8438 4.46143C17.8438 5.6933 18.8424 6.69193 20.0742 6.69193ZM17.2554 17.1416C16.9331 16.8193 16.9331 16.2968 17.2554 15.9745C17.5777 15.6522 18.1003 15.6522 18.4226 15.9745L19.991 17.5429C20.6546 17.0999 21.4522 16.8416 22.31 16.8416C23.1669 16.8416 23.9637 17.0993 24.6269 17.5415L26.1938 15.9746C26.5161 15.6524 27.0386 15.6524 27.3609 15.9746C27.6832 16.2969 27.6832 16.8195 27.3609 17.1418L25.7937 18.709C26.235 19.3718 26.4922 20.1677 26.4922 21.0238V21.7959C26.4922 21.9862 26.4665 22.1706 26.4184 22.3457C27.2746 22.4987 27.9815 23.0824 28.3071 23.8646L30.2778 21.8939C30.6042 21.5675 31.1334 21.5675 31.4598 21.8939C31.7862 22.2202 31.7862 22.7494 31.4598 23.0758L28.5004 26.0352V28.1049H31.23C31.6919 28.1049 32.0664 28.4794 32.0664 28.9414C32.0664 29.4033 31.6919 29.7778 31.23 29.7778H28.5004V31.3875L31.475 34.3621C31.8016 34.6888 31.8016 35.2184 31.475 35.545C31.1483 35.8717 30.6187 35.8717 30.2921 35.545L28.4306 33.6836C27.9867 36.5874 25.4783 38.8118 22.4504 38.8118H22.1711C19.1411 38.8118 16.6314 36.5844 16.19 33.6777L14.3219 35.5457C13.9953 35.8724 13.4657 35.8724 13.139 35.5457C12.8124 35.2191 12.8124 34.6895 13.139 34.3628L16.1211 31.3807V29.7778H13.3885C12.9266 29.7778 12.5521 29.4033 12.5521 28.9414C12.5521 28.4794 12.9266 28.1049 13.3885 28.1049H16.1211V26.0568L13.1395 23.0752C12.8131 22.7488 12.8131 22.2196 13.1395 21.8932C13.4659 21.5668 13.9951 21.5668 14.3215 21.8932L16.3081 23.8798C16.6306 23.0904 17.3406 22.5003 18.2016 22.3459C18.1535 22.1708 18.1278 21.9863 18.1278 21.7959V21.0238C18.1278 20.1687 18.3844 19.3735 18.8249 18.7111L17.2554 17.1416ZM24.8642 21.7959C24.8642 22.041 24.6655 22.2396 24.4204 22.2396H20.1996C19.9545 22.2396 19.7558 22.041 19.7558 21.7959V21.0238C19.7558 19.6131 20.8994 18.4696 22.31 18.4696C23.7206 18.4696 24.8642 19.6131 24.8642 21.0238V21.7959ZM18.6511 23.9341H21.4727V37.129C19.3623 36.7941 17.7491 34.9664 17.7491 32.7618V24.8361C17.7491 24.338 18.1529 23.9341 18.6511 23.9341ZM23.1232 37.133V23.9341H25.9704C26.4685 23.9341 26.8724 24.338 26.8724 24.8361V32.7618C26.8724 34.9753 25.2461 36.8089 23.1232 37.133Z" fill="#725AFF"/>
</svg>
