<svg width="26" height="26" viewBox="0 0 26 26" fill="none" xmlns="http://www.w3.org/2000/svg">
<path fill-rule="evenodd" clip-rule="evenodd" d="M21.0656 1.57303H4.93761C2.9474 1.57303 1.33401 3.18641 1.33401 5.17662V5.68057H24.6692V5.17663C24.6692 3.18641 23.0558 1.57303 21.0656 1.57303ZM0.401611 5.68057V6.62557V21.3046C0.401611 23.8098 2.43245 25.8406 4.93761 25.8406H21.0656C23.5708 25.8406 25.6016 23.8098 25.6016 21.3046V6.62557V5.68057V5.17663C25.6016 2.67146 23.5708 0.640625 21.0656 0.640625H4.93761C2.43245 0.640625 0.401611 2.67146 0.401611 5.17662V5.68057ZM24.6692 21.3046V6.62557H1.33401V21.3046C1.33401 23.2948 2.9474 24.9082 4.93761 24.9082H21.0656C23.0558 24.9082 24.6692 23.2948 24.6692 21.3046ZM18.26 3.1606C17.9991 3.1606 17.7875 3.37214 17.7875 3.6331C17.7875 3.89405 17.9991 4.1056 18.26 4.1056H21.9771C22.238 4.1056 22.4496 3.89405 22.4496 3.6331C22.4496 3.37214 22.238 3.1606 21.9771 3.1606H18.26ZM4.81005 3.9919C4.99098 3.9919 5.13765 3.84523 5.13765 3.6643C5.13765 3.48337 4.99098 3.3367 4.81005 3.3367C4.62912 3.3367 4.48245 3.48337 4.48245 3.6643C4.48245 3.84523 4.62912 3.9919 4.81005 3.9919ZM4.81005 4.9243C5.50593 4.9243 6.07005 4.36018 6.07005 3.6643C6.07005 2.96842 5.50593 2.4043 4.81005 2.4043C4.11417 2.4043 3.55005 2.96842 3.55005 3.6643C3.55005 4.36018 4.11417 4.9243 4.81005 4.9243ZM8.60327 3.66459C8.60327 3.84552 8.4566 3.99219 8.27567 3.99219C8.09475 3.99219 7.94807 3.84552 7.94807 3.66459C7.94807 3.48366 8.09475 3.33699 8.27567 3.33699C8.4566 3.33699 8.60327 3.48366 8.60327 3.66459ZM9.53567 3.66459C9.53567 4.36047 8.97155 4.92459 8.27567 4.92459C7.57979 4.92459 7.01567 4.36047 7.01567 3.66459C7.01567 2.96871 7.57979 2.40459 8.27567 2.40459C8.97155 2.40459 9.53567 2.96871 9.53567 3.66459ZM11.7397 3.99219C11.9207 3.99219 12.0673 3.84552 12.0673 3.66459C12.0673 3.48366 11.9207 3.33699 11.7397 3.33699C11.5588 3.33699 11.4121 3.48366 11.4121 3.66459C11.4121 3.84552 11.5588 3.99219 11.7397 3.99219ZM11.7397 4.92459C12.4356 4.92459 12.9997 4.36047 12.9997 3.66459C12.9997 2.96871 12.4356 2.40459 11.7397 2.40459C11.0439 2.40459 10.4797 2.96871 10.4797 3.66459C10.4797 4.36047 11.0439 4.92459 11.7397 4.92459ZM10.1531 10.3228C9.97108 10.1408 9.97108 9.84557 10.1531 9.66351C10.3352 9.48145 10.6304 9.48145 10.8124 9.66351L11.6949 10.546C12.0689 10.2977 12.5176 10.1531 13 10.1531C13.484 10.1531 13.9339 10.2986 14.3085 10.5482L15.1931 9.66364C15.3751 9.48158 15.6703 9.48158 15.8524 9.66364C16.0344 9.8457 16.0344 10.1409 15.8524 10.3229L14.9677 11.2076C15.2172 11.5821 15.3625 12.0318 15.3625 12.5156V12.9517C15.3625 13.0605 15.3477 13.1659 15.3199 13.2659C15.8008 13.3574 16.1974 13.6867 16.3829 14.1267L17.5016 13.008C17.686 12.8236 17.985 12.8236 18.1693 13.008C18.3537 13.1923 18.3537 13.4913 18.1693 13.6756L16.4962 15.3488V16.5166H18.0385C18.2994 16.5166 18.511 16.7281 18.511 16.9891C18.511 17.2501 18.2994 17.4616 18.0385 17.4616H16.4962V18.37L18.1769 20.0507C18.3614 20.2352 18.3614 20.5344 18.1769 20.7189C17.9924 20.9034 17.6932 20.9034 17.5087 20.7189L16.4501 19.6603C16.1769 21.3072 14.7223 22.5642 12.9997 22.5642C11.2781 22.5642 9.82429 21.3087 9.54976 19.6634L8.49353 20.7196C8.30901 20.9041 8.00984 20.9041 7.82532 20.7196C7.64079 20.5351 7.64079 20.2359 7.82532 20.0514L9.50317 18.3735V17.4616H7.96199C7.70103 17.4616 7.48949 17.2501 7.48949 16.9891C7.48949 16.7281 7.70103 16.5166 7.96199 16.5166H9.50317V15.3598L7.81777 13.6744C7.63339 13.49 7.63339 13.1911 7.81777 13.0067C8.00214 12.8223 8.30108 12.8223 8.48546 13.0067L9.61319 14.1344C9.79741 13.6903 10.1962 13.3577 10.6802 13.2657C10.6524 13.1658 10.6375 13.0605 10.6375 12.9517V12.5156C10.6375 12.0304 10.7838 11.5794 11.0346 11.2043L10.1531 10.3228ZM14.1922 13.1897H11.8079C11.6765 13.1897 11.5699 13.0831 11.5699 12.9517V12.5156C11.5699 11.7257 12.2102 11.0855 13 11.0855C13.7899 11.0855 14.4301 11.7257 14.4301 12.5156V12.9517C14.4301 13.0831 14.3236 13.1897 14.1922 13.1897ZM10.9522 14.1726H12.5266V21.5881C11.3406 21.3664 10.4356 20.328 10.4356 19.0992V14.6892C10.4356 14.4039 10.6669 14.1726 10.9522 14.1726ZM13.459 21.5906V14.1726H15.0472C15.3325 14.1726 15.5638 14.4039 15.5638 14.6892V19.0992C15.5638 20.3328 14.6517 21.3744 13.459 21.5906Z" fill="#979EA8"/>
</svg>
