<svg width="45" height="45" viewBox="0 0 45 45" fill="none" xmlns="http://www.w3.org/2000/svg">
<rect x="9.47705" y="42.9375" width="25.6508" height="1.65057" rx="0.825285" fill="#725AFF"/>
<rect x="15.6172" y="44.6104" width="9.14505" height="1.67288" transform="rotate(-90 15.6172 44.6104)" fill="#725AFF"/>
<rect x="27.3242" y="44.6104" width="9.14505" height="1.67288" transform="rotate(-90 27.3242 44.6104)" fill="#725AFF"/>
<path fill-rule="evenodd" clip-rule="evenodd" d="M7.92 0C3.54591 0 0 3.54591 0 7.92001V29.1063C0 33.4804 3.54591 37.0263 7.92 37.0263H36.69C41.0641 37.0263 44.61 33.4804 44.61 29.1063V7.92C44.61 3.54591 41.0641 0 36.69 0H7.92ZM27.6486 18.223L35.2082 25.7826C36.1407 26.7151 36.1407 28.2325 35.2082 29.1649L32.9532 31.4199C32.0206 32.3525 30.5032 32.3524 29.5707 31.4199L22.011 23.8603C21.9191 23.7683 21.8356 23.6695 21.7605 23.5653L19.77 25.5559C20.0873 27.3403 19.5152 29.1932 18.2224 30.4859C16.0464 32.662 12.5058 32.6618 10.3299 30.4859C8.15397 28.31 8.15397 24.7694 10.3299 22.5934C11.6227 21.3007 13.4755 20.7287 15.26 21.0459L17.2283 19.0776L16.5959 18.4453C16.2846 18.134 16.2848 17.6289 16.5959 17.3178L17.1597 16.754L13.1086 12.703H11.1838C10.8407 12.703 10.536 12.4834 10.4275 12.1578L8.73623 7.08408C8.64077 6.79761 8.71529 6.48179 8.92885 6.26823L10.0563 5.14076C10.2699 4.9272 10.5858 4.85269 10.8722 4.94815L15.946 6.63943C16.2715 6.74796 16.4911 7.05257 16.4911 7.39576V9.32058L20.5421 13.3716L21.1059 12.8079C21.4172 12.4965 21.922 12.4965 22.2334 12.8079L22.8657 13.4402L24.834 11.4719C24.5167 9.68742 25.0888 7.83462 26.3815 6.54185C28.0514 4.87204 30.6044 4.43371 32.734 5.45126C33.2297 5.68805 33.343 6.34546 32.9541 6.73436C32.8372 6.85125 32.7736 6.91409 32.7106 6.97742C32.5182 7.17057 32.3304 7.36822 30.6467 9.11813V10.1691H31.6978C33.4477 8.48554 33.6453 8.29768 33.8385 8.10532C33.9019 8.04225 33.9647 7.9787 34.0816 7.86178C34.4702 7.4733 35.1278 7.58566 35.3649 8.08187C36.3823 10.2116 35.944 12.7645 34.2742 14.4344C32.9813 15.7272 31.1285 16.2992 29.3441 15.9819L27.3536 17.9724C27.4578 18.0475 27.5566 18.131 27.6486 18.223ZM26.4769 11.5211C26.5504 11.7961 26.4716 12.0894 26.2704 12.2906L23.9428 14.618C24.1613 14.9819 24.2189 15.2779 24.2727 15.555C24.2783 15.5836 24.2838 15.612 24.2895 15.6403C24.4469 16.4275 24.9799 17.0678 25.6985 17.3722L28.5255 14.5453C28.7267 14.3442 29.0198 14.2656 29.2949 14.339C30.6675 14.7056 32.1434 14.31 33.1466 13.3068C34.0529 12.4005 34.4514 11.1303 34.272 9.90518L32.5718 11.5409C32.4233 11.6838 32.2252 11.7637 32.0191 11.7637H29.8495C29.4092 11.7637 29.0523 11.4067 29.0523 10.9664V8.79684C29.0523 8.59073 29.1321 8.39264 29.275 8.24408L30.9106 6.54397C29.6856 6.36449 28.4154 6.76306 27.5091 7.66932C26.5058 8.67263 26.1103 10.1486 26.4769 11.5211ZM13.4389 11.1085C13.6503 11.1085 13.8531 11.1925 14.0026 11.342L18.2872 15.6266L19.4146 14.4991L15.1301 10.2146C14.9806 10.065 14.8966 9.86223 14.8966 9.6508V7.97041L10.8354 6.61668L10.4047 7.04736L11.7585 11.1085H13.4389ZM18.1271 25.5067C18.0537 25.2318 18.1324 24.9385 18.3337 24.7373L21.1606 21.9105C20.8561 21.192 20.2158 20.6589 19.4286 20.5015C19.401 20.496 19.3735 20.4906 19.3459 20.4852C19.0614 20.4297 18.769 20.3726 18.4063 20.1548L16.0787 22.4823C15.8775 22.6836 15.5842 22.7623 15.3092 22.6888C13.9367 22.3221 12.4607 22.7177 11.4575 23.721C9.90319 25.2753 9.90319 27.8042 11.4575 29.3585C13.0117 30.9128 15.5407 30.9128 17.095 29.3585C18.0982 28.3552 18.4937 26.8793 18.1271 25.5067ZM33.5169 28.6013L34.0807 28.0375C34.3916 27.7267 34.3916 27.2209 34.0807 26.91L26.5211 19.3505C26.3443 19.1736 26.173 19.1412 25.9471 19.0984C25.9168 19.0927 25.8855 19.0868 25.8531 19.0803C24.2701 18.7637 23.0426 17.5362 22.726 15.9532C22.7195 15.9208 22.7136 15.8895 22.7079 15.8591C22.6653 15.634 22.6327 15.4621 22.4558 15.2852L21.6697 14.499L18.2872 17.8816L19.0733 18.6676C19.2501 18.8445 19.4216 18.877 19.6474 18.9197C19.6777 18.9254 19.7089 18.9313 19.7413 18.9378C21.3243 19.2544 22.5518 20.4819 22.8684 22.0649C22.8749 22.0973 22.8808 22.1286 22.8865 22.1588C22.9294 22.3849 22.9619 22.5562 23.1385 22.7329L30.6981 30.2926C31.009 30.6034 31.5147 30.6035 31.8257 30.2926L32.3894 29.7289L25.0522 22.3916C24.7408 22.0802 24.7408 21.5754 25.0522 21.2641C25.3636 20.9527 25.8684 20.9527 26.1797 21.2641L33.5169 28.6013Z" fill="#725AFF"/>
</svg>
