<svg width="26" height="27" viewBox="0 0 26 27" fill="none" xmlns="http://www.w3.org/2000/svg">
<rect x="0.867811" y="1.30604" width="24.2676" height="19.9836" rx="4.0698" stroke="#979EA8" stroke-width="0.9324"/>
<rect x="5.75317" y="25.0947" width="14.49" height="0.9324" rx="0.4662" fill="#979EA8"/>
<rect x="9.22192" y="26.04" width="5.166" height="0.945" transform="rotate(-90 9.22192 26.04)" fill="#979EA8"/>
<rect x="15.8391" y="26.04" width="5.166" height="0.945" transform="rotate(-90 15.8391 26.04)" fill="#979EA8"/>
<path d="M20.2927 15.4037L16.0223 11.1333C15.9703 11.0814 15.9145 11.0342 15.8556 10.9918L16.9801 9.86738C17.9881 10.0466 19.0347 9.72347 19.7651 8.99319C20.7084 8.04989 20.9559 6.60777 20.3812 5.40467C20.2472 5.12436 19.8758 5.06089 19.6563 5.28034C19.3888 5.54783 19.6223 5.32087 18.3097 6.58375H17.7159V5.99005C18.9788 4.67745 18.7519 4.91092 19.0193 4.64347C19.2391 4.42378 19.1751 4.05241 18.895 3.91865C17.692 3.34384 16.2498 3.59145 15.3066 4.53472C14.5763 5.265 14.2531 6.31164 14.4324 7.31967L13.3205 8.43156L12.9633 8.07436C12.7874 7.89848 12.5022 7.89848 12.3264 8.07436L12.0079 8.39283L9.71947 6.10441V5.01709C9.71947 4.82322 9.59544 4.65115 9.41154 4.58984L6.5454 3.63444C6.3836 3.58052 6.20514 3.62261 6.0845 3.74325L5.4476 4.38015C5.32696 4.50079 5.28487 4.6792 5.33879 4.84103L6.29419 7.70717C6.3555 7.89106 6.5276 8.01512 6.72143 8.01512H7.80873L10.0971 10.3035L9.77868 10.622C9.60292 10.7978 9.60283 11.0831 9.77868 11.2589L10.1359 11.6161L9.02402 12.728C8.01599 12.5488 6.96934 12.8719 6.23906 13.6022C5.00987 14.8314 5.00987 16.8314 6.23906 18.0606C7.46823 19.2898 9.46829 19.2899 10.6975 18.0606C11.4278 17.3303 11.7509 16.2837 11.5717 15.2757L12.6962 14.1512C12.7386 14.2101 12.7857 14.2659 12.8377 14.3179L17.1081 18.5882C17.6348 19.115 18.492 19.115 19.0188 18.5882C19.7362 17.8709 19.7751 17.832 20.2927 17.3144C20.8195 16.7877 20.8195 15.9305 20.2927 15.4037ZM15.2437 7.78217C15.3574 7.66849 15.4019 7.50282 15.3604 7.34748C15.1533 6.57213 15.3767 5.73839 15.9435 5.17162C16.4555 4.65968 17.173 4.43453 17.865 4.53592L16.941 5.4963C16.8603 5.58022 16.8152 5.69212 16.8152 5.80856V7.03414C16.8152 7.28286 17.0169 7.48451 17.2656 7.48451H18.4912C18.6076 7.48451 18.7195 7.43941 18.8034 7.35867L19.7638 6.43465C19.8652 7.12671 19.6401 7.84426 19.1281 8.3562C18.5614 8.92291 17.7277 9.14641 16.9523 8.93927C16.7969 8.89781 16.6313 8.94224 16.5176 9.05585L14.9207 10.6528C14.5148 10.4808 14.2137 10.1191 14.1247 9.67438C14.0906 9.50381 14.0651 9.32373 13.9289 9.0969L15.2437 7.78217ZM8.31374 7.24632C8.22928 7.16187 8.11474 7.11443 7.9953 7.11443H7.04605L6.28131 4.82028L6.52459 4.57699L8.81874 5.34171V6.29095C8.81874 6.41039 8.86621 6.52493 8.95067 6.60942L11.371 9.02973L10.7341 9.66664L8.31374 7.24632ZM10.7603 14.8132C10.6466 14.9269 10.6022 15.0926 10.6437 15.2479C10.8508 16.0233 10.6273 16.857 10.0606 17.4237C9.18258 18.3017 7.75397 18.3017 6.876 17.4237C5.998 16.5458 5.998 15.1171 6.876 14.2391C7.44273 13.6724 8.27651 13.4489 9.05185 13.6561C9.20717 13.6976 9.37284 13.6531 9.48651 13.5394L10.8014 12.2246C11.0261 12.3596 11.2031 12.3853 11.3788 12.4205C11.8235 12.5094 12.1853 12.8105 12.3572 13.2164L10.7603 14.8132ZM19.6558 16.6775L19.3373 16.996L15.1925 12.8512C15.0167 12.6754 14.7315 12.6754 14.5556 12.8512C14.3797 13.0271 14.3797 13.3123 14.5556 13.4882L18.7004 17.633L18.3819 17.9514C18.2063 18.127 17.9206 18.127 17.745 17.9514L13.4746 13.681C13.3614 13.5678 13.353 13.4586 13.322 13.3036C13.1431 12.4094 12.4497 11.716 11.5555 11.5371C11.4009 11.5062 11.2914 11.4978 11.1781 11.3845L10.7341 10.9405L12.6448 9.0297L13.0889 9.47379C13.2023 9.58719 13.2107 9.69696 13.2415 9.85113C13.4204 10.7454 14.1138 11.4388 15.0081 11.6176C15.1628 11.6486 15.2721 11.657 15.3854 11.7703L19.6558 16.0406C19.8314 16.2162 19.8314 16.5019 19.6558 16.6775Z" fill="#979EA8"/>
<path d="M9.42623 14.8765C8.8982 14.3485 8.04353 14.3484 7.51546 14.8765C6.98866 15.4033 6.98866 16.2605 7.51546 16.7873C8.0435 17.3153 8.89814 17.3153 9.42623 16.7873C9.95304 16.2605 9.95304 15.4033 9.42623 14.8765ZM8.78927 16.1503C8.61324 16.3263 8.3284 16.3264 8.15237 16.1503C7.97679 15.9748 7.97679 15.689 8.15237 15.5134C8.32834 15.3374 8.61324 15.3374 8.78927 15.5134C8.96491 15.6891 8.96491 15.9748 8.78927 16.1503Z" fill="#979EA8"/>
</svg>
